{
.appVersion = "1352";
copyright = "Copyright 2011 The Wire One Project Authors (https://github.com/cyrealtype/Wire-One)";
customParameters = (
{
name = licenseURL;
value = "http://scripts.sil.org/OFL";
},
{
name = trademark;
value = "Wire is a trademark of Cyreal type foundry.";
},
{
name = license;
value = "This Font Software is licensed under the SIL Open Font License, Version 1.1. This license is available with a FAQ at: http://scripts.sil.org/OFL";
},
{
name = fsType;
value = (
);
},
{
name = "Use Typo Metrics";
value = 1;
},
{
name = "Disable Last Change";
value = 1;
},
{
name = "Use Line Breaks";
value = 1;
},
{
name = vendorID;
value = CYRE;
}
);
date = "2017-11-21 14:12:53 +0000";
designer = "Alexei Vanyashin, Gayaneh Bagdasaryan";
designerURL = "http://cyreal.org";
disablesAutomaticAlignment = 1;
familyName = "Wire One";
featurePrefixes = (
{
code = "@_v = [v w];
@_Yacute = [Yacute Y];
@_W = [W V];
@_quotedbl = [quotedbl quotesingle];
@_quoteleft = [quoteleft quotedblleft];
@_quoteright = [quoteright quotedblright];
@_c = [c ccedilla];
@_guillemotleft = [guillemotleft guilsinglleft];
@_guillemotright = [guillemotright guilsinglright];
@_Eth = [Eth D];
@_C = [C Ccedilla];
@_y = [y yacute ydieresis];
@_comma = [comma period quotesinglbase quotedblbase];
@_hyphen = [hyphen uni00AD endash emdash];
@_b = [b h k thorn];
@_h = [h m n ntilde];
@_m = [m n p r ntilde];
@_u = [u ugrave uacute ucircumflex udieresis];
@_Ugrave = [Ugrave Uacute Ucircumflex Udieresis U];
@_q = [q u ugrave uacute ucircumflex udieresis];
@_a = [a aacute acircumflex atilde adieresis agrave aring];
@_i = [i j igrave iacute icircumflex idieresis dotlessi];
@_e = [e ae egrave eacute ecircumflex edieresis oe];
@_AE = [AE Egrave Eacute Ecircumflex Edieresis OE E];
@_a1 = [a aacute acircumflex atilde adieresis ae agrave aring];
@_Ograve = [Ograve Oacute Ocircumflex Otilde Odieresis Oslash O Q];
@_b1 = [b o p eth ograve oacute ocircumflex otilde oslash thorn odieresis];

glyphs = (
{
glyphname = A;
layers = (
{
layerId = UUID0;
paths = (
{
closed = 1;
nodes = (
"250 700 LINE",
"147 700 LINE SMOOTH",
"66 700 OFFCURVE",
"42 643 OFFCURVE",
"42 586 CURVE SMOOTH",
"42 11 LINE",
"40 9 OFFCURVE",
"39 6 OFFCURVE",
"39 3 CURVE SMOOTH",
"39 -4 OFFCURVE",
"44 -10 OFFCURVE",
"52 -10 CURVE SMOOTH",
"59 -10 OFFCURVE",
"65 -4 OFFCURVE",
"65 3 CURVE SMOOTH",
"65 6 OFFCURVE",
"64 9 OFFCURVE",
"62 11 CURVE",
"62 480 LINE",
"230 480 LINE",
"230 11 LINE",
"228 9 OFFCURVE",
"227 6 OFFCURVE",
"227 3 CURVE SMOOTH",
"227 -4 OFFCURVE",
"233 -10 OFFCURVE",
"240 -10 CURVE SMOOTH",
"248 -10 OFFCURVE",
"253 -4 OFFCURVE",
"253 3 CURVE SMOOTH",
"253 6 OFFCURVE",
"252 9 OFFCURVE",
"250 11 CURVE"
);
},
{
closed = 1;
nodes = (
"62 500 LINE",
"62 586 LINE SMOOTH",
"62 631 OFFCURVE",
"81 680 OFFCURVE",
"147 680 CURVE SMOOTH",
"230 680 LINE",
"230 500 LINE"
);
}
);
width = 292;
}
);
leftKerningGroup = A;
rightKerningGroup = A;
unicode = 0041;
},
{
glyphname = AE;
layers = (
{
layerId = UUID0;
paths = (
{
closed = 1;
nodes = (
"250 20 LINE",
"250 480 LINE",
"387 480 LINE",
"390 478 OFFCURVE",
"393 477 OFFCURVE",
"396 477 CURVE SMOOTH",
"403 477 OFFCURVE",
"409 483 OFFCURVE",
"409 490 CURVE SMOOTH",
"409 498 OFFCURVE",
"403 503 OFFCURVE",
"396 503 CURVE SMOOTH",
"393 503 OFFCURVE",
"390 502 OFFCURVE",
"387 500 CURVE",
"250 500 LINE",
"250 680 LINE",
"416 680 LINE",
"419 678 OFFCURVE",
"422 677 OFFCURVE",
"425 677 CURVE SMOOTH",
"432 677 OFFCURVE",
"438 683 OFFCURVE",
"438 690 CURVE SMOOTH",
"438 697 OFFCURVE",
"432 703 OFFCURVE",
"425 703 CURVE SMOOTH",
"422 703 OFFCURVE",
"419 702 OFFCURVE",
"416 700 CURVE",
"147 700 LINE SMOOTH",
"66 700 OFFCURVE",
"42 643 OFFCURVE",
"42 586 CURVE SMOOTH",
"42 11 LINE",
"40 9 OFFCURVE",
"39 6 OFFCURVE",
"39 3 CURVE SMOOTH",
"39 -4 OFFCURVE",
"44 -10 OFFCURVE",
"52 -10 CURVE SMOOTH",
"59 -10 OFFCURVE",
"65 -4 OFFCURVE",
"65 3 CURVE SMOOTH",
"65 6 OFFCURVE",
"64 9 OFFCURVE",
"62 11 CURVE",
"62 480 LINE",
"230 480 LINE",
"230 0 LINE",
"416 0 LINE",
"419 -2 OFFCURVE",
"422 -3 OFFCURVE",
"425 -3 CURVE SMOOTH",
"432 -3 OFFCURVE",
"438 2 OFFCURVE",
"438 10 CURVE SMOOTH",
"438 17 OFFCURVE",
"432 23 OFFCURVE",
"425 23 CURVE SMOOTH",
"422 23 OFFCURVE",
"419 22 OFFCURVE",
"416 20 CURVE"
);
},
{
closed = 1;
nodes = (
"62 500 LINE",
"62 586 LINE SMOOTH",
"62 631 OFFCURVE",
"81 680 OFFCURVE",
"147 680 CURVE SMOOTH",
"230 680 LINE",
"230 500 LINE"
);
}
);
width = 454;
}
);
leftKerningGroup = A;
rightKerningGroup = AE;
unicode = 00C6;
},
{
glyphname = B;
layers = (
{
layerId = UUID0;
paths = (
{
closed = 1;
nodes = (
"251 386 LINE",
"251 432 OFFCURVE",
"236 471 OFFCURVE",
"193 490 CURVE",
"231 507 OFFCURVE",
"242 554 OFFCURVE",
"242 596 CURVE SMOOTH",
"242 653 OFFCURVE",
"219 700 OFFCURVE",
"144 700 CURVE SMOOTH",
"43 700 LINE",
"43 0 LINE",
"146 0 LINE SMOOTH",
"215 0 OFFCURVE",
"251 40 OFFCURVE",
"251 108 CURVE SMOOTH"
);
},
{
closed = 1;
nodes = (
"63 20 LINE",
"63 480 LINE",
"144 480 LINE SMOOTH",
"211 480 OFFCURVE",
"231 433 OFFCURVE",
"231 386 CURVE SMOOTH",
"231 109 LINE SMOOTH",
"231 54 OFFCURVE",
"203 20 OFFCURVE",
"146 20 CURVE SMOOTH"
);
},
{
closed = 1;
nodes = (
"63 500 LINE",
"63 680 LINE",
"144 680 LINE SMOOTH",
"203 680 OFFCURVE",
"222 642 OFFCURVE",
"222 596 CURVE SMOOTH",
"222 549 OFFCURVE",
"208 500 OFFCURVE",
"144 500 CURVE SMOOTH"
);
}
);
width = 284;
}
);
leftKerningGroup = B;
unicode = 0042;
},
{
glyphname = C;
layers = (
{
layerId = UUID0;
paths = (
{
closed = 1;
nodes = (
"60 596 LINE SMOOTH",
"60 642 OFFCURVE",
"80 690 OFFCURVE",
"144 690 CURVE SMOOTH",
"205 690 OFFCURVE",
"226 647 OFFCURVE",
"228 604 CURVE",
"226 602 OFFCURVE",
"225 600 OFFCURVE",
"225 596 CURVE SMOOTH",
"225 589 OFFCURVE",
"230 583 OFFCURVE",
"238 583 CURVE SMOOTH",
"245 583 OFFCURVE",
"251 589 OFFCURVE",
"251 596 CURVE SMOOTH",
"251 600 OFFCURVE",
"250 603 OFFCURVE",
"248 605 CURVE",
"246 659 OFFCURVE",
"218 710 OFFCURVE",
"144 710 CURVE SMOOTH",
"64 710 OFFCURVE",
"40 653 OFFCURVE",
"40 596 CURVE SMOOTH",
"40 101 LINE SMOOTH",
"40 44 OFFCURVE",
"64 -10 OFFCURVE",
"144 -10 CURVE SMOOTH",
"218 -10 OFFCURVE",
"246 38 OFFCURVE",
"248 92 CURVE",
"250 94 OFFCURVE",
"251 98 OFFCURVE",
"251 101 CURVE SMOOTH",
"251 108 OFFCURVE",
"245 114 OFFCURVE",
"238 114 CURVE SMOOTH",
"230 114 OFFCURVE",
"225 108 OFFCURVE",
"225 101 CURVE SMOOTH",
"225 98 OFFCURVE",
"226 94 OFFCURVE",
"228 92 CURVE",
"226 47 OFFCURVE",
"205 10 OFFCURVE",
"144 10 CURVE SMOOTH",
"80 10 OFFCURVE",
"60 54 OFFCURVE",
"60 101 CURVE SMOOTH"
);
}
);
width = 263;
}
);
leftKerningGroup = C;
rightKerningGroup = C;
unicode = 0043;
},
{
glyphname = D;
layers = (
{
layerId = UUID0;
paths = (
{
closed = 1;
nodes = (
"251 586 LINE",
"251 643 OFFCURVE",
"227 700 OFFCURVE",
"146 700 CURVE SMOOTH",
"43 700 LINE",
"43 0 LINE",
"146 0 LINE SMOOTH",
"227 0 OFFCURVE",
"251 57 OFFCURVE",
"251 114 CURVE SMOOTH"
);
},
{
closed = 1;
nodes = (
"63 20 LINE",
"63 680 LINE",
"146 680 LINE SMOOTH",
"212 680 OFFCURVE",
"231 631 OFFCURVE",
"231 586 CURVE SMOOTH",
"231 114 LINE SMOOTH",
"231 68 OFFCURVE",
"212 20 OFFCURVE",
"146 20 CURVE SMOOTH"
);
}
);
width = 291;
}
);
leftKerningGroup = B;
rightKerningGroup = Eth;
unicode = 0044;
},
{
glyphname = Eth;
layers = (
{
layerId = UUID0;
paths = (
{
closed = 1;
nodes = (
"258 586 LINE",
"258 643 OFFCURVE",
"233 700 OFFCURVE",
"153 700 CURVE SMOOTH",
"50 700 LINE",
"50 500 LINE",
"3 500 LINE",
"1 502 OFFCURVE",
"-1 503 OFFCURVE",
"-5 503 CURVE SMOOTH",
"-12 503 OFFCURVE",
"-18 498 OFFCURVE",
"-18 490 CURVE SMOOTH",
"-18 483 OFFCURVE",
"-12 477 OFFCURVE",
"-5 477 CURVE SMOOTH",
"-1 477 OFFCURVE",
"1 478 OFFCURVE",
"3 480 CURVE",
"50 480 LINE",
"50 0 LINE",
"153 0 LINE SMOOTH",
"233 0 OFFCURVE",
"258 57 OFFCURVE",
"258 114 CURVE SMOOTH"
);
},
{
closed = 1;
nodes = (
"70 20 LINE",
"70 480 LINE",
"144 480 LINE",
"147 478 OFFCURVE",
"150 477 OFFCURVE",
"153 477 CURVE SMOOTH",
"160 477 OFFCURVE",
"166 483 OFFCURVE",
"166 490 CURVE SMOOTH",
"166 498 OFFCURVE",
"160 503 OFFCURVE",
"153 503 CURVE SMOOTH",
"150 503 OFFCURVE",
"147 502 OFFCURVE",
"144 500 CURVE",
"70 500 LINE",
"70 680 LINE",
"153 680 LINE SMOOTH",
"219 680 OFFCURVE",
"238 631 OFFCURVE",
"238 586 CURVE SMOOTH",
"238 114 LINE SMOOTH",
"238 68 OFFCURVE",
"219 20 OFFCURVE",
"153 20 CURVE SMOOTH"
);
}
);
width = 298;
}
);
leftKerningGroup = B;
rightKerningGroup = Eth;
unicode = 00D0;
},
{
glyphname = E;
layers = (
{
layerId = UUID0;
paths = (
{
closed = 1;
nodes = (
"62 20 LINE",
"62 480 LINE",
"199 480 LINE",
"202 478 OFFCURVE",
"205 477 OFFCURVE",
"208 477 CURVE SMOOTH",
"215 477 OFFCURVE",
"221 483 OFFCURVE",
"221 490 CURVE SMOOTH",
"221 498 OFFCURVE",
"215 503 OFFCURVE",
"208 503 CURVE SMOOTH",
"205 503 OFFCURVE",
"202 502 OFFCURVE",
"199 500 CURVE",
"62 500 LINE",
"62 587 LINE SMOOTH",
"62 633 OFFCURVE",
"81 680 OFFCURVE",
"147 680 CURVE SMOOTH",
"228 680 LINE",
"231 678 OFFCURVE",
"234 677 OFFCURVE",
"237 677 CURVE SMOOTH",
"244 677 OFFCURVE",
"250 683 OFFCURVE",
"250 690 CURVE SMOOTH",
"250 697 OFFCURVE",
"244 703 OFFCURVE",
"237 703 CURVE SMOOTH",
"234 703 OFFCURVE",
"231 702 OFFCURVE",
"228 700 CURVE",
"147 700 LINE SMOOTH",
"66 700 OFFCURVE",
"42 644 OFFCURVE",
"42 587 CURVE SMOOTH",
"42 0 LINE",
"228 0 LINE",
"231 -2 OFFCURVE",
"234 -3 OFFCURVE",
"237 -3 CURVE SMOOTH",
"244 -3 OFFCURVE",
"250 2 OFFCURVE",
"250 10 CURVE SMOOTH",
"250 17 OFFCURVE",
"244 23 OFFCURVE",
"237 23 CURVE SMOOTH",
"234 23 OFFCURVE",
"231 22 OFFCURVE",
"228 20 CURVE"
);
}
);
width = 267;
}
);
leftKerningGroup = A;
rightKerningGroup = AE;
unicode = 0045;
},
{
glyphname = F;
layers = (
{
layerId = UUID0;
paths = (
{
closed = 1;
nodes = (
"62 480 LINE",
"199 480 LINE",
"202 478 OFFCURVE",
"205 477 OFFCURVE",
"208 477 CURVE SMOOTH",
"215 477 OFFCURVE",
"221 483 OFFCURVE",
"221 490 CURVE SMOOTH",
"221 498 OFFCURVE",
"215 503 OFFCURVE",
"208 503 CURVE SMOOTH",
"205 503 OFFCURVE",
"202 502 OFFCURVE",
"199 500 CURVE",
"62 500 LINE",
"62 587 LINE SMOOTH",
"62 633 OFFCURVE",
"81 680 OFFCURVE",
"147 680 CURVE SMOOTH",
"228 680 LINE",
"231 678 OFFCURVE",
"234 677 OFFCURVE",
"237 677 CURVE SMOOTH",
"244 677 OFFCURVE",
"250 683 OFFCURVE",
"250 690 CURVE SMOOTH",
"250 697 OFFCURVE",
"244 703 OFFCURVE",
"237 703 CURVE SMOOTH",
"234 703 OFFCURVE",
"231 702 OFFCURVE",
"228 700 CURVE",
"147 700 LINE SMOOTH",
"66 700 OFFCURVE",
"42 644 OFFCURVE",
"42 587 CURVE SMOOTH",
"42 11 LINE",
"40 9 OFFCURVE",
"39 6 OFFCURVE",
"39 3 CURVE SMOOTH",
"39 -4 OFFCURVE",
"44 -10 OFFCURVE",
"52 -10 CURVE SMOOTH",
"59 -10 OFFCURVE",
"65 -4 OFFCURVE",
"65 3 CURVE SMOOTH",
"65 6 OFFCURVE",
"64 9 OFFCURVE",
"62 11 CURVE"
);
}
);
width = 256;
}
);
leftKerningGroup = A;
unicode = 0046;
},
{
glyphname = G;
layers = (
{
layerId = UUID0;
paths = (
{
closed = 1;
nodes = (
"248 299 LINE",
"152 299 LINE",
"150 301 OFFCURVE",
"147 302 OFFCURVE",
"144 302 CURVE SMOOTH",
"137 302 OFFCURVE",
"131 296 OFFCURVE",
"131 289 CURVE SMOOTH",
"131 282 OFFCURVE",
"137 276 OFFCURVE",
"144 276 CURVE SMOOTH",
"147 276 OFFCURVE",
"150 277 OFFCURVE",
"152 279 CURVE",
"228 279 LINE",
"228 101 LINE SMOOTH",
"228 54 OFFCURVE",
"208 10 OFFCURVE",
"144 10 CURVE SMOOTH",
"80 10 OFFCURVE",
"60 54 OFFCURVE",
"60 101 CURVE SMOOTH",
"60 596 LINE SMOOTH",
"60 642 OFFCURVE",
"80 690 OFFCURVE",
"144 690 CURVE SMOOTH",
"205 690 OFFCURVE",
"226 647 OFFCURVE",
"228 604 CURVE",
"226 602 OFFCURVE",
"225 600 OFFCURVE",
"225 596 CURVE SMOOTH",
"225 589 OFFCURVE",
"230 583 OFFCURVE",
"238 583 CURVE SMOOTH",
"245 583 OFFCURVE",
"251 589 OFFCURVE",
"251 596 CURVE SMOOTH",
"251 600 OFFCURVE",
"250 603 OFFCURVE",
"248 605 CURVE",
"246 659 OFFCURVE",
"218 710 OFFCURVE",
"144 710 CURVE SMOOTH",
"64 710 OFFCURVE",
"40 653 OFFCURVE",
"40 596 CURVE SMOOTH",
"40 101 LINE SMOOTH",
"40 44 OFFCURVE",
"64 -10 OFFCURVE",
"144 -10 CURVE SMOOTH",
"221 -10 OFFCURVE",
"248 44 OFFCURVE",
"248 101 CURVE SMOOTH"
);
}
);
width = 279;
}
);
leftKerningGroup = C;
unicode = 0047;
},
{
glyphname = H;
layers = (
{
layerId = UUID0;
paths = (
{
closed = 1;
nodes = (
"251 688 LINE",
"253 691 OFFCURVE",
"254 694 OFFCURVE",
"254 697 CURVE SMOOTH",
"254 704 OFFCURVE",
"249 710 OFFCURVE",
"241 710 CURVE SMOOTH",
"234 710 OFFCURVE",
"228 704 OFFCURVE",
"228 697 CURVE SMOOTH",
"228 694 OFFCURVE",
"229 691 OFFCURVE",
"231 688 CURVE",
"231 500 LINE",
"63 500 LINE",
"63 688 LINE",
"65 691 OFFCURVE",
"66 694 OFFCURVE",
"66 697 CURVE SMOOTH",
"66 704 OFFCURVE",
"61 710 OFFCURVE",
"53 710 CURVE SMOOTH",
"46 710 OFFCURVE",
"40 704 OFFCURVE",
"40 697 CURVE SMOOTH",
"40 694 OFFCURVE",
"41 691 OFFCURVE",
"43 688 CURVE",
"43 11 LINE",
"41 9 OFFCURVE",
"40 6 OFFCURVE",
"40 3 CURVE SMOOTH",
"40 -4 OFFCURVE",
"46 -10 OFFCURVE",
"53 -10 CURVE SMOOTH",
"61 -10 OFFCURVE",
"66 -4 OFFCURVE",
"66 3 CURVE SMOOTH",
"66 6 OFFCURVE",
"65 9 OFFCURVE",
"63 11 CURVE",
"63 480 LINE",
"231 480 LINE",
"231 11 LINE",
"229 9 OFFCURVE",
"228 6 OFFCURVE",
"228 3 CURVE SMOOTH",
"228 -4 OFFCURVE",
"234 -10 OFFCURVE",
"241 -10 CURVE SMOOTH",
"249 -10 OFFCURVE",
"254 -4 OFFCURVE",
"254 3 CURVE SMOOTH",
"254 6 OFFCURVE",
"253 9 OFFCURVE",
"251 11 CURVE"
);
}
);
width = 294;
}
);
leftKerningGroup = B;
rightKerningGroup = A;
unicode = 0048;
},
{
glyphname = I;
layers = (
{
layerId = UUID0;
paths = (
{
closed = 1;
nodes = (
"63 688 LINE",
"65 691 OFFCURVE",
"66 694 OFFCURVE",
"66 697 CURVE SMOOTH",
"66 704 OFFCURVE",
"61 710 OFFCURVE",
"53 710 CURVE SMOOTH",
"46 710 OFFCURVE",
"40 704 OFFCURVE",
"40 697 CURVE SMOOTH",
"40 694 OFFCURVE",
"41 691 OFFCURVE",
"43 688 CURVE",
"43 11 LINE",
"41 9 OFFCURVE",
"40 6 OFFCURVE",
"40 3 CURVE SMOOTH",
"40 -4 OFFCURVE",
"46 -10 OFFCURVE",
"53 -10 CURVE SMOOTH",
"61 -10 OFFCURVE",
"66 -4 OFFCURVE",
"66 3 CURVE SMOOTH",
"66 6 OFFCURVE",
"65 9 OFFCURVE",
"63 11 CURVE"
);
}
);
width = 106;
}
);
leftKerningGroup = B;
rightKerningGroup = A;
unicode = 0049;
},
{
glyphname = J;
layers = (
{
layerId = UUID0;
paths = (
{
closed = 1;
nodes = (
"213 688 LINE",
"215 690 OFFCURVE",
"216 693 OFFCURVE",
"216 697 CURVE SMOOTH",
"216 704 OFFCURVE",
"210 710 OFFCURVE",
"203 710 CURVE SMOOTH",
"197 710 OFFCURVE",
"190 704 OFFCURVE",
"190 697 CURVE SMOOTH",
"190 693 OFFCURVE",
"191 690 OFFCURVE",
"193 688 CURVE",
"193 101 LINE SMOOTH",
"193 54 OFFCURVE",
"173 10 OFFCURVE",
"109 10 CURVE SMOOTH",
"49 10 OFFCURVE",
"26 47 OFFCURVE",
"25 92 CURVE",
"27 94 OFFCURVE",
"28 98 OFFCURVE",
"28 101 CURVE SMOOTH",
"28 108 OFFCURVE",
"22 114 OFFCURVE",
"15 114 CURVE SMOOTH",
"8 114 OFFCURVE",
"2 108 OFFCURVE",
"2 101 CURVE SMOOTH",
"2 98 OFFCURVE",
"3 94 OFFCURVE",
"5 92 CURVE",
"7 38 OFFCURVE",
"35 -10 OFFCURVE",
"109 -10 CURVE SMOOTH",
"188 -10 OFFCURVE",
"213 44 OFFCURVE",
"213 101 CURVE SMOOTH"
);
}
);
width = 255;
}
);
unicode = 004A;
},
{
glyphname = K;
layers = (
{
layerId = UUID0;
paths = (
{
closed = 1;
nodes = (
"251 386 LINE SMOOTH",
"251 443 OFFCURVE",
"224 500 OFFCURVE",
"147 500 CURVE SMOOTH",
"88 500 LINE",
"238 684 LINE",
"244 686 OFFCURVE",
"249 691 OFFCURVE",
"249 697 CURVE SMOOTH",
"249 704 OFFCURVE",
"243 710 OFFCURVE",
"236 710 CURVE SMOOTH",
"229 710 OFFCURVE",
"223 704 OFFCURVE",
"223 697 CURVE SMOOTH",
"223 696 LINE",
"63 500 LINE",
"63 688 LINE",
"65 691 OFFCURVE",
"66 694 OFFCURVE",
"66 697 CURVE SMOOTH",
"66 704 OFFCURVE",
"61 710 OFFCURVE",
"53 710 CURVE SMOOTH",
"46 710 OFFCURVE",
"40 704 OFFCURVE",
"40 697 CURVE SMOOTH",
"40 694 OFFCURVE",
"41 691 OFFCURVE",
"43 688 CURVE",
"43 11 LINE",
"41 9 OFFCURVE",
"40 6 OFFCURVE",
"40 3 CURVE SMOOTH",
"40 -4 OFFCURVE",
"46 -10 OFFCURVE",
"53 -10 CURVE SMOOTH",
"61 -10 OFFCURVE",
"66 -4 OFFCURVE",
"66 3 CURVE SMOOTH",
"66 6 OFFCURVE",
"65 9 OFFCURVE",
"63 11 CURVE",
"63 481 LINE",
"147 481 LINE SMOOTH",
"211 481 OFFCURVE",
"231 433 OFFCURVE",
"231 387 CURVE SMOOTH",
"231 11 LINE",
"229 9 OFFCURVE",
"228 6 OFFCURVE",
"228 3 CURVE SMOOTH",
"228 -4 OFFCURVE",
"234 -10 OFFCURVE",
"241 -10 CURVE SMOOTH",
"249 -10 OFFCURVE",
"254 -4 OFFCURVE",
"254 3 CURVE SMOOTH",
"254 6 OFFCURVE",
"253 9 OFFCURVE",
"251 11 CURVE"
);
}
);
width = 286;
}
);
leftKerningGroup = B;
unicode = 004B;
},
{
glyphname = L;
layers = (
{
layerId = UUID0;
paths = (
{
closed = 1;
nodes = (
"63 20 LINE",
"63 688 LINE",
"65 691 OFFCURVE",
"66 694 OFFCURVE",
"66 697 CURVE SMOOTH",
"66 704 OFFCURVE",
"61 710 OFFCURVE",
"53 710 CURVE SMOOTH",
"46 710 OFFCURVE",
"40 704 OFFCURVE",
"40 697 CURVE SMOOTH",
"40 694 OFFCURVE",
"41 691 OFFCURVE",
"43 688 CURVE",
"43 0 LINE",
"236 0 LINE",
"239 -2 OFFCURVE",
"242 -3 OFFCURVE",
"245 -3 CURVE SMOOTH",
"252 -3 OFFCURVE",
"258 2 OFFCURVE",
"258 10 CURVE SMOOTH",
"258 17 OFFCURVE",
"252 23 OFFCURVE",
"245 23 CURVE SMOOTH",
"242 23 OFFCURVE",
"239 22 OFFCURVE",
"236 20 CURVE"
);
}
);
width = 261;
}
);
leftKerningGroup = B;
unicode = 004C;
},
{
glyphname = M;
layers = (
{
layerId = UUID0;
paths = (
{
closed = 1;
nodes = (
"315 688 LINE",
"317 691 OFFCURVE",
"318 694 OFFCURVE",
"318 697 CURVE SMOOTH",
"318 704 OFFCURVE",
"313 710 OFFCURVE",
"305 710 CURVE SMOOTH",
"298 710 OFFCURVE",
"292 704 OFFCURVE",
"292 697 CURVE SMOOTH",
"292 693 LINE",
"179 500 LINE",
"65 693 LINE",
"65 693 OFFCURVE",
"66 695 OFFCURVE",
"66 697 CURVE SMOOTH",
"66 704 OFFCURVE",
"61 710 OFFCURVE",
"53 710 CURVE SMOOTH",
"46 710 OFFCURVE",
"40 704 OFFCURVE",
"40 697 CURVE SMOOTH",
"40 694 OFFCURVE",
"41 691 OFFCURVE",
"43 688 CURVE",
"43 11 LINE",
"41 9 OFFCURVE",
"40 6 OFFCURVE",
"40 3 CURVE SMOOTH",
"40 -4 OFFCURVE",
"46 -10 OFFCURVE",
"53 -10 CURVE SMOOTH",
"61 -10 OFFCURVE",
"66 -4 OFFCURVE",
"66 3 CURVE SMOOTH",
"66 6 OFFCURVE",
"65 9 OFFCURVE",
"63 11 CURVE",
"63 658 LINE",
"168 480 LINE",
"189 480 LINE",
"295 659 LINE",
"295 11 LINE",
"293 9 OFFCURVE",
"292 6 OFFCURVE",
"292 3 CURVE SMOOTH",
"292 -4 OFFCURVE",
"298 -10 OFFCURVE",
"305 -10 CURVE SMOOTH",
"313 -10 OFFCURVE",
"318 -4 OFFCURVE",
"318 3 CURVE SMOOTH",
"318 6 OFFCURVE",
"317 9 OFFCURVE",
"315 11 CURVE"
);
}
);
width = 358;
}
);
leftKerningGroup = B;
rightKerningGroup = A;
unicode = 004D;
},
{
glyphname = N;
layers = (
{
layerId = UUID0;
paths = (
{
closed = 1;
nodes = (
"251 700 LINE",
"231 700 LINE",
"63 521 LINE",
"63 688 LINE",
"65 691 OFFCURVE",
"66 694 OFFCURVE",
"66 697 CURVE SMOOTH",
"66 704 OFFCURVE",
"61 710 OFFCURVE",
"53 710 CURVE SMOOTH",
"46 710 OFFCURVE",
"40 704 OFFCURVE",
"40 697 CURVE SMOOTH",
"40 694 OFFCURVE",
"41 691 OFFCURVE",
"43 688 CURVE",
"43 11 LINE",
"41 9 OFFCURVE",
"40 6 OFFCURVE",
"40 3 CURVE SMOOTH",
"40 -4 OFFCURVE",
"46 -10 OFFCURVE",
"53 -10 CURVE SMOOTH",
"61 -10 OFFCURVE",
"66 -4 OFFCURVE",
"66 3 CURVE SMOOTH",
"66 6 OFFCURVE",
"65 9 OFFCURVE",
"63 11 CURVE",
"63 493 LINE",
"231 672 LINE",
"231 11 LINE",
"229 9 OFFCURVE",
"228 6 OFFCURVE",
"228 3 CURVE SMOOTH",
"228 -4 OFFCURVE",
"234 -10 OFFCURVE",
"241 -10 CURVE SMOOTH",
"249 -10 OFFCURVE",
"254 -4 OFFCURVE",
"254 3 CURVE SMOOTH",
"254 6 OFFCURVE",
"253 9 OFFCURVE",
"251 11 CURVE"
);
}
);
width = 294;
}
);
leftKerningGroup = B;
rightKerningGroup = A;
unicode = 004E;
},
{
glyphname = O;
layers = (
{
layerId = UUID0;
paths = (
{
closed = 1;
nodes = (
"60 596 LINE",
"60 642 OFFCURVE",
"80 690 OFFCURVE",
"144 690 CURVE SMOOTH",
"208 690 OFFCURVE",
"228 642 OFFCURVE",
"228 596 CURVE SMOOTH",
"228 101 LINE SMOOTH",
"228 54 OFFCURVE",
"208 10 OFFCURVE",
"144 10 CURVE SMOOTH",
"80 10 OFFCURVE",
"60 54 OFFCURVE",
"60 101 CURVE SMOOTH"
);
},
{
closed = 1;
nodes = (
"248 596 LINE",
"248 653 OFFCURVE",
"221 710 OFFCURVE",
"144 710 CURVE SMOOTH",
"64 710 OFFCURVE",
"40 653 OFFCURVE",
"40 596 CURVE SMOOTH",
"40 101 LINE SMOOTH",
"40 44 OFFCURVE",
"64 -10 OFFCURVE",
"144 -10 CURVE SMOOTH",
"221 -10 OFFCURVE",
"248 44 OFFCURVE",
"248 101 CURVE SMOOTH"
);
}
);
width = 288;
}
);
leftKerningGroup = C;
rightKerningGroup = Ograve;
unicode = 004F;
},
{
glyphname = Oslash;
layers = (
{
layerId = UUID0;
paths = (
{
closed = 1;
nodes = (
"248 589 LINE",
"303 731 LINE",
"308 733 OFFCURVE",
"310 737 OFFCURVE",
"311 742 CURVE SMOOTH",
"313 750 OFFCURVE",
"307 756 OFFCURVE",
"300 756 CURVE",
"292 757 OFFCURVE",
"287 752 OFFCURVE",
"285 745 CURVE SMOOTH",
"285 744 OFFCURVE",
"285 742 OFFCURVE",
"286 739 CURVE",
"244 631 LINE",
"243 638 LINE SMOOTH",
"232 678 OFFCURVE",
"202 710 OFFCURVE",
"144 710 CURVE SMOOTH",
"64 710 OFFCURVE",
"40 653 OFFCURVE",
"40 596 CURVE SMOOTH",
"40 104 LINE",
"-12 -30 LINE",
"-17 -32 OFFCURVE",
"-19 -36 OFFCURVE",
"-20 -41 CURVE SMOOTH",
"-21 -48 OFFCURVE",
"-16 -55 OFFCURVE",
"-9 -56 CURVE",
"-1 -56 OFFCURVE",
"4 -51 OFFCURVE",
"6 -44 CURVE",
"6 -41 OFFCURVE",
"5 -39 OFFCURVE",
"4 -37 CURVE",
"43 65 LINE",
"45 60 LINE SMOOTH",
"56 21 OFFCURVE",
"84 -10 OFFCURVE",
"144 -10 CURVE SMOOTH",
"221 -10 OFFCURVE",
"248 44 OFFCURVE",
"248 101 CURVE SMOOTH"
);
},
{
closed = 1;
nodes = (
"228 589 LINE",
"60 156 LINE",
"60 596 LINE SMOOTH",
"60 642 OFFCURVE",
"80 690 OFFCURVE",
"144 690 CURVE SMOOTH",
"208 690 OFFCURVE",
"228 642 OFFCURVE",
"228 596 CURVE SMOOTH"
);
},
{
closed = 1;
nodes = (
"60 107 LINE",
"228 538 LINE",
"228 101 LINE SMOOTH",
"228 54 OFFCURVE",
"208 10 OFFCURVE",
"144 10 CURVE SMOOTH",
"80 10 OFFCURVE",
"60 54 OFFCURVE",
"60 101 CURVE SMOOTH"
);
}
);
width = 291;
}
);
leftKerningGroup = C;
rightKerningGroup = Ograve;
unicode = 00D8;
},
{
glyphname = P;
layers = (
{
layerId = UUID0;
paths = (
{
closed = 1;
nodes = (
"63 200 LINE",
"150 200 LINE SMOOTH",
"229 200 OFFCURVE",
"254 254 OFFCURVE",
"254 311 CURVE SMOOTH",
"254 586 LINE SMOOTH",
"254 643 OFFCURVE",
"229 700 OFFCURVE",
"150 700 CURVE SMOOTH",
"43 700 LINE",
"43 11 LINE",
"41 9 OFFCURVE",
"40 6 OFFCURVE",
"40 3 CURVE SMOOTH",
"40 -4 OFFCURVE",
"46 -10 OFFCURVE",
"53 -10 CURVE SMOOTH",
"61 -10 OFFCURVE",
"66 -4 OFFCURVE",
"66 3 CURVE SMOOTH",
"66 6 OFFCURVE",
"65 9 OFFCURVE",
"63 11 CURVE"
);
},
{
closed = 1;
nodes = (
"63 220 LINE",
"63 680 LINE",
"150 680 LINE SMOOTH",
"214 680 OFFCURVE",
"234 631 OFFCURVE",
"234 586 CURVE SMOOTH",
"234 311 LINE SMOOTH",
"234 264 OFFCURVE",
"214 220 OFFCURVE",
"150 220 CURVE SMOOTH"
);
}
);
width = 280;
}
);
leftKerningGroup = B;
unicode = 0050;
},
{
glyphname = Thorn;
layers = (
{
layerId = UUID0;
paths = (
{
closed = 1;
nodes = (
"63 200 LINE",
"150 200 LINE SMOOTH",
"229 200 OFFCURVE",
"254 254 OFFCURVE",
"254 311 CURVE SMOOTH",
"254 491 LINE SMOOTH",
"254 548 OFFCURVE",
"229 605 OFFCURVE",
"150 605 CURVE SMOOTH",
"63 605 LINE",
"63 688 LINE",
"65 691 OFFCURVE",
"66 694 OFFCURVE",
"66 697 CURVE SMOOTH",
"66 704 OFFCURVE",
"61 710 OFFCURVE",
"53 710 CURVE SMOOTH",
"46 710 OFFCURVE",
"40 704 OFFCURVE",
"40 697 CURVE SMOOTH",
"40 694 OFFCURVE",
"41 691 OFFCURVE",
"43 688 CURVE",
"43 11 LINE",
"41 9 OFFCURVE",
"40 6 OFFCURVE",
"40 3 CURVE SMOOTH",
"40 -4 OFFCURVE",
"46 -10 OFFCURVE",
"53 -10 CURVE SMOOTH",
"61 -10 OFFCURVE",
"66 -4 OFFCURVE",
"66 3 CURVE SMOOTH",
"66 6 OFFCURVE",
"65 9 OFFCURVE",
"63 11 CURVE"
);
},
{
closed = 1;
nodes = (
"63 220 LINE",
"63 585 LINE",
"150 585 LINE SMOOTH",
"214 585 OFFCURVE",
"234 537 OFFCURVE",
"234 491 CURVE SMOOTH",
"234 311 LINE SMOOTH",
"234 264 OFFCURVE",
"214 220 OFFCURVE",
"150 220 CURVE SMOOTH"
);
}
);
width = 274;
}
);
leftKerningGroup = B;
unicode = 00DE;
},
{
glyphname = Q;
layers = (
{
layerId = UUID0;
paths = (
{
closed = 1;
nodes = (
"230 32 LINE",
"242 51 OFFCURVE",
"248 76 OFFCURVE",
"248 101 CURVE SMOOTH",
"248 596 LINE SMOOTH",
"248 653 OFFCURVE",
"221 710 OFFCURVE",
"144 710 CURVE SMOOTH",
"64 710 OFFCURVE",
"40 653 OFFCURVE",
"40 596 CURVE SMOOTH",
"40 101 LINE SMOOTH",
"40 44 OFFCURVE",
"64 -10 OFFCURVE",
"144 -10 CURVE SMOOTH",
"177 -10 OFFCURVE",
"201 0 OFFCURVE",
"217 16 CURVE",
"233 1 LINE",
"234 -5 OFFCURVE",
"239 -10 OFFCURVE",
"246 -10 CURVE SMOOTH",
"253 -10 OFFCURVE",
"259 -4 OFFCURVE",
"259 3 CURVE SMOOTH",
"259 10 OFFCURVE",
"253 16 OFFCURVE",
"246 16 CURVE"
);
},
{
closed = 1;
nodes = (
"157 105 LINE",
"156 111 OFFCURVE",
"150 117 OFFCURVE",
"144 117 CURVE SMOOTH",
"137 117 OFFCURVE",
"131 111 OFFCURVE",
"131 104 CURVE SMOOTH",
"131 97 OFFCURVE",
"136 91 OFFCURVE",
"143 91 CURVE",
"203 30 LINE",
"190 18 OFFCURVE",
"171 10 OFFCURVE",
"144 10 CURVE SMOOTH",
"80 10 OFFCURVE",
"60 54 OFFCURVE",
"60 101 CURVE SMOOTH",
"60 596 LINE SMOOTH",
"60 642 OFFCURVE",
"80 690 OFFCURVE",
"144 690 CURVE SMOOTH",
"208 690 OFFCURVE",
"228 642 OFFCURVE",
"228 596 CURVE SMOOTH",
"228 101 LINE SMOOTH",
"228 81 OFFCURVE",
"224 62 OFFCURVE",
"215 46 CURVE"
);
}
);
width = 288;
}
);
leftKerningGroup = C;
rightKerningGroup = Ograve;
unicode = 0051;
},
{
glyphname = R;
layers = (
{
layerId = UUID0;
paths = (
{
closed = 1;
nodes = (
"135 200 LINE",
"150 200 LINE SMOOTH",
"229 200 OFFCURVE",
"254 254 OFFCURVE",
"254 311 CURVE SMOOTH",
"254 586 LINE SMOOTH",
"254 643 OFFCURVE",
"229 700 OFFCURVE",
"150 700 CURVE SMOOTH",
"43 700 LINE",
"43 11 LINE",
"41 9 OFFCURVE",
"40 6 OFFCURVE",
"40 3 CURVE SMOOTH",
"40 -4 OFFCURVE",
"46 -10 OFFCURVE",
"53 -10 CURVE SMOOTH",
"61 -10 OFFCURVE",
"66 -4 OFFCURVE",
"66 3 CURVE SMOOTH",
"66 6 OFFCURVE",
"65 9 OFFCURVE",
"63 11 CURVE",
"63 200 LINE",
"112 200 LINE",
"227 5 LINE",
"227 1 OFFCURVE",
"227 0 OFFCURVE",
"229 -4 CURVE SMOOTH",
"232 -9 OFFCURVE",
"241 -12 OFFCURVE",
"246 -8 CURVE",
"253 -4 OFFCURVE",
"255 4 OFFCURVE",
"251 10 CURVE SMOOTH",
"249 13 OFFCURVE",
"247 15 OFFCURVE",
"244 15 CURVE"
);
},
{
closed = 1;
nodes = (
"63 220 LINE",
"63 680 LINE",
"150 680 LINE SMOOTH",
"214 680 OFFCURVE",
"234 631 OFFCURVE",
"234 586 CURVE SMOOTH",
"234 311 LINE SMOOTH",
"234 264 OFFCURVE",
"214 220 OFFCURVE",
"150 220 CURVE SMOOTH"
);
}
);
width = 284;
}
);
leftKerningGroup = B;
unicode = 0052;
},
{
glyphname = S;
layers = (
{
layerId = UUID0;
paths = (
{
closed = 1;
nodes = (
"238 226 LINE SMOOTH",
"238 259 OFFCURVE",
"229 294 OFFCURVE",
"194 327 CURVE",
"76 431 LINE SMOOTH",
"53 451 OFFCURVE",
"46 477 OFFCURVE",
"45 510 CURVE",
"45 596 LINE SMOOTH",
"45 642 OFFCURVE",
"66 690 OFFCURVE",
"130 690 CURVE SMOOTH",
"190 690 OFFCURVE",
"211 647 OFFCURVE",
"214 604 CURVE",
"212 602 OFFCURVE",
"211 600 OFFCURVE",
"211 596 CURVE SMOOTH",
"211 589 OFFCURVE",
"217 583 OFFCURVE",
"224 583 CURVE SMOOTH",
"231 583 OFFCURVE",
"237 589 OFFCURVE",
"237 596 CURVE SMOOTH",
"237 600 OFFCURVE",
"236 603 OFFCURVE",
"234 605 CURVE",
"231 659 OFFCURVE",
"204 710 OFFCURVE",
"130 710 CURVE SMOOTH",
"51 710 OFFCURVE",
"25 653 OFFCURVE",
"25 596 CURVE SMOOTH",
"25 510 LINE SMOOTH",
"25 479 OFFCURVE",
"29 448 OFFCURVE",
"62 419 CURVE SMOOTH",
"179 315 LINE",
"204 292 OFFCURVE",
"218 260 OFFCURVE",
"218 226 CURVE SMOOTH",
"218 101 LINE SMOOTH",
"218 54 OFFCURVE",
"197 10 OFFCURVE",
"133 10 CURVE SMOOTH",
"73 10 OFFCURVE",
"50 47 OFFCURVE",
"49 92 CURVE",
"51 94 OFFCURVE",
"52 98 OFFCURVE",
"52 101 CURVE SMOOTH",
"52 108 OFFCURVE",
"46 114 OFFCURVE",
"39 114 CURVE SMOOTH",
"32 114 OFFCURVE",
"26 108 OFFCURVE",
"26 101 CURVE SMOOTH",
"26 98 OFFCURVE",
"27 94 OFFCURVE",
"29 92 CURVE",
"33 38 OFFCURVE",
"59 -10 OFFCURVE",
"133 -10 CURVE SMOOTH",
"212 -10 OFFCURVE",
"238 44 OFFCURVE",
"238 101 CURVE SMOOTH"
);
}
);
width = 266;
}
);
unicode = 0053;
},
{
glyphname = T;
layers = (
{
layerId = UUID0;
paths = (
{
closed = 1;
nodes = (
"127 680 LINE",
"202 680 LINE",
"206 678 OFFCURVE",
"208 677 OFFCURVE",
"211 677 CURVE SMOOTH",
"218 677 OFFCURVE",
"224 683 OFFCURVE",
"224 690 CURVE SMOOTH",
"224 697 OFFCURVE",
"218 703 OFFCURVE",
"211 703 CURVE SMOOTH",
"208 703 OFFCURVE",
"205 702 OFFCURVE",
"202 700 CURVE",
"31 700 LINE",
"29 702 OFFCURVE",
"26 703 OFFCURVE",
"23 703 CURVE SMOOTH",
"16 703 OFFCURVE",
"10 697 OFFCURVE",
"10 690 CURVE SMOOTH",
"10 683 OFFCURVE",
"16 677 OFFCURVE",
"23 677 CURVE SMOOTH",
"26 677 OFFCURVE",
"28 678 OFFCURVE",
"31 680 CURVE",
"107 680 LINE",
"107 11 LINE",
"105 9 OFFCURVE",
"104 6 OFFCURVE",
"104 3 CURVE SMOOTH",
"104 -4 OFFCURVE",
"110 -10 OFFCURVE",
"117 -10 CURVE SMOOTH",
"125 -10 OFFCURVE",
"130 -4 OFFCURVE",
"130 3 CURVE SMOOTH",
"130 6 OFFCURVE",
"129 9 OFFCURVE",
"127 11 CURVE"
);
}
);
width = 234;
}
);
unicode = 0054;
},
{
glyphname = U;
layers = (
{
layerId = UUID0;
paths = (
{
closed = 1;
nodes = (
"250 688 LINE",
"252 691 OFFCURVE",
"253 694 OFFCURVE",
"253 697 CURVE SMOOTH",
"253 704 OFFCURVE",
"248 710 OFFCURVE",
"240 710 CURVE SMOOTH",
"233 710 OFFCURVE",
"227 704 OFFCURVE",
"227 697 CURVE SMOOTH",
"227 694 OFFCURVE",
"228 691 OFFCURVE",
"230 688 CURVE",
"230 104 LINE SMOOTH",
"230 59 OFFCURVE",
"210 10 OFFCURVE",
"146 10 CURVE SMOOTH",
"82 10 OFFCURVE",
"62 59 OFFCURVE",
"62 104 CURVE SMOOTH",
"62 688 LINE",
"64 691 OFFCURVE",
"65 694 OFFCURVE",
"65 697 CURVE SMOOTH",
"65 704 OFFCURVE",
"59 710 OFFCURVE",
"52 710 CURVE SMOOTH",
"44 710 OFFCURVE",
"39 704 OFFCURVE",
"39 697 CURVE SMOOTH",
"39 694 OFFCURVE",
"40 691 OFFCURVE",
"42 688 CURVE",
"42 104 LINE SMOOTH",
"42 47 OFFCURVE",
"66 -10 OFFCURVE",
"146 -10 CURVE SMOOTH",
"223 -10 OFFCURVE",
"250 47 OFFCURVE",
"250 104 CURVE SMOOTH"
);
}
);
width = 292;
}
);
leftKerningGroup = Ugrave;
rightKerningGroup = Ugrave;
unicode = 0055;
},
{
glyphname = V;
layers = (
{
layerId = UUID0;
paths = (
{
closed = 1;
nodes = (
"246 687 LINE",
"248 690 OFFCURVE",
"250 693 OFFCURVE",
"250 697 CURVE SMOOTH",
"250 704 OFFCURVE",
"244 710 OFFCURVE",
"237 710 CURVE SMOOTH",
"229 710 OFFCURVE",
"224 704 OFFCURVE",
"224 697 CURVE SMOOTH",
"224 693 OFFCURVE",
"224 692 OFFCURVE",
"226 690 CURVE",
"131 71 LINE",
"36 690 LINE",
"38 692 OFFCURVE",
"38 693 OFFCURVE",
"38 697 CURVE SMOOTH",
"38 704 OFFCURVE",
"32 710 OFFCURVE",
"25 710 CURVE SMOOTH",
"18 710 OFFCURVE",
"12 704 OFFCURVE",
"12 697 CURVE SMOOTH",
"12 693 OFFCURVE",
"14 689 OFFCURVE",
"16 687 CURVE",
"120 10 LINE",
"118 8 OFFCURVE",
"118 5 OFFCURVE",
"118 3 CURVE SMOOTH",
"118 -4 OFFCURVE",
"124 -10 OFFCURVE",
"131 -10 CURVE SMOOTH",
"138 -10 OFFCURVE",
"144 -4 OFFCURVE",
"144 3 CURVE SMOOTH",
"144 5 OFFCURVE",
"144 7 OFFCURVE",
"142 10 CURVE"
);
}
);
width = 262;
}
);
leftKerningGroup = W;
rightKerningGroup = W;
unicode = 0056;
},
{
glyphname = W;
layers = (
{
layerId = UUID0;
paths = (
{
closed = 1;
nodes = (
"458 687 LINE",
"460 690 OFFCURVE",
"462 693 OFFCURVE",
"462 697 CURVE SMOOTH",
"462 704 OFFCURVE",
"457 710 OFFCURVE",
"449 710 CURVE SMOOTH",
"442 710 OFFCURVE",
"436 704 OFFCURVE",
"436 697 CURVE SMOOTH",
"436 693 OFFCURVE",
"436 692 OFFCURVE",
"438 690 CURVE",
"343 71 LINE",
"248 690 LINE",
"250 692 OFFCURVE",
"250 693 OFFCURVE",
"250 697 CURVE SMOOTH",
"250 704 OFFCURVE",
"244 710 OFFCURVE",
"237 710 CURVE SMOOTH",
"229 710 OFFCURVE",
"224 704 OFFCURVE",
"224 697 CURVE SMOOTH",
"224 693 OFFCURVE",
"224 692 OFFCURVE",
"226 690 CURVE",
"131 71 LINE",
"36 690 LINE",
"38 692 OFFCURVE",
"38 693 OFFCURVE",
"38 697 CURVE SMOOTH",
"38 704 OFFCURVE",
"32 710 OFFCURVE",
"25 710 CURVE SMOOTH",
"18 710 OFFCURVE",
"12 704 OFFCURVE",
"12 697 CURVE SMOOTH",
"12 693 OFFCURVE",
"14 689 OFFCURVE",
"16 687 CURVE",
"120 10 LINE",
"118 8 OFFCURVE",
"118 5 OFFCURVE",
"118 3 CURVE SMOOTH",
"118 -4 OFFCURVE",
"124 -10 OFFCURVE",
"131 -10 CURVE SMOOTH",
"138 -10 OFFCURVE",
"144 -4 OFFCURVE",
"144 3 CURVE SMOOTH",
"144 5 OFFCURVE",
"144 7 OFFCURVE",
"142 10 CURVE",
"237 629 LINE",
"332 10 LINE",
"330 8 OFFCURVE",
"330 5 OFFCURVE",
"330 3 CURVE SMOOTH",
"330 -4 OFFCURVE",
"335 -10 OFFCURVE",
"343 -10 CURVE SMOOTH",
"350 -10 OFFCURVE",
"356 -4 OFFCURVE",
"356 3 CURVE SMOOTH",
"356 5 OFFCURVE",
"355 7 OFFCURVE",
"354 10 CURVE"
);
}
);
width = 474;
}
);
leftKerningGroup = W;
rightKerningGroup = W;
unicode = 0057;
},
{
glyphname = X;
layers = (
{
layerId = UUID0;
paths = (
{
closed = 1;
nodes = (
"136 362 LINE",
"234 686 LINE",
"237 689 OFFCURVE",
"239 693 OFFCURVE",
"239 697 CURVE SMOOTH",
"239 704 OFFCURVE",
"233 710 OFFCURVE",
"226 710 CURVE SMOOTH",
"219 710 OFFCURVE",
"213 704 OFFCURVE",
"213 697 CURVE SMOOTH",
"213 694 OFFCURVE",
"213 692 OFFCURVE",
"214 692 CURVE",
"125 398 LINE",
"37 692 LINE",
"37 693 OFFCURVE",
"38 695 OFFCURVE",
"38 697 CURVE SMOOTH",
"38 704 OFFCURVE",
"32 710 OFFCURVE",
"25 710 CURVE SMOOTH",
"18 710 OFFCURVE",
"12 704 OFFCURVE",
"12 697 CURVE SMOOTH",
"12 693 OFFCURVE",
"14 689 OFFCURVE",
"17 686 CURVE",
"114 362 LINE",
"9 13 LINE",
"5 11 OFFCURVE",
"4 7 OFFCURVE",
"4 3 CURVE SMOOTH",
"4 -4 OFFCURVE",
"10 -10 OFFCURVE",
"17 -10 CURVE SMOOTH",
"24 -10 OFFCURVE",
"30 -4 OFFCURVE",
"30 3 CURVE SMOOTH",
"30 4 OFFCURVE",
"29 5 OFFCURVE",
"29 7 CURVE",
"125 326 LINE",
"221 7 LINE",
"221 3 LINE SMOOTH",
"221 -4 OFFCURVE",
"227 -10 OFFCURVE",
"234 -10 CURVE SMOOTH",
"241 -10 OFFCURVE",
"247 -4 OFFCURVE",
"247 3 CURVE SMOOTH",
"247 7 OFFCURVE",
"245 11 OFFCURVE",
"241 13 CURVE"
);
}
);
width = 250;
}
);
unicode = 0058;
},
{
glyphname = Y;
layers = (
{
layerId = UUID0;
paths = (
{
closed = 1;
nodes = (
"133 500 LINE",
"234 685 LINE",
"238 687 OFFCURVE",
"242 691 OFFCURVE",
"242 697 CURVE SMOOTH",
"242 704 OFFCURVE",
"236 710 OFFCURVE",
"229 710 CURVE SMOOTH",
"222 710 OFFCURVE",
"216 704 OFFCURVE",
"216 697 CURVE SMOOTH",
"216 692 LINE",
"124 524 LINE",
"121 524 LINE",
"29 692 LINE",
"29 693 OFFCURVE",
"30 695 OFFCURVE",
"30 697 CURVE SMOOTH",
"30 704 OFFCURVE",
"24 710 OFFCURVE",
"17 710 CURVE SMOOTH",
"10 710 OFFCURVE",
"4 704 OFFCURVE",
"4 697 CURVE SMOOTH",
"4 691 OFFCURVE",
"7 687 OFFCURVE",
"12 685 CURVE",
"113 500 LINE",
"113 11 LINE",
"111 9 OFFCURVE",
"110 6 OFFCURVE",
"110 3 CURVE SMOOTH",
"110 -4 OFFCURVE",
"116 -10 OFFCURVE",
"123 -10 CURVE SMOOTH",
"130 -10 OFFCURVE",
"136 -4 OFFCURVE",
"136 3 CURVE SMOOTH",
"136 5 OFFCURVE",
"135 8 OFFCURVE",
"133 11 CURVE"
);
}
);
width = 245;
}
);
leftKerningGroup = Yacute;
rightKerningGroup = Yacute;
unicode = 0059;
},
{
glyphname = Z;
layers = (
{
layerId = UUID0;
paths = (
{
closed = 1;
nodes = (
"34 20 LINE",
"225 680 LINE",
"225 700 LINE",
"34 700 LINE",
"32 702 OFFCURVE",
"29 703 OFFCURVE",
"26 703 CURVE SMOOTH",
"19 703 OFFCURVE",
"13 697 OFFCURVE",
"13 690 CURVE SMOOTH",
"13 683 OFFCURVE",
"19 677 OFFCURVE",
"26 677 CURVE SMOOTH",
"29 677 OFFCURVE",
"32 678 OFFCURVE",
"34 680 CURVE",
"204 680 LINE",
"13 20 LINE",
"13 0 LINE",
"203 0 LINE",
"206 -2 OFFCURVE",
"209 -3 OFFCURVE",
"212 -3 CURVE SMOOTH",
"219 -3 OFFCURVE",
"225 2 OFFCURVE",
"225 10 CURVE SMOOTH",
"225 17 OFFCURVE",
"219 23 OFFCURVE",
"212 23 CURVE SMOOTH",
"209 23 OFFCURVE",
"206 22 OFFCURVE",
"203 20 CURVE"
);
}
);
width = 239;
}
);
unicode = 005A;
},
{
glyphname = a;
layers = (
{
layerId = UUID0;
paths = (
{
closed = 1;
nodes = (
"237 395 LINE",
"237 452 OFFCURVE",
"212 510 OFFCURVE",
"134 510 CURVE SMOOTH",
"60 510 OFFCURVE",
"34 459 OFFCURVE",
"30 405 CURVE",
"28 403 OFFCURVE",
"27 399 OFFCURVE",
"27 396 CURVE SMOOTH",
"27 390 OFFCURVE",
"33 384 OFFCURVE",
"40 384 CURVE SMOOTH",
"47 384 OFFCURVE",
"53 390 OFFCURVE",
"53 396 CURVE SMOOTH",
"53 399 OFFCURVE",
"52 401 OFFCURVE",
"50 404 CURVE",
"51 447 OFFCURVE",
"74 490 OFFCURVE",
"134 490 CURVE SMOOTH",
"197 490 OFFCURVE",
"217 440 OFFCURVE",
"217 395 CURVE SMOOTH",
"217 301 LINE",
"158 301 LINE SMOOTH",
"49 301 OFFCURVE",
"31 243 OFFCURVE",
"31 186 CURVE SMOOTH",
"31 105 LINE SMOOTH",
"31 48 OFFCURVE",
"56 -10 OFFCURVE",
"134 -10 CURVE SMOOTH",
"174 -10 OFFCURVE",
"199 7 OFFCURVE",
"217 32 CURVE",
"217 11 LINE",
"215 9 OFFCURVE",
"214 6 OFFCURVE",
"214 3 CURVE SMOOTH",
"214 -4 OFFCURVE",
"220 -10 OFFCURVE",
"227 -10 CURVE SMOOTH",
"234 -10 OFFCURVE",
"240 -4 OFFCURVE",
"240 3 CURVE SMOOTH",
"240 5 OFFCURVE",
"239 8 OFFCURVE",
"237 11 CURVE"
);
},
{
closed = 1;
nodes = (
"51 186 LINE",
"51 232 OFFCURVE",
"64 281 OFFCURVE",
"158 281 CURVE SMOOTH",
"217 281 LINE",
"217 98 LINE",
"214 54 OFFCURVE",
"197 10 OFFCURVE",
"134 10 CURVE SMOOTH",
"69 10 OFFCURVE",
"51 59 OFFCURVE",
"51 105 CURVE SMOOTH"
);
}
);
width = 275;
}
);
leftKerningGroup = a;
rightKerningGroup = a;
unicode = 0061;
},
{
glyphname = ae;
layers = (
{
layerId = UUID0;
paths = (
{
closed = 1;
nodes = (
"423 395 LINE",
"423 452 OFFCURVE",
"398 510 OFFCURVE",
"320 510 CURVE SMOOTH",
"268 510 OFFCURVE",
"240 485 OFFCURVE",
"227 451 CURVE",
"213 485 OFFCURVE",
"185 510 OFFCURVE",
"134 510 CURVE SMOOTH",
"60 510 OFFCURVE",
"34 459 OFFCURVE",
"30 405 CURVE",
"28 403 OFFCURVE",
"27 399 OFFCURVE",
"27 396 CURVE SMOOTH",
"27 390 OFFCURVE",
"33 384 OFFCURVE",
"40 384 CURVE SMOOTH",
"47 384 OFFCURVE",
"53 390 OFFCURVE",
"53 396 CURVE SMOOTH",
"53 399 OFFCURVE",
"52 401 OFFCURVE",
"50 404 CURVE",
"51 447 OFFCURVE",
"74 490 OFFCURVE",
"134 490 CURVE SMOOTH",
"197 490 OFFCURVE",
"217 440 OFFCURVE",
"217 395 CURVE SMOOTH",
"217 301 LINE",
"158 301 LINE SMOOTH",
"49 301 OFFCURVE",
"31 243 OFFCURVE",
"31 186 CURVE SMOOTH",
"31 105 LINE SMOOTH",
"31 48 OFFCURVE",
"56 -10 OFFCURVE",
"134 -10 CURVE SMOOTH",
"182 -10 OFFCURVE",
"212 16 OFFCURVE",
"227 48 CURVE",
"240 15 OFFCURVE",
"268 -10 OFFCURVE",
"320 -10 CURVE SMOOTH",
"396 -10 OFFCURVE",
"420 42 OFFCURVE",
"423 96 CURVE",
"425 98 OFFCURVE",
"426 102 OFFCURVE",
"426 104 CURVE SMOOTH",
"426 111 OFFCURVE",
"420 117 OFFCURVE",
"413 117 CURVE SMOOTH",
"406 117 OFFCURVE",
"400 111 OFFCURVE",
"400 104 CURVE SMOOTH",
"400 102 OFFCURVE",
"401 98 OFFCURVE",
"403 96 CURVE",
"400 52 OFFCURVE",
"381 10 OFFCURVE",
"320 10 CURVE SMOOTH",
"257 10 OFFCURVE",
"237 58 OFFCURVE",
"237 105 CURVE SMOOTH",
"237 281 LINE",
"423 281 LINE"
);
},
{
closed = 1;
nodes = (
"51 186 LINE",
"51 232 OFFCURVE",
"64 281 OFFCURVE",
"158 281 CURVE SMOOTH",
"217 281 LINE",
"217 98 LINE",
"214 54 OFFCURVE",
"197 10 OFFCURVE",
"134 10 CURVE SMOOTH",
"69 10 OFFCURVE",
"51 59 OFFCURVE",
"51 105 CURVE SMOOTH"
);
},
{
closed = 1;
nodes = (
"237 301 LINE",
"237 402 LINE",
"238 446 OFFCURVE",
"260 490 OFFCURVE",
"320 490 CURVE SMOOTH",
"384 490 OFFCURVE",
"403 440 OFFCURVE",
"403 395 CURVE SMOOTH",
"403 301 LINE"
);
}
);
width = 453;
}
);
leftKerningGroup = a;
rightKerningGroup = e;
unicode = 00E6;
},
{
glyphname = b;
layers = (
{
layerId = UUID0;
paths = (
{
closed = 1;
nodes = (
"246 395 LINE",
"246 452 OFFCURVE",
"223 510 OFFCURVE",
"143 510 CURVE SMOOTH",
"103 510 OFFCURVE",
"78 495 OFFCURVE",
"60 463 CURVE",
"60 688 LINE",
"62 691 OFFCURVE",
"63 694 OFFCURVE",
"63 697 CURVE SMOOTH",
"63 704 OFFCURVE",
"57 710 OFFCURVE",
"50 710 CURVE SMOOTH",
"42 710 OFFCURVE",
"37 704 OFFCURVE",
"37 697 CURVE SMOOTH",
"37 694 OFFCURVE",
"38 691 OFFCURVE",
"40 688 CURVE",
"40 11 LINE",
"38 9 OFFCURVE",
"37 6 OFFCURVE",
"37 3 CURVE SMOOTH",
"37 -4 OFFCURVE",
"42 -10 OFFCURVE",
"50 -10 CURVE SMOOTH",
"57 -10 OFFCURVE",
"63 -4 OFFCURVE",
"63 3 CURVE SMOOTH",
"63 6 OFFCURVE",
"62 9 OFFCURVE",
"60 11 CURVE",
"60 32 LINE",
"78 7 OFFCURVE",
"103 -10 OFFCURVE",
"143 -10 CURVE SMOOTH",
"223 -10 OFFCURVE",
"246 48 OFFCURVE",
"246 105 CURVE SMOOTH"
);
},
{
closed = 1;
nodes = (
"60 395 LINE",
"60 440 OFFCURVE",
"87 490 OFFCURVE",
"143 490 CURVE SMOOTH",
"208 490 OFFCURVE",
"226 440 OFFCURVE",
"226 395 CURVE SMOOTH",
"226 105 LINE SMOOTH",
"226 59 OFFCURVE",
"208 10 OFFCURVE",
"143 10 CURVE SMOOTH",
"81 10 OFFCURVE",
"60 61 OFFCURVE",
"60 105 CURVE SMOOTH"
);
}
);
width = 280;
}
);
leftKerningGroup = b;
rightKerningGroup = b;
unicode = 0062;
},
{
glyphname = c;
layers = (
{
layerId = UUID0;
paths = (
{
closed = 1;
nodes = (
"55 395 LINE SMOOTH",
"55 440 OFFCURVE",
"75 490 OFFCURVE",
"138 490 CURVE SMOOTH",
"199 490 OFFCURVE",
"220 447 OFFCURVE",
"222 404 CURVE",
"220 402 OFFCURVE",
"219 399 OFFCURVE",
"219 396 CURVE SMOOTH",
"219 389 OFFCURVE",
"225 384 OFFCURVE",
"232 384 CURVE SMOOTH",
"239 384 OFFCURVE",
"245 389 OFFCURVE",
"245 396 CURVE SMOOTH",
"245 399 OFFCURVE",
"244 403 OFFCURVE",
"242 405 CURVE",
"238 459 OFFCURVE",
"212 510 OFFCURVE",
"138 510 CURVE SMOOTH",
"60 510 OFFCURVE",
"35 452 OFFCURVE",
"35 395 CURVE SMOOTH",
"35 105 LINE SMOOTH",
"35 48 OFFCURVE",
"60 -10 OFFCURVE",
"138 -10 CURVE SMOOTH",
"212 -10 OFFCURVE",
"238 41 OFFCURVE",
"242 95 CURVE",
"244 97 OFFCURVE",
"245 101 OFFCURVE",
"245 104 CURVE SMOOTH",
"245 110 OFFCURVE",
"239 116 OFFCURVE",
"232 116 CURVE SMOOTH",
"225 116 OFFCURVE",
"219 110 OFFCURVE",
"219 104 CURVE SMOOTH",
"219 101 OFFCURVE",
"220 97 OFFCURVE",
"222 95 CURVE",
"220 51 OFFCURVE",
"199 10 OFFCURVE",
"138 10 CURVE SMOOTH",
"75 10 OFFCURVE",
"55 58 OFFCURVE",
"55 105 CURVE SMOOTH"
);
}
);
width = 263;
}
);
leftKerningGroup = c;
rightKerningGroup = c;
unicode = 0063;
},
{
glyphname = eth;
layers = (
{
layerId = UUID0;
paths = (
{
closed = 1;
nodes = (
"241 395 LINE",
"241 413 OFFCURVE",
"238 431 OFFCURVE",
"232 449 CURVE SMOOTH",
"183 594 LINE",
"224 608 LINE",
"226 607 OFFCURVE",
"228 607 OFFCURVE",
"230 607 CURVE SMOOTH",
"237 607 OFFCURVE",
"243 613 OFFCURVE",
"243 620 CURVE SMOOTH",
"243 627 OFFCURVE",
"237 633 OFFCURVE",
"230 633 CURVE SMOOTH",
"226 633 OFFCURVE",
"222 631 OFFCURVE",
"219 627 CURVE",
"177 613 LINE",
"151 691 LINE",
"151 692 OFFCURVE",
"152 694 OFFCURVE",
"152 697 CURVE SMOOTH",
"152 704 OFFCURVE",
"146 710 OFFCURVE",
"139 710 CURVE SMOOTH",
"132 710 OFFCURVE",
"126 704 OFFCURVE",
"126 697 CURVE SMOOTH",
"126 691 OFFCURVE",
"128 688 OFFCURVE",
"132 686 CURVE",
"158 606 LINE",
"116 592 LINE",
"114 592 OFFCURVE",
"112 593 OFFCURVE",
"111 593 CURVE SMOOTH",
"104 593 OFFCURVE",
"98 587 OFFCURVE",
"98 580 CURVE SMOOTH",
"98 573 OFFCURVE",
"104 567 OFFCURVE",
"111 567 CURVE SMOOTH",
"115 567 OFFCURVE",
"119 568 OFFCURVE",
"121 572 CURVE",
"165 587 LINE",
"195 495 LINE",
"180 504 OFFCURVE",
"162 510 OFFCURVE",
"138 510 CURVE SMOOTH",
"60 510 OFFCURVE",
"35 452 OFFCURVE",
"35 395 CURVE SMOOTH",
"35 105 LINE SMOOTH",
"35 48 OFFCURVE",
"60 -10 OFFCURVE",
"138 -10 CURVE SMOOTH",
"216 -10 OFFCURVE",
"241 48 OFFCURVE",
"241 105 CURVE SMOOTH"
);
},
{
closed = 1;
nodes = (
"55 395 LINE",
"55 440 OFFCURVE",
"75 490 OFFCURVE",
"138 490 CURVE SMOOTH",
"203 490 OFFCURVE",
"221 440 OFFCURVE",
"221 395 CURVE SMOOTH",
"221 105 LINE SMOOTH",
"221 58 OFFCURVE",
"203 10 OFFCURVE",
"138 10 CURVE SMOOTH",
"75 10 OFFCURVE",
"55 58 OFFCURVE",
"55 105 CURVE SMOOTH"
);
}
);
width = 276;
}
);
leftKerningGroup = c;
rightKerningGroup = b;
unicode = 00F0;
},
{
glyphname = e;
layers = (
{
layerId = UUID0;
paths = (
{
closed = 1;
nodes = (
"241 395 LINE",
"241 452 OFFCURVE",
"216 510 OFFCURVE",
"138 510 CURVE SMOOTH",
"60 510 OFFCURVE",
"35 452 OFFCURVE",
"35 395 CURVE SMOOTH",
"35 105 LINE SMOOTH",
"35 48 OFFCURVE",
"60 -10 OFFCURVE",
"138 -10 CURVE SMOOTH",
"214 -10 OFFCURVE",
"237 42 OFFCURVE",
"241 96 CURVE",
"243 98 OFFCURVE",
"244 102 OFFCURVE",
"244 104 CURVE SMOOTH",
"244 111 OFFCURVE",
"238 117 OFFCURVE",
"231 117 CURVE SMOOTH",
"224 117 OFFCURVE",
"218 111 OFFCURVE",
"218 104 CURVE SMOOTH",
"218 102 OFFCURVE",
"219 98 OFFCURVE",
"221 96 CURVE",
"219 52 OFFCURVE",
"200 10 OFFCURVE",
"138 10 CURVE SMOOTH",
"75 10 OFFCURVE",
"55 58 OFFCURVE",
"55 105 CURVE SMOOTH",
"55 281 LINE",
"241 281 LINE"
);
},
{
closed = 1;
nodes = (
"55 301 LINE",
"55 395 LINE SMOOTH",
"55 440 OFFCURVE",
"75 490 OFFCURVE",
"138 490 CURVE SMOOTH",
"203 490 OFFCURVE",
"221 440 OFFCURVE",
"221 395 CURVE SMOOTH",
"221 301 LINE"
);
}
);
width = 271;
}
);
leftKerningGroup = c;
rightKerningGroup = e;
unicode = 0065;
},
{
glyphname = f;
layers = (
{
layerId = UUID0;
paths = (
{
closed = 1;
nodes = (
"89 480 LINE",
"167 480 LINE",
"170 478 OFFCURVE",
"173 477 OFFCURVE",
"176 477 CURVE SMOOTH",
"183 477 OFFCURVE",
"189 483 OFFCURVE",
"189 490 CURVE SMOOTH",
"189 498 OFFCURVE",
"183 503 OFFCURVE",
"176 503 CURVE SMOOTH",
"173 503 OFFCURVE",
"170 502 OFFCURVE",
"167 500 CURVE",
"89 500 LINE",
"89 585 LINE",
"90 630 OFFCURVE",
"108 676 OFFCURVE",
"167 680 CURVE",
"170 678 OFFCURVE",
"173 677 OFFCURVE",
"176 677 CURVE SMOOTH",
"183 677 OFFCURVE",
"189 683 OFFCURVE",
"189 690 CURVE SMOOTH",
"189 697 OFFCURVE",
"183 703 OFFCURVE",
"176 703 CURVE SMOOTH",
"173 703 OFFCURVE",
"170 702 OFFCURVE",
"167 700 CURVE",
"93 696 OFFCURVE",
"69 641 OFFCURVE",
"69 585 CURVE SMOOTH",
"69 500 LINE",
"24 500 LINE",
"22 502 OFFCURVE",
"20 503 OFFCURVE",
"16 503 CURVE SMOOTH",
"9 503 OFFCURVE",
"3 498 OFFCURVE",
"3 490 CURVE SMOOTH",
"3 483 OFFCURVE",
"9 477 OFFCURVE",
"16 477 CURVE SMOOTH",
"20 477 OFFCURVE",
"22 478 OFFCURVE",
"24 480 CURVE",
"69 480 LINE",
"69 11 LINE",
"67 9 OFFCURVE",
"66 6 OFFCURVE",
"66 3 CURVE SMOOTH",
"66 -4 OFFCURVE",
"72 -10 OFFCURVE",
"79 -10 CURVE SMOOTH",
"86 -10 OFFCURVE",
"92 -4 OFFCURVE",
"92 3 CURVE SMOOTH",
"92 6 OFFCURVE",
"91 9 OFFCURVE",
"89 11 CURVE"
);
}
);
width = 195;
}
);
unicode = 0066;
},
{
glyphname = g;
layers = (
{
layerId = UUID0;
paths = (
{
closed = 1;
nodes = (
"241 489 LINE",
"243 492 OFFCURVE",
"244 495 OFFCURVE",
"244 498 CURVE SMOOTH",
"244 505 OFFCURVE",
"238 511 OFFCURVE",
"231 511 CURVE SMOOTH",
"224 511 OFFCURVE",
"218 505 OFFCURVE",
"218 498 CURVE SMOOTH",
"218 496 OFFCURVE",
"219 493 OFFCURVE",
"221 489 CURVE",
"221 468 LINE",
"203 493 OFFCURVE",
"179 510 OFFCURVE",
"138 510 CURVE SMOOTH",
"59 510 OFFCURVE",
"35 452 OFFCURVE",
"35 395 CURVE SMOOTH",
"35 105 LINE SMOOTH",
"35 48 OFFCURVE",
"59 -10 OFFCURVE",
"138 -10 CURVE SMOOTH",
"179 -10 OFFCURVE",
"203 7 OFFCURVE",
"221 32 CURVE",
"221 -95 LINE SMOOTH",
"221 -142 OFFCURVE",
"201 -190 OFFCURVE",
"138 -190 CURVE SMOOTH",
"79 -190 OFFCURVE",
"56 -149 OFFCURVE",
"54 -105 CURVE",
"56 -103 OFFCURVE",
"57 -100 OFFCURVE",
"57 -96 CURVE SMOOTH",
"57 -90 OFFCURVE",
"51 -84 OFFCURVE",
"44 -84 CURVE SMOOTH",
"37 -84 OFFCURVE",
"31 -90 OFFCURVE",
"31 -96 CURVE SMOOTH",
"31 -100 OFFCURVE",
"32 -103 OFFCURVE",
"34 -105 CURVE",
"37 -159 OFFCURVE",
"64 -210 OFFCURVE",
"138 -210 CURVE SMOOTH",
"216 -210 OFFCURVE",
"241 -152 OFFCURVE",
"241 -95 CURVE SMOOTH"
);
},
{
closed = 1;
nodes = (
"55 395 LINE",
"55 440 OFFCURVE",
"74 490 OFFCURVE",
"138 490 CURVE SMOOTH",
"194 490 OFFCURVE",
"221 440 OFFCURVE",
"221 395 CURVE SMOOTH",
"221 98 LINE",
"219 54 OFFCURVE",
"201 10 OFFCURVE",
"138 10 CURVE SMOOTH",
"74 10 OFFCURVE",
"55 59 OFFCURVE",
"55 105 CURVE SMOOTH"
);
}
);
width = 280;
}
);
leftKerningGroup = c;
unicode = 0067;
},
{
glyphname = h;
layers = (
{
layerId = UUID0;
paths = (
{
closed = 1;
nodes = (
"246 395 LINE SMOOTH",
"246 452 OFFCURVE",
"223 510 OFFCURVE",
"143 510 CURVE SMOOTH",
"107 510 OFFCURVE",
"78 495 OFFCURVE",
"60 463 CURVE",
"60 688 LINE",
"62 691 OFFCURVE",
"63 694 OFFCURVE",
"63 697 CURVE SMOOTH",
"63 704 OFFCURVE",
"57 710 OFFCURVE",
"50 710 CURVE SMOOTH",
"42 710 OFFCURVE",
"37 704 OFFCURVE",
"37 697 CURVE SMOOTH",
"37 694 OFFCURVE",
"38 691 OFFCURVE",
"40 688 CURVE",
"40 11 LINE",
"38 9 OFFCURVE",
"37 6 OFFCURVE",
"37 3 CURVE SMOOTH",
"37 -4 OFFCURVE",
"42 -10 OFFCURVE",
"50 -10 CURVE SMOOTH",
"57 -10 OFFCURVE",
"63 -4 OFFCURVE",
"63 3 CURVE SMOOTH",
"63 6 OFFCURVE",
"62 9 OFFCURVE",
"60 11 CURVE",
"60 395 LINE SMOOTH",
"60 440 OFFCURVE",
"87 490 OFFCURVE",
"143 490 CURVE SMOOTH",
"208 490 OFFCURVE",
"226 440 OFFCURVE",
"226 395 CURVE SMOOTH",
"226 11 LINE",
"224 9 OFFCURVE",
"223 6 OFFCURVE",
"223 3 CURVE SMOOTH",
"223 -4 OFFCURVE",
"229 -10 OFFCURVE",
"236 -10 CURVE SMOOTH",
"243 -10 OFFCURVE",
"249 -4 OFFCURVE",
"249 3 CURVE SMOOTH",
"249 6 OFFCURVE",
"248 9 OFFCURVE",
"246 11 CURVE"
);
}
);
width = 284;
}
);
leftKerningGroup = b;
rightKerningGroup = h;
unicode = 0068;
},
{
glyphname = i;
layers = (
{
layerId = UUID0;
paths = (
{
closed = 1;
nodes = (
"63 488 LINE",
"65 491 OFFCURVE",
"66 494 OFFCURVE",
"66 497 CURVE SMOOTH",
"66 504 OFFCURVE",
"61 510 OFFCURVE",
"53 510 CURVE SMOOTH",
"46 510 OFFCURVE",
"40 504 OFFCURVE",
"40 497 CURVE SMOOTH",
"40 494 OFFCURVE",
"41 491 OFFCURVE",
"43 488 CURVE",
"43 11 LINE",
"41 9 OFFCURVE",
"40 6 OFFCURVE",
"40 3 CURVE SMOOTH",
"40 -4 OFFCURVE",
"46 -10 OFFCURVE",
"53 -10 CURVE SMOOTH",
"61 -10 OFFCURVE",
"66 -4 OFFCURVE",
"66 3 CURVE SMOOTH",
"66 6 OFFCURVE",
"65 9 OFFCURVE",
"63 11 CURVE"
);
},
{
closed = 1;
nodes = (
"63 649 LINE",
"65 652 OFFCURVE",
"66 655 OFFCURVE",
"66 658 CURVE SMOOTH",
"66 666 OFFCURVE",
"61 671 OFFCURVE",
"53 671 CURVE SMOOTH",
"46 671 OFFCURVE",
"40 666 OFFCURVE",
"40 658 CURVE SMOOTH",
"40 655 OFFCURVE",
"41 652 OFFCURVE",
"43 649 CURVE",
"43 620 LINE",
"41 618 OFFCURVE",
"40 616 OFFCURVE",
"40 612 CURVE SMOOTH",
"40 605 OFFCURVE",
"46 599 OFFCURVE",
"53 599 CURVE SMOOTH",
"61 599 OFFCURVE",
"66 605 OFFCURVE",
"66 612 CURVE SMOOTH",
"66 616 OFFCURVE",
"65 618 OFFCURVE",
"63 620 CURVE"
);
}
);
width = 105;
}
);
leftKerningGroup = i;
rightKerningGroup = i;
unicode = 0069;
},
{
glyphname = dotlessi;
layers = (
{
layerId = UUID0;
paths = (
{
closed = 1;
nodes = (
"63 488 LINE",
"65 491 OFFCURVE",
"66 494 OFFCURVE",
"66 497 CURVE SMOOTH",
"66 504 OFFCURVE",
"61 510 OFFCURVE",
"53 510 CURVE SMOOTH",
"46 510 OFFCURVE",
"40 504 OFFCURVE",
"40 497 CURVE SMOOTH",
"40 494 OFFCURVE",
"41 491 OFFCURVE",
"43 488 CURVE",
"43 11 LINE",
"41 9 OFFCURVE",
"40 6 OFFCURVE",
"40 3 CURVE SMOOTH",
"40 -4 OFFCURVE",
"46 -10 OFFCURVE",
"53 -10 CURVE SMOOTH",
"61 -10 OFFCURVE",
"66 -4 OFFCURVE",
"66 3 CURVE SMOOTH",
"66 6 OFFCURVE",
"65 9 OFFCURVE",
"63 11 CURVE"
);
}
);
width = 105;
}
);
leftKerningGroup = i;
rightKerningGroup = i;
unicode = 0131;
},
{
glyphname = j;
layers = (
{
layerId = UUID0;
paths = (
{
closed = 1;
nodes = (
"62 488 LINE",
"64 491 OFFCURVE",
"65 494 OFFCURVE",
"65 497 CURVE SMOOTH",
"65 504 OFFCURVE",
"59 510 OFFCURVE",
"52 510 CURVE SMOOTH",
"44 510 OFFCURVE",
"39 504 OFFCURVE",
"39 497 CURVE SMOOTH",
"39 494 OFFCURVE",
"40 491 OFFCURVE",
"42 488 CURVE",
"42 -92 LINE",
"41 -137 OFFCURVE",
"23 -185 OFFCURVE",
"-36 -187 CURVE",
"-39 -185 OFFCURVE",
"-42 -184 OFFCURVE",
"-45 -184 CURVE SMOOTH",
"-52 -184 OFFCURVE",
"-58 -189 OFFCURVE",
"-58 -197 CURVE SMOOTH",
"-58 -204 OFFCURVE",
"-52 -210 OFFCURVE",
"-45 -210 CURVE SMOOTH",
"-42 -210 OFFCURVE",
"-39 -209 OFFCURVE",
"-36 -207 CURVE",
"37 -205 OFFCURVE",
"62 -146 OFFCURVE",
"62 -92 CURVE SMOOTH"
);
},
{
closed = 1;
nodes = (
"62 649 LINE",
"64 652 OFFCURVE",
"65 655 OFFCURVE",
"65 658 CURVE SMOOTH",
"65 666 OFFCURVE",
"60 671 OFFCURVE",
"52 671 CURVE SMOOTH",
"45 671 OFFCURVE",
"39 666 OFFCURVE",
"39 658 CURVE SMOOTH",
"39 655 OFFCURVE",
"40 652 OFFCURVE",
"42 649 CURVE",
"42 620 LINE",
"40 618 OFFCURVE",
"39 616 OFFCURVE",
"39 612 CURVE SMOOTH",
"39 605 OFFCURVE",
"45 599 OFFCURVE",
"52 599 CURVE SMOOTH",
"60 599 OFFCURVE",
"65 605 OFFCURVE",
"65 612 CURVE SMOOTH",
"65 616 OFFCURVE",
"64 618 OFFCURVE",
"62 620 CURVE"
);
}
);
width = 104;
}
);
leftKerningGroup = i;
rightKerningGroup = i;
unicode = 006A;
},
{
glyphname = k;
layers = (
{
layerId = UUID0;
paths = (
{
closed = 1;
nodes = (
"118 287 LINE",
"237 484 LINE",
"243 486 OFFCURVE",
"246 491 OFFCURVE",
"246 497 CURVE SMOOTH",
"246 504 OFFCURVE",
"240 510 OFFCURVE",
"233 510 CURVE SMOOTH",
"226 510 OFFCURVE",
"220 504 OFFCURVE",
"220 497 CURVE SMOOTH",
"220 495 LINE",
"60 230 LINE",
"60 688 LINE",
"62 691 OFFCURVE",
"63 694 OFFCURVE",
"63 697 CURVE SMOOTH",
"63 704 OFFCURVE",
"57 710 OFFCURVE",
"50 710 CURVE SMOOTH",
"42 710 OFFCURVE",
"37 704 OFFCURVE",
"37 697 CURVE SMOOTH",
"37 694 OFFCURVE",
"38 691 OFFCURVE",
"40 688 CURVE",
"40 11 LINE",
"38 9 OFFCURVE",
"37 6 OFFCURVE",
"37 3 CURVE SMOOTH",
"37 -4 OFFCURVE",
"42 -10 OFFCURVE",
"50 -10 CURVE SMOOTH",
"57 -10 OFFCURVE",
"63 -4 OFFCURVE",
"63 3 CURVE SMOOTH",
"63 6 OFFCURVE",
"62 9 OFFCURVE",
"60 11 CURVE",
"60 191 LINE",
"105 266 LINE",
"223 7 LINE",
"223 3 LINE SMOOTH",
"223 -4 OFFCURVE",
"229 -10 OFFCURVE",
"236 -10 CURVE SMOOTH",
"243 -10 OFFCURVE",
"249 -4 OFFCURVE",
"249 3 CURVE SMOOTH",
"249 8 OFFCURVE",
"247 12 OFFCURVE",
"242 14 CURVE"
);
}
);
width = 250;
}
);
leftKerningGroup = b;
unicode = 006B;
},
{
glyphname = l;
layers = (
{
layerId = UUID0;
paths = (
{
closed = 1;
nodes = (
"63 688 LINE",
"65 691 OFFCURVE",
"66 694 OFFCURVE",
"66 697 CURVE SMOOTH",
"66 704 OFFCURVE",
"61 710 OFFCURVE",
"53 710 CURVE SMOOTH",
"46 710 OFFCURVE",
"40 704 OFFCURVE",
"40 697 CURVE SMOOTH",
"40 694 OFFCURVE",
"41 691 OFFCURVE",
"43 688 CURVE",
"43 11 LINE",
"41 9 OFFCURVE",
"40 6 OFFCURVE",
"40 3 CURVE SMOOTH",
"40 -4 OFFCURVE",
"46 -10 OFFCURVE",
"53 -10 CURVE SMOOTH",
"61 -10 OFFCURVE",
"66 -4 OFFCURVE",
"66 3 CURVE SMOOTH",
"66 6 OFFCURVE",
"65 9 OFFCURVE",
"63 11 CURVE"
);
}
);
width = 105;
}
);
unicode = 006C;
},
{
glyphname = m;
layers = (
{
layerId = UUID0;
paths = (
{
closed = 1;
nodes = (
"388 409 LINE SMOOTH",
"388 458 OFFCURVE",
"367 510 OFFCURVE",
"297 510 CURVE SMOOTH",
"263 510 OFFCURVE",
"230 494 OFFCURVE",
"215 458 CURVE",
"204 488 OFFCURVE",
"180 510 OFFCURVE",
"133 510 CURVE SMOOTH",
"98 510 OFFCURVE",
"76 496 OFFCURVE",
"60 471 CURVE",
"60 488 LINE",
"62 491 OFFCURVE",
"63 494 OFFCURVE",
"63 497 CURVE SMOOTH",
"63 504 OFFCURVE",
"57 510 OFFCURVE",
"50 510 CURVE SMOOTH",
"42 510 OFFCURVE",
"37 504 OFFCURVE",
"37 497 CURVE SMOOTH",
"37 494 OFFCURVE",
"38 491 OFFCURVE",
"40 488 CURVE",
"40 11 LINE",
"38 9 OFFCURVE",
"37 6 OFFCURVE",
"37 3 CURVE SMOOTH",
"37 -4 OFFCURVE",
"42 -10 OFFCURVE",
"50 -10 CURVE SMOOTH",
"57 -10 OFFCURVE",
"63 -4 OFFCURVE",
"63 3 CURVE SMOOTH",
"63 6 OFFCURVE",
"62 9 OFFCURVE",
"60 11 CURVE",
"60 414 LINE SMOOTH",
"60 452 OFFCURVE",
"78 490 OFFCURVE",
"132 490 CURVE SMOOTH",
"188 490 OFFCURVE",
"204 447 OFFCURVE",
"204 408 CURVE SMOOTH",
"204 11 LINE",
"202 9 OFFCURVE",
"201 6 OFFCURVE",
"201 3 CURVE SMOOTH",
"201 -4 OFFCURVE",
"207 -10 OFFCURVE",
"214 -10 CURVE SMOOTH",
"221 -10 OFFCURVE",
"227 -4 OFFCURVE",
"227 3 CURVE SMOOTH",
"227 6 OFFCURVE",
"226 9 OFFCURVE",
"224 11 CURVE",
"224 414 LINE",
"226 452 OFFCURVE",
"243 490 OFFCURVE",
"296 490 CURVE SMOOTH",
"352 490 OFFCURVE",
"368 447 OFFCURVE",
"368 408 CURVE SMOOTH",
"368 11 LINE",
"366 9 OFFCURVE",
"365 6 OFFCURVE",
"365 3 CURVE SMOOTH",
"365 -4 OFFCURVE",
"371 -10 OFFCURVE",
"378 -10 CURVE SMOOTH",
"385 -10 OFFCURVE",
"391 -4 OFFCURVE",
"391 3 CURVE SMOOTH",
"391 6 OFFCURVE",
"390 9 OFFCURVE",
"388 11 CURVE"
);
}
);
width = 426;
}
);
leftKerningGroup = m;
rightKerningGroup = h;
unicode = 006D;
},
{
glyphname = n;
layers = (
{
layerId = UUID0;
paths = (
{
closed = 1;
nodes = (
"246 395 LINE SMOOTH",
"246 452 OFFCURVE",
"223 510 OFFCURVE",
"143 510 CURVE SMOOTH",
"103 510 OFFCURVE",
"78 495 OFFCURVE",
"60 463 CURVE",
"60 488 LINE",
"62 491 OFFCURVE",
"63 494 OFFCURVE",
"63 497 CURVE SMOOTH",
"63 504 OFFCURVE",
"57 510 OFFCURVE",
"50 510 CURVE SMOOTH",
"42 510 OFFCURVE",
"37 504 OFFCURVE",
"37 497 CURVE SMOOTH",
"37 494 OFFCURVE",
"38 491 OFFCURVE",
"40 488 CURVE",
"40 11 LINE",
"38 9 OFFCURVE",
"37 6 OFFCURVE",
"37 3 CURVE SMOOTH",
"37 -4 OFFCURVE",
"42 -10 OFFCURVE",
"50 -10 CURVE SMOOTH",
"57 -10 OFFCURVE",
"63 -4 OFFCURVE",
"63 3 CURVE SMOOTH",
"63 6 OFFCURVE",
"62 9 OFFCURVE",
"60 11 CURVE",
"60 395 LINE SMOOTH",
"60 440 OFFCURVE",
"87 490 OFFCURVE",
"143 490 CURVE SMOOTH",
"208 490 OFFCURVE",
"226 440 OFFCURVE",
"226 395 CURVE SMOOTH",
"226 11 LINE",
"224 9 OFFCURVE",
"223 6 OFFCURVE",
"223 3 CURVE SMOOTH",
"223 -4 OFFCURVE",
"229 -10 OFFCURVE",
"236 -10 CURVE SMOOTH",
"243 -10 OFFCURVE",
"249 -4 OFFCURVE",
"249 3 CURVE SMOOTH",
"249 6 OFFCURVE",
"248 9 OFFCURVE",
"246 11 CURVE"
);
}
);
width = 284;
}
);
leftKerningGroup = m;
rightKerningGroup = h;
unicode = 006E;
},
{
glyphname = o;
layers = (
{
layerId = UUID0;
paths = (
{
closed = 1;
nodes = (
"55 395 LINE",
"55 440 OFFCURVE",
"75 490 OFFCURVE",
"138 490 CURVE SMOOTH",
"203 490 OFFCURVE",
"221 440 OFFCURVE",
"221 395 CURVE SMOOTH",
"221 105 LINE SMOOTH",
"221 58 OFFCURVE",
"203 10 OFFCURVE",
"138 10 CURVE SMOOTH",
"75 10 OFFCURVE",
"55 58 OFFCURVE",
"55 105 CURVE SMOOTH"
);
},
{
closed = 1;
nodes = (
"241 395 LINE",
"241 452 OFFCURVE",
"216 510 OFFCURVE",
"138 510 CURVE SMOOTH",
"60 510 OFFCURVE",
"35 452 OFFCURVE",
"35 395 CURVE SMOOTH",
"35 105 LINE SMOOTH",
"35 48 OFFCURVE",
"60 -10 OFFCURVE",
"138 -10 CURVE SMOOTH",
"216 -10 OFFCURVE",
"241 48 OFFCURVE",
"241 105 CURVE SMOOTH"
);
}
);
width = 276;
}
);
leftKerningGroup = c;
rightKerningGroup = b;
unicode = 006F;
},
{
glyphname = oslash;
layers = (
{
layerId = UUID0;
paths = (
{
closed = 1;
nodes = (
"249 395 LINE",
"249 401 OFFCURVE",
"248 407 OFFCURVE",
"248 414 CURVE",
"302 510 LINE",
"307 512 OFFCURVE",
"311 517 OFFCURVE",
"311 523 CURVE SMOOTH",
"311 530 OFFCURVE",
"305 536 OFFCURVE",
"298 536 CURVE SMOOTH",
"291 536 OFFCURVE",
"285 530 OFFCURVE",
"285 523 CURVE SMOOTH",
"285 519 LINE",
"242 442 LINE",
"238 454 OFFCURVE",
"233 464 OFFCURVE",
"226 474 CURVE SMOOTH",
"210 495 OFFCURVE",
"185 510 OFFCURVE",
"146 510 CURVE SMOOTH",
"67 510 OFFCURVE",
"42 452 OFFCURVE",
"42 395 CURVE SMOOTH",
"42 105 LINE SMOOTH",
"42 100 OFFCURVE",
"42 94 OFFCURVE",
"43 88 CURVE",
"-12 -10 LINE",
"-18 -12 OFFCURVE",
"-21 -17 OFFCURVE",
"-21 -23 CURVE SMOOTH",
"-21 -30 OFFCURVE",
"-15 -36 OFFCURVE",
"-8 -36 CURVE SMOOTH",
"0 -36 OFFCURVE",
"5 -30 OFFCURVE",
"5 -23 CURVE SMOOTH",
"5 -21 OFFCURVE",
"4 -20 OFFCURVE",
"4 -19 CURVE",
"48 60 LINE",
"52 47 OFFCURVE",
"57 36 OFFCURVE",
"64 26 CURVE SMOOTH",
"81 5 OFFCURVE",
"106 -10 OFFCURVE",
"146 -10 CURVE SMOOTH",
"223 -10 OFFCURVE",
"249 48 OFFCURVE",
"249 105 CURVE SMOOTH"
);
},
{
closed = 1;
nodes = (
"65 76 OFFCURVE",
"64 81 OFFCURVE",
"63 86 CURVE",
"229 379 LINE",
"229 105 LINE SMOOTH",
"229 58 OFFCURVE",
"210 10 OFFCURVE",
"146 10 CURVE SMOOTH",
"99 10 OFFCURVE",
"75 37 OFFCURVE",
"66 70 CURVE SMOOTH"
);
},
{
closed = 1;
nodes = (
"226 425 OFFCURVE",
"227 420 OFFCURVE",
"227 416 CURVE",
"63 123 LINE",
"63 395 LINE SMOOTH",
"63 440 OFFCURVE",
"83 490 OFFCURVE",
"146 490 CURVE SMOOTH",
"193 490 OFFCURVE",
"217 462 OFFCURVE",
"225 429 CURVE SMOOTH"
);
}
);
width = 291;
}
);
leftKerningGroup = c;
rightKerningGroup = b;
unicode = 00F8;
},
{
glyphname = thorn;
layers = (
{
layerId = UUID0;
paths = (
{
closed = 1;
nodes = (
"60 32 LINE",
"78 7 OFFCURVE",
"103 -10 OFFCURVE",
"143 -10 CURVE SMOOTH",
"223 -10 OFFCURVE",
"246 48 OFFCURVE",
"246 105 CURVE SMOOTH",
"246 395 LINE SMOOTH",
"246 452 OFFCURVE",
"223 510 OFFCURVE",
"143 510 CURVE SMOOTH",
"103 510 OFFCURVE",
"78 493 OFFCURVE",
"60 468 CURVE",
"60 688 LINE",
"62 691 OFFCURVE",
"63 694 OFFCURVE",
"63 697 CURVE SMOOTH",
"63 704 OFFCURVE",
"57 710 OFFCURVE",
"50 710 CURVE SMOOTH",
"42 710 OFFCURVE",
"37 704 OFFCURVE",
"37 697 CURVE SMOOTH",
"37 694 OFFCURVE",
"38 691 OFFCURVE",
"40 688 CURVE",
"40 -188 LINE",
"38 -191 OFFCURVE",
"37 -194 OFFCURVE",
"37 -197 CURVE SMOOTH",
"37 -204 OFFCURVE",
"42 -210 OFFCURVE",
"50 -210 CURVE SMOOTH",
"57 -210 OFFCURVE",
"63 -204 OFFCURVE",
"63 -197 CURVE SMOOTH",
"63 -194 OFFCURVE",
"62 -191 OFFCURVE",
"60 -188 CURVE"
);
},
{
closed = 1;
nodes = (
"60 395 LINE",
"60 440 OFFCURVE",
"87 490 OFFCURVE",
"143 490 CURVE SMOOTH",
"208 490 OFFCURVE",
"226 440 OFFCURVE",
"226 395 CURVE SMOOTH",
"226 105 LINE SMOOTH",
"226 59 OFFCURVE",
"208 10 OFFCURVE",
"143 10 CURVE SMOOTH",
"81 10 OFFCURVE",
"60 61 OFFCURVE",
"60 105 CURVE SMOOTH"
);
}
);
width = 280;
}
);
leftKerningGroup = b;
rightKerningGroup = b;
unicode = 00FE;
},
{
glyphname = r;
layers = (
{
layerId = UUID0;
paths = (
{
closed = 1;
nodes = (
"60 385 LINE SMOOTH",
"60 431 OFFCURVE",
"87 480 OFFCURVE",
"143 480 CURVE SMOOTH",
"160 480 LINE",
"163 478 OFFCURVE",
"166 477 OFFCURVE",
"169 477 CURVE SMOOTH",
"176 477 OFFCURVE",
"182 483 OFFCURVE",
"182 490 CURVE SMOOTH",
"182 498 OFFCURVE",
"176 503 OFFCURVE",
"169 503 CURVE SMOOTH",
"166 503 OFFCURVE",
"163 502 OFFCURVE",
"160 500 CURVE",
"143 500 LINE SMOOTH",
"103 500 OFFCURVE",
"78 484 OFFCURVE",
"60 453 CURVE",
"60 488 LINE",
"62 491 OFFCURVE",
"63 494 OFFCURVE",
"63 497 CURVE SMOOTH",
"63 504 OFFCURVE",
"57 510 OFFCURVE",
"50 510 CURVE SMOOTH",
"42 510 OFFCURVE",
"37 504 OFFCURVE",
"37 497 CURVE SMOOTH",
"37 494 OFFCURVE",
"38 491 OFFCURVE",
"40 488 CURVE",
"40 11 LINE",
"38 9 OFFCURVE",
"37 6 OFFCURVE",
"37 3 CURVE SMOOTH",
"37 -4 OFFCURVE",
"42 -10 OFFCURVE",
"50 -10 CURVE SMOOTH",
"57 -10 OFFCURVE",
"63 -4 OFFCURVE",
"63 3 CURVE SMOOTH",
"63 6 OFFCURVE",
"62 9 OFFCURVE",
"60 11 CURVE"
);
}
);
width = 188;
}
);
leftKerningGroup = m;
unicode = 0072;
},
{
glyphname = s;
layers = (
{
layerId = UUID0;
paths = (
{
closed = 1;
nodes = (
"83 314 LINE",
"61 333 OFFCURVE",
"54 354 OFFCURVE",
"53 393 CURVE",
"53 442 OFFCURVE",
"75 490 OFFCURVE",
"138 490 CURVE SMOOTH",
"194 490 OFFCURVE",
"217 447 OFFCURVE",
"219 404 CURVE",
"217 402 OFFCURVE",
"216 399 OFFCURVE",
"216 397 CURVE SMOOTH",
"216 390 OFFCURVE",
"222 384 OFFCURVE",
"228 384 CURVE SMOOTH",
"235 384 OFFCURVE",
"241 390 OFFCURVE",
"241 397 CURVE SMOOTH",
"241 400 OFFCURVE",
"240 403 OFFCURVE",
"238 405 CURVE",
"235 459 OFFCURVE",
"208 510 OFFCURVE",
"138 510 CURVE SMOOTH",
"60 510 OFFCURVE",
"33 454 OFFCURVE",
"33 393 CURVE SMOOTH",
"33 355 OFFCURVE",
"39 328 OFFCURVE",
"70 300 CURVE",
"183 198 LINE",
"207 175 OFFCURVE",
"219 146 OFFCURVE",
"219 113 CURVE SMOOTH",
"219 62 OFFCURVE",
"206 9 OFFCURVE",
"130 9 CURVE SMOOTH",
"65 9 OFFCURVE",
"42 57 OFFCURVE",
"40 104 CURVE",
"42 106 OFFCURVE",
"42 108 OFFCURVE",
"42 110 CURVE SMOOTH",
"42 117 OFFCURVE",
"36 123 OFFCURVE",
"29 123 CURVE SMOOTH",
"21 123 OFFCURVE",
"16 117 OFFCURVE",
"16 110 CURVE SMOOTH",
"16 106 OFFCURVE",
"17 103 OFFCURVE",
"19 101 CURVE",
"21 44 OFFCURVE",
"50 -10 OFFCURVE",
"130 -10 CURVE SMOOTH",
"214 -10 OFFCURVE",
"239 44 OFFCURVE",
"239 113 CURVE SMOOTH",
"239 146 OFFCURVE",
"231 181 OFFCURVE",
"197 212 CURVE SMOOTH"
);
}
);
width = 264;
}
);
unicode = 0073;
},
{
glyphname = germandbls;
layers = (
{
layerId = UUID0;
paths = (
{
closed = 1;
nodes = (
"248 386 LINE SMOOTH",
"248 432 OFFCURVE",
"233 471 OFFCURVE",
"190 490 CURVE",
"234 507 OFFCURVE",
"248 553 OFFCURVE",
"248 596 CURVE SMOOTH",
"248 653 OFFCURVE",
"221 710 OFFCURVE",
"144 710 CURVE SMOOTH",
"64 710 OFFCURVE",
"40 653 OFFCURVE",
"40 596 CURVE SMOOTH",
"40 11 LINE",
"38 9 OFFCURVE",
"37 6 OFFCURVE",
"37 3 CURVE SMOOTH",
"37 -4 OFFCURVE",
"42 -10 OFFCURVE",
"50 -10 CURVE SMOOTH",
"57 -10 OFFCURVE",
"63 -4 OFFCURVE",
"63 3 CURVE SMOOTH",
"63 6 OFFCURVE",
"62 9 OFFCURVE",
"60 11 CURVE",
"60 596 LINE SMOOTH",
"60 642 OFFCURVE",
"80 690 OFFCURVE",
"144 690 CURVE SMOOTH",
"208 690 OFFCURVE",
"228 642 OFFCURVE",
"228 596 CURVE SMOOTH",
"228 549 OFFCURVE",
"214 500 OFFCURVE",
"150 500 CURVE SMOOTH",
"123 500 LINE",
"121 502 OFFCURVE",
"119 503 OFFCURVE",
"115 503 CURVE SMOOTH",
"108 503 OFFCURVE",
"102 498 OFFCURVE",
"102 490 CURVE SMOOTH",
"102 483 OFFCURVE",
"108 477 OFFCURVE",
"115 477 CURVE SMOOTH",
"119 477 OFFCURVE",
"121 478 OFFCURVE",
"123 480 CURVE",
"141 480 LINE SMOOTH",
"208 480 OFFCURVE",
"228 433 OFFCURVE",
"228 386 CURVE SMOOTH",
"228 109 LINE SMOOTH",
"228 54 OFFCURVE",
"200 20 OFFCURVE",
"143 20 CURVE SMOOTH",
"123 20 LINE",
"121 22 OFFCURVE",
"119 23 OFFCURVE",
"115 23 CURVE SMOOTH",
"108 23 OFFCURVE",
"102 17 OFFCURVE",
"102 10 CURVE SMOOTH",
"102 2 OFFCURVE",
"108 -3 OFFCURVE",
"115 -3 CURVE SMOOTH",
"119 -3 OFFCURVE",
"121 -2 OFFCURVE",
"123 0 CURVE",
"143 0 LINE SMOOTH",
"212 0 OFFCURVE",
"248 40 OFFCURVE",
"248 108 CURVE SMOOTH"
);
}
);
width = 282;
}
);
unicode = 00DF;
},
{
glyphname = t;
layers = (
{
layerId = UUID0;
paths = (
{
closed = 1;
nodes = (
"91 480 LINE",
"169 480 LINE",
"172 478 OFFCURVE",
"175 477 OFFCURVE",
"178 477 CURVE SMOOTH",
"186 477 OFFCURVE",
"191 483 OFFCURVE",
"191 490 CURVE SMOOTH",
"191 498 OFFCURVE",
"186 503 OFFCURVE",
"178 503 CURVE SMOOTH",
"175 503 OFFCURVE",
"172 502 OFFCURVE",
"169 500 CURVE",
"91 500 LINE",
"91 649 LINE",
"93 653 OFFCURVE",
"94 656 OFFCURVE",
"94 658 CURVE SMOOTH",
"94 666 OFFCURVE",
"88 671 OFFCURVE",
"81 671 CURVE SMOOTH",
"74 671 OFFCURVE",
"68 666 OFFCURVE",
"68 658 CURVE SMOOTH",
"68 655 OFFCURVE",
"69 652 OFFCURVE",
"71 649 CURVE",
"71 500 LINE",
"26 500 LINE",
"24 502 OFFCURVE",
"21 503 OFFCURVE",
"18 503 CURVE SMOOTH",
"11 503 OFFCURVE",
"5 498 OFFCURVE",
"5 490 CURVE SMOOTH",
"5 483 OFFCURVE",
"11 477 OFFCURVE",
"18 477 CURVE SMOOTH",
"21 477 OFFCURVE",
"24 478 OFFCURVE",
"26 480 CURVE",
"71 480 LINE",
"71 108 LINE SMOOTH",
"71 52 OFFCURVE",
"95 -4 OFFCURVE",
"169 -7 CURVE",
"172 -9 OFFCURVE",
"175 -10 OFFCURVE",
"178 -10 CURVE SMOOTH",
"186 -10 OFFCURVE",
"191 -4 OFFCURVE",
"191 3 CURVE SMOOTH",
"191 10 OFFCURVE",
"186 16 OFFCURVE",
"178 16 CURVE SMOOTH",
"175 16 OFFCURVE",
"172 15 OFFCURVE",
"169 13 CURVE",
"110 15 OFFCURVE",
"91 61 OFFCURVE",
"91 108 CURVE SMOOTH"
);
}
);
width = 191;
}
);
unicode = 0074;
},
{
glyphname = u;
layers = (
{
layerId = UUID0;
paths = (
{
closed = 1;
nodes = (
"244 488 LINE",
"246 491 OFFCURVE",
"247 494 OFFCURVE",
"247 497 CURVE SMOOTH",
"247 504 OFFCURVE",
"241 510 OFFCURVE",
"234 510 CURVE SMOOTH",
"227 510 OFFCURVE",
"221 504 OFFCURVE",
"221 497 CURVE SMOOTH",
"221 494 OFFCURVE",
"222 491 OFFCURVE",
"224 488 CURVE",
"224 100 LINE SMOOTH",
"224 54 OFFCURVE",
"200 10 OFFCURVE",
"141 10 CURVE SMOOTH",
"77 10 OFFCURVE",
"58 59 OFFCURVE",
"58 105 CURVE SMOOTH",
"58 488 LINE",
"60 491 OFFCURVE",
"61 494 OFFCURVE",
"61 497 CURVE SMOOTH",
"61 504 OFFCURVE",
"55 510 OFFCURVE",
"48 510 CURVE SMOOTH",
"41 510 OFFCURVE",
"35 504 OFFCURVE",
"35 497 CURVE SMOOTH",
"35 494 OFFCURVE",
"36 491 OFFCURVE",
"38 488 CURVE",
"38 105 LINE SMOOTH",
"38 48 OFFCURVE",
"62 -10 OFFCURVE",
"141 -10 CURVE SMOOTH",
"182 -10 OFFCURVE",
"206 5 OFFCURVE",
"224 37 CURVE",
"224 11 LINE",
"222 9 OFFCURVE",
"221 6 OFFCURVE",
"221 3 CURVE SMOOTH",
"221 -4 OFFCURVE",
"227 -10 OFFCURVE",
"234 -10 CURVE SMOOTH",
"241 -10 OFFCURVE",
"247 -4 OFFCURVE",
"247 3 CURVE SMOOTH",
"247 6 OFFCURVE",
"246 9 OFFCURVE",
"244 11 CURVE"
);
}
);
width = 284;
}
);
leftKerningGroup = u;
rightKerningGroup = q;
unicode = 0075;
},
{
glyphname = v;
layers = (
{
layerId = UUID0;
paths = (
{
closed = 1;
nodes = (
"240 487 LINE",
"244 489 OFFCURVE",
"245 493 OFFCURVE",
"245 497 CURVE SMOOTH",
"245 504 OFFCURVE",
"239 510 OFFCURVE",
"232 510 CURVE SMOOTH",
"225 510 OFFCURVE",
"219 504 OFFCURVE",
"219 497 CURVE SMOOTH",
"219 494 LINE SMOOTH",
"219 492 OFFCURVE",
"220 491 OFFCURVE",
"220 490 CURVE",
"126 52 LINE",
"31 490 LINE",
"32 493 OFFCURVE",
"33 495 OFFCURVE",
"33 497 CURVE SMOOTH",
"33 504 OFFCURVE",
"27 510 OFFCURVE",
"20 510 CURVE SMOOTH",
"13 510 OFFCURVE",
"7 504 OFFCURVE",
"7 497 CURVE SMOOTH",
"7 493 OFFCURVE",
"8 489 OFFCURVE",
"11 487 CURVE",
"114 9 LINE",
"113 7 OFFCURVE",
"113 5 OFFCURVE",
"113 3 CURVE SMOOTH",
"113 -4 OFFCURVE",
"119 -10 OFFCURVE",
"126 -10 CURVE SMOOTH",
"133 -10 OFFCURVE",
"139 -4 OFFCURVE",
"139 3 CURVE SMOOTH",
"139 4 OFFCURVE",
"139 6 OFFCURVE",
"137 9 CURVE"
);
}
);
width = 252;
}
);
leftKerningGroup = v;
rightKerningGroup = v;
unicode = 0076;
},
{
glyphname = w;
layers = (
{
layerId = UUID0;
paths = (
{
closed = 1;
nodes = (
"452 487 LINE",
"456 489 OFFCURVE",
"457 493 OFFCURVE",
"457 497 CURVE SMOOTH",
"457 504 OFFCURVE",
"451 510 OFFCURVE",
"444 510 CURVE SMOOTH",
"437 510 OFFCURVE",
"431 504 OFFCURVE",
"431 497 CURVE SMOOTH",
"431 494 LINE SMOOTH",
"431 492 OFFCURVE",
"432 491 OFFCURVE",
"432 490 CURVE",
"338 52 LINE",
"243 490 LINE",
"245 493 OFFCURVE",
"245 495 OFFCURVE",
"245 497 CURVE SMOOTH",
"245 504 OFFCURVE",
"239 510 OFFCURVE",
"232 510 CURVE SMOOTH",
"225 510 OFFCURVE",
"219 504 OFFCURVE",
"219 497 CURVE SMOOTH",
"219 494 LINE SMOOTH",
"219 492 OFFCURVE",
"220 491 OFFCURVE",
"220 490 CURVE",
"126 52 LINE",
"31 490 LINE",
"32 493 OFFCURVE",
"33 495 OFFCURVE",
"33 497 CURVE SMOOTH",
"33 504 OFFCURVE",
"27 510 OFFCURVE",
"20 510 CURVE SMOOTH",
"13 510 OFFCURVE",
"7 504 OFFCURVE",
"7 497 CURVE SMOOTH",
"7 493 OFFCURVE",
"8 489 OFFCURVE",
"11 487 CURVE",
"114 9 LINE",
"113 7 OFFCURVE",
"113 5 OFFCURVE",
"113 3 CURVE SMOOTH",
"113 -4 OFFCURVE",
"119 -10 OFFCURVE",
"126 -10 CURVE SMOOTH",
"133 -10 OFFCURVE",
"139 -4 OFFCURVE",
"139 3 CURVE SMOOTH",
"139 4 OFFCURVE",
"139 6 OFFCURVE",
"137 9 CURVE",
"232 447 LINE",
"326 9 LINE",
"326 7 OFFCURVE",
"325 5 OFFCURVE",
"325 3 CURVE SMOOTH",
"325 -4 OFFCURVE",
"331 -10 OFFCURVE",
"338 -10 CURVE SMOOTH",
"345 -10 OFFCURVE",
"351 -4 OFFCURVE",
"351 3 CURVE SMOOTH",
"351 4 OFFCURVE",
"351 6 OFFCURVE",
"349 9 CURVE"
);
}
);
width = 465;
}
);
leftKerningGroup = v;
rightKerningGroup = v;
unicode = 0077;
},
{
glyphname = x;
layers = (
{
layerId = UUID0;
paths = (
{
closed = 1;
nodes = (
"138 259 LINE",
"237 486 LINE",
"241 488 OFFCURVE",
"243 492 OFFCURVE",
"243 497 CURVE SMOOTH",
"243 504 OFFCURVE",
"237 510 OFFCURVE",
"230 510 CURVE SMOOTH",
"223 510 OFFCURVE",
"217 504 OFFCURVE",
"217 497 CURVE SMOOTH",
"217 493 LINE",
"127 286 LINE",
"41 493 LINE",
"42 494 OFFCURVE",
"42 495 OFFCURVE",
"42 497 CURVE SMOOTH",
"42 504 OFFCURVE",
"36 510 OFFCURVE",
"29 510 CURVE SMOOTH",
"21 510 OFFCURVE",
"16 504 OFFCURVE",
"16 497 CURVE SMOOTH",
"16 492 OFFCURVE",
"18 488 OFFCURVE",
"22 486 CURVE",
"116 259 LINE",
"9 14 LINE",
"5 11 OFFCURVE",
"3 7 OFFCURVE",
"3 3 CURVE SMOOTH",
"3 -4 OFFCURVE",
"9 -10 OFFCURVE",
"16 -10 CURVE SMOOTH",
"23 -10 OFFCURVE",
"29 -4 OFFCURVE",
"29 3 CURVE SMOOTH",
"29 4 OFFCURVE",
"28 5 OFFCURVE",
"28 7 CURVE",
"127 233 LINE",
"220 7 LINE",
"220 3 LINE SMOOTH",
"220 -4 OFFCURVE",
"226 -10 OFFCURVE",
"233 -10 CURVE SMOOTH",
"240 -10 OFFCURVE",
"246 -4 OFFCURVE",
"246 3 CURVE SMOOTH",
"246 7 OFFCURVE",
"244 11 OFFCURVE",
"240 14 CURVE"
);
}
);
width = 254;
}
);
unicode = 0078;
},
{
glyphname = y;
layers = (
{
layerId = UUID0;
paths = (
{
closed = 1;
nodes = (
"137 6 LINE",
"241 487 LINE",
"245 489 OFFCURVE",
"246 493 OFFCURVE",
"246 497 CURVE SMOOTH",
"246 504 OFFCURVE",
"240 510 OFFCURVE",
"233 510 CURVE SMOOTH",
"226 510 OFFCURVE",
"220 504 OFFCURVE",
"220 497 CURVE SMOOTH",
"220 494 LINE SMOOTH",
"220 492 OFFCURVE",
"221 491 OFFCURVE",
"221 490 CURVE",
"127 52 LINE",
"32 490 LINE",
"34 493 OFFCURVE",
"34 495 OFFCURVE",
"34 497 CURVE SMOOTH",
"34 504 OFFCURVE",
"28 510 OFFCURVE",
"21 510 CURVE SMOOTH",
"14 510 OFFCURVE",
"8 504 OFFCURVE",
"8 497 CURVE SMOOTH",
"8 493 OFFCURVE",
"9 489 OFFCURVE",
"12 487 CURVE",
"116 4 LINE",
"96 -92 LINE",
"86 -135 OFFCURVE",
"77 -182 OFFCURVE",
"21 -186 CURVE",
"19 -185 OFFCURVE",
"16 -184 OFFCURVE",
"13 -184 CURVE SMOOTH",
"6 -184 OFFCURVE",
"0 -189 OFFCURVE",
"0 -197 CURVE SMOOTH",
"0 -204 OFFCURVE",
"6 -210 OFFCURVE",
"13 -210 CURVE SMOOTH",
"17 -210 OFFCURVE",
"19 -208 OFFCURVE",
"22 -206 CURVE",
"90 -201 OFFCURVE",
"104 -145 OFFCURVE",
"116 -92 CURVE SMOOTH"
);
}
);
width = 252;
}
);
leftKerningGroup = y;
rightKerningGroup = y;
unicode = 0079;
},
{
glyphname = z;
layers = (
{
layerId = UUID0;
paths = (
{
closed = 1;
nodes = (
"44 20 LINE",
"221 477 LINE",
"227 479 OFFCURVE",
"230 484 OFFCURVE",
"230 490 CURVE SMOOTH",
"230 498 OFFCURVE",
"224 503 OFFCURVE",
"217 503 CURVE SMOOTH",
"214 503 OFFCURVE",
"211 502 OFFCURVE",
"208 500 CURVE",
"36 500 LINE",
"34 502 OFFCURVE",
"31 503 OFFCURVE",
"28 503 CURVE SMOOTH",
"21 503 OFFCURVE",
"15 498 OFFCURVE",
"15 490 CURVE SMOOTH",
"15 483 OFFCURVE",
"21 477 OFFCURVE",
"28 477 CURVE SMOOTH",
"31 477 OFFCURVE",
"34 478 OFFCURVE",
"36 480 CURVE",
"199 480 LINE",
"22 22 LINE",
"18 20 OFFCURVE",
"15 16 OFFCURVE",
"15 10 CURVE SMOOTH",
"15 2 OFFCURVE",
"21 -3 OFFCURVE",
"28 -3 CURVE SMOOTH",
"31 -3 OFFCURVE",
"34 -2 OFFCURVE",
"36 0 CURVE",
"208 0 LINE",
"211 -2 OFFCURVE",
"214 -3 OFFCURVE",
"217 -3 CURVE SMOOTH",
"224 -3 OFFCURVE",
"230 2 OFFCURVE",
"230 10 CURVE SMOOTH",
"230 17 OFFCURVE",
"224 23 OFFCURVE",
"217 23 CURVE SMOOTH",
"214 23 OFFCURVE",
"211 22 OFFCURVE",
"208 20 CURVE"
);
}
);
width = 245;
}
);
unicode = 007A;
},
{
glyphname = ordfeminine;
layers = (
{
layerId = UUID0;
paths = (
{
closed = 1;
nodes = (
"164 639 LINE",
"164 674 OFFCURVE",
"149 710 OFFCURVE",
"100 710 CURVE SMOOTH",
"59 710 OFFCURVE",
"37 679 OFFCURVE",
"35 650 CURVE",
"33 648 OFFCURVE",
"32 645 OFFCURVE",
"32 641 CURVE SMOOTH",
"32 635 OFFCURVE",
"38 629 OFFCURVE",
"45 629 CURVE SMOOTH",
"52 629 OFFCURVE",
"58 635 OFFCURVE",
"58 641 CURVE SMOOTH",
"58 645 OFFCURVE",
"57 647 OFFCURVE",
"55 649 CURVE",
"57 673 OFFCURVE",
"71 690 OFFCURVE",
"100 690 CURVE SMOOTH",
"133 690 OFFCURVE",
"144 664 OFFCURVE",
"144 639 CURVE SMOOTH",
"144 594 LINE",
"114 594 LINE SMOOTH",
"46 594 OFFCURVE",
"35 558 OFFCURVE",
"35 523 CURVE SMOOTH",
"35 472 LINE SMOOTH",
"35 431 OFFCURVE",
"55 401 OFFCURVE",
"96 401 CURVE SMOOTH",
"124 401 OFFCURVE",
"136 415 OFFCURVE",
"144 433 CURVE",
"144 422 LINE",
"142 420 OFFCURVE",
"141 417 OFFCURVE",
"141 414 CURVE SMOOTH",
"141 407 OFFCURVE",
"146 401 OFFCURVE",
"154 401 CURVE SMOOTH",
"161 401 OFFCURVE",
"167 407 OFFCURVE",
"167 414 CURVE SMOOTH",
"167 417 OFFCURVE",
"166 420 OFFCURVE",
"164 422 CURVE"
);
},
{
closed = 1;
nodes = (
"55 523 LINE",
"55 548 OFFCURVE",
"63 574 OFFCURVE",
"114 574 CURVE SMOOTH",
"144 574 LINE",
"144 470 LINE",
"142 445 OFFCURVE",
"125 421 OFFCURVE",
"97 421 CURVE SMOOTH",
"63 421 OFFCURVE",
"55 447 OFFCURVE",
"55 472 CURVE SMOOTH"
);
}
);
width = 205;
}
);
unicode = 00AA;
},
{
glyphname = ordmasculine;
layers = (
{
layerId = UUID0;
paths = (
{
closed = 1;
nodes = (
"57 640 LINE",
"57 664 OFFCURVE",
"67 690 OFFCURVE",
"101 690 CURVE SMOOTH",
"135 690 OFFCURVE",
"146 664 OFFCURVE",
"146 640 CURVE SMOOTH",
"146 473 LINE SMOOTH",
"146 449 OFFCURVE",
"135 423 OFFCURVE",
"101 423 CURVE SMOOTH",
"67 423 OFFCURVE",
"57 449 OFFCURVE",
"57 473 CURVE SMOOTH"
);
},
{
closed = 1;
nodes = (
"166 640 LINE",
"166 674 OFFCURVE",
"149 710 OFFCURVE",
"101 710 CURVE SMOOTH",
"53 710 OFFCURVE",
"37 674 OFFCURVE",
"37 640 CURVE SMOOTH",
"37 473 LINE SMOOTH",
"37 439 OFFCURVE",
"53 403 OFFCURVE",
"101 403 CURVE SMOOTH",
"149 403 OFFCURVE",
"166 439 OFFCURVE",
"166 473 CURVE SMOOTH"
);
}
);
width = 203;
}
);
unicode = 00BA;
},
{
glyphname = zero;
layers = (
{
layerId = UUID0;
paths = (
{
closed = 1;
nodes = (
"65 596 LINE",
"65 642 OFFCURVE",
"85 690 OFFCURVE",
"149 690 CURVE SMOOTH",
"213 690 OFFCURVE",
"233 642 OFFCURVE",
"233 596 CURVE SMOOTH",
"233 101 LINE SMOOTH",
"233 54 OFFCURVE",
"213 10 OFFCURVE",
"149 10 CURVE SMOOTH",
"85 10 OFFCURVE",
"65 54 OFFCURVE",
"65 101 CURVE SMOOTH"
);
},
{
closed = 1;
nodes = (
"253 596 LINE",
"253 653 OFFCURVE",
"226 710 OFFCURVE",
"149 710 CURVE SMOOTH",
"69 710 OFFCURVE",
"45 653 OFFCURVE",
"45 596 CURVE SMOOTH",
"45 101 LINE SMOOTH",
"45 44 OFFCURVE",
"69 -10 OFFCURVE",
"149 -10 CURVE SMOOTH",
"226 -10 OFFCURVE",
"253 44 OFFCURVE",
"253 101 CURVE SMOOTH"
);
}
);
width = 298;
}
);
unicode = 0030;
},
{
glyphname = one;
layers = (
{
layerId = UUID0;
paths = (
{
closed = 1;
nodes = (
"207 688 LINE",
"209 691 OFFCURVE",
"210 694 OFFCURVE",
"210 697 CURVE SMOOTH",
"210 704 OFFCURVE",
"204 710 OFFCURVE",
"197 710 CURVE SMOOTH",
"189 710 OFFCURVE",
"184 704 OFFCURVE",
"184 698 CURVE",
"11 526 LINE",
"4 524 OFFCURVE",
"-1 519 OFFCURVE",
"-1 513 CURVE SMOOTH",
"-1 506 OFFCURVE",
"5 500 OFFCURVE",
"12 500 CURVE SMOOTH",
"20 500 OFFCURVE",
"25 506 OFFCURVE",
"25 513 CURVE",
"187 674 LINE",
"187 11 LINE",
"185 9 OFFCURVE",
"184 6 OFFCURVE",
"184 3 CURVE SMOOTH",
"184 -4 OFFCURVE",
"189 -10 OFFCURVE",
"197 -10 CURVE SMOOTH",
"204 -10 OFFCURVE",
"210 -4 OFFCURVE",
"210 3 CURVE SMOOTH",
"210 6 OFFCURVE",
"209 9 OFFCURVE",
"207 11 CURVE"
);
}
);
width = 255;
}
);
unicode = 0031;
},
{
glyphname = two;
layers = (
{
layerId = UUID0;
paths = (
{
closed = 1;
nodes = (
"53 20 LINE",
"53 193 LINE",
"55 226 OFFCURVE",
"60 252 OFFCURVE",
"83 272 CURVE SMOOTH",
"201 376 LINE",
"236 408 OFFCURVE",
"244 444 OFFCURVE",
"244 477 CURVE SMOOTH",
"244 599 LINE SMOOTH",
"244 656 OFFCURVE",
"219 710 OFFCURVE",
"140 710 CURVE SMOOTH",
"66 710 OFFCURVE",
"39 662 OFFCURVE",
"36 608 CURVE",
"34 606 OFFCURVE",
"33 603 OFFCURVE",
"33 599 CURVE SMOOTH",
"33 592 OFFCURVE",
"39 586 OFFCURVE",
"46 586 CURVE SMOOTH",
"53 586 OFFCURVE",
"59 592 OFFCURVE",
"59 599 CURVE SMOOTH",
"59 603 OFFCURVE",
"58 606 OFFCURVE",
"56 608 CURVE",
"58 652 OFFCURVE",
"81 690 OFFCURVE",
"140 690 CURVE SMOOTH",
"204 690 OFFCURVE",
"224 646 OFFCURVE",
"224 599 CURVE SMOOTH",
"224 477 LINE SMOOTH",
"224 442 OFFCURVE",
"211 411 OFFCURVE",
"186 388 CURVE",
"69 284 LINE",
"38 254 OFFCURVE",
"33 225 OFFCURVE",
"33 193 CURVE SMOOTH",
"33 0 LINE",
"229 0 LINE",
"232 -2 OFFCURVE",
"235 -3 OFFCURVE",
"238 -3 CURVE SMOOTH",
"245 -3 OFFCURVE",
"251 2 OFFCURVE",
"251 10 CURVE SMOOTH",
"251 17 OFFCURVE",
"245 23 OFFCURVE",
"238 23 CURVE SMOOTH",
"235 23 OFFCURVE",
"232 22 OFFCURVE",
"229 20 CURVE"
);
}
);
width = 277;
}
);
unicode = 0032;
},
{
glyphname = three;
layers = (
{
layerId = UUID0;
paths = (
{
closed = 1;
nodes = (
"232 386 LINE SMOOTH",
"232 432 OFFCURVE",
"217 471 OFFCURVE",
"174 490 CURVE",
"219 507 OFFCURVE",
"232 553 OFFCURVE",
"232 596 CURVE SMOOTH",
"232 653 OFFCURVE",
"205 710 OFFCURVE",
"128 710 CURVE SMOOTH",
"54 710 OFFCURVE",
"26 662 OFFCURVE",
"24 608 CURVE",
"22 606 OFFCURVE",
"21 603 OFFCURVE",
"21 599 CURVE SMOOTH",
"21 592 OFFCURVE",
"27 586 OFFCURVE",
"34 586 CURVE SMOOTH",
"40 586 OFFCURVE",
"47 592 OFFCURVE",
"47 599 CURVE SMOOTH",
"47 603 OFFCURVE",
"46 606 OFFCURVE",
"44 608 CURVE",
"45 652 OFFCURVE",
"68 690 OFFCURVE",
"128 690 CURVE SMOOTH",
"192 690 OFFCURVE",
"212 642 OFFCURVE",
"212 596 CURVE SMOOTH",
"212 549 OFFCURVE",
"198 500 OFFCURVE",
"134 500 CURVE SMOOTH",
"107 500 LINE",
"107 480 LINE",
"125 480 LINE SMOOTH",
"192 480 OFFCURVE",
"212 433 OFFCURVE",
"212 386 CURVE SMOOTH",
"212 101 LINE SMOOTH",
"212 54 OFFCURVE",
"192 10 OFFCURVE",
"128 10 CURVE SMOOTH",
"68 10 OFFCURVE",
"45 47 OFFCURVE",
"44 92 CURVE",
"46 94 OFFCURVE",
"47 98 OFFCURVE",
"47 101 CURVE SMOOTH",
"47 108 OFFCURVE",
"42 114 OFFCURVE",
"34 114 CURVE SMOOTH",
"27 114 OFFCURVE",
"21 108 OFFCURVE",
"21 101 CURVE SMOOTH",
"21 98 OFFCURVE",
"22 94 OFFCURVE",
"24 92 CURVE",
"26 38 OFFCURVE",
"54 -10 OFFCURVE",
"128 -10 CURVE SMOOTH",
"207 -10 OFFCURVE",
"232 44 OFFCURVE",
"232 101 CURVE SMOOTH"
);
}
);
width = 274;
}
);
unicode = 0033;
},
{
glyphname = four;
layers = (
{
layerId = UUID0;
paths = (
{
closed = 1;
nodes = (
"193 480 LINE",
"221 480 LINE",
"224 478 OFFCURVE",
"227 477 OFFCURVE",
"230 477 CURVE SMOOTH",
"237 477 OFFCURVE",
"243 483 OFFCURVE",
"243 490 CURVE SMOOTH",
"243 498 OFFCURVE",
"237 503 OFFCURVE",
"230 503 CURVE SMOOTH",
"227 503 OFFCURVE",
"224 502 OFFCURVE",
"221 500 CURVE",
"193 500 LINE",
"193 688 LINE",
"195 691 OFFCURVE",
"196 694 OFFCURVE",
"196 697 CURVE SMOOTH",
"196 704 OFFCURVE",
"190 710 OFFCURVE",
"183 710 CURVE SMOOTH",
"176 710 OFFCURVE",
"170 704 OFFCURVE",
"170 697 CURVE",
"1 500 LINE",
"1 480 LINE",
"173 480 LINE",
"173 11 LINE",
"171 9 OFFCURVE",
"170 6 OFFCURVE",
"170 3 CURVE SMOOTH",
"170 -4 OFFCURVE",
"176 -10 OFFCURVE",
"183 -10 CURVE SMOOTH",
"190 -10 OFFCURVE",
"196 -4 OFFCURVE",
"196 3 CURVE SMOOTH",
"196 6 OFFCURVE",
"195 9 OFFCURVE",
"193 11 CURVE"
);
},
{
closed = 1;
nodes = (
"25 500 LINE",
"173 671 LINE",
"173 500 LINE"
);
}
);
width = 255;
}
);
unicode = 0034;
},
{
glyphname = five;
layers = (
{
layerId = UUID0;
paths = (
{
closed = 1;
nodes = (
"230 389 LINE SMOOTH",
"230 446 OFFCURVE",
"203 500 OFFCURVE",
"126 500 CURVE SMOOTH",
"62 500 LINE",
"62 680 LINE",
"213 680 LINE",
"216 678 OFFCURVE",
"219 677 OFFCURVE",
"222 677 CURVE SMOOTH",
"229 677 OFFCURVE",
"235 683 OFFCURVE",
"235 690 CURVE SMOOTH",
"235 697 OFFCURVE",
"229 703 OFFCURVE",
"222 703 CURVE SMOOTH",
"219 703 OFFCURVE",
"216 702 OFFCURVE",
"213 700 CURVE",
"42 700 LINE",
"42 480 LINE",
"126 480 LINE SMOOTH",
"190 480 OFFCURVE",
"210 436 OFFCURVE",
"210 389 CURVE SMOOTH",
"210 101 LINE SMOOTH",
"210 54 OFFCURVE",
"190 10 OFFCURVE",
"126 10 CURVE SMOOTH",
"67 10 OFFCURVE",
"44 46 OFFCURVE",
"42 90 CURVE",
"44 92 OFFCURVE",
"45 95 OFFCURVE",
"45 98 CURVE SMOOTH",
"45 105 OFFCURVE",
"40 111 OFFCURVE",
"32 111 CURVE SMOOTH",
"25 111 OFFCURVE",
"19 105 OFFCURVE",
"19 98 CURVE SMOOTH",
"19 94 OFFCURVE",
"20 91 OFFCURVE",
"22 89 CURVE",
"26 36 OFFCURVE",
"52 -10 OFFCURVE",
"126 -10 CURVE SMOOTH",
"203 -10 OFFCURVE",
"230 44 OFFCURVE",
"230 101 CURVE SMOOTH"
);
}
);
width = 271;
}
);
unicode = 0035;
},
{
glyphname = six;
layers = (
{
layerId = UUID0;
paths = (
{
closed = 1;
nodes = (
"253 386 LINE",
"253 443 OFFCURVE",
"226 500 OFFCURVE",
"149 500 CURVE SMOOTH",
"108 500 OFFCURVE",
"81 482 OFFCURVE",
"65 454 CURVE",
"65 596 LINE SMOOTH",
"65 642 OFFCURVE",
"85 690 OFFCURVE",
"149 690 CURVE SMOOTH",
"209 690 OFFCURVE",
"230 647 OFFCURVE",
"233 604 CURVE",
"231 602 OFFCURVE",
"230 600 OFFCURVE",
"230 596 CURVE SMOOTH",
"230 589 OFFCURVE",
"236 583 OFFCURVE",
"243 583 CURVE SMOOTH",
"250 583 OFFCURVE",
"256 589 OFFCURVE",
"256 596 CURVE SMOOTH",
"256 600 OFFCURVE",
"255 603 OFFCURVE",
"253 605 CURVE",
"250 659 OFFCURVE",
"223 710 OFFCURVE",
"149 710 CURVE SMOOTH",
"69 710 OFFCURVE",
"45 653 OFFCURVE",
"45 596 CURVE SMOOTH",
"45 101 LINE SMOOTH",
"45 44 OFFCURVE",
"69 -10 OFFCURVE",
"149 -10 CURVE SMOOTH",
"226 -10 OFFCURVE",
"253 44 OFFCURVE",
"253 101 CURVE SMOOTH"
);
},
{
closed = 1;
nodes = (
"65 385 LINE",
"65 431 OFFCURVE",
"85 480 OFFCURVE",
"149 480 CURVE SMOOTH",
"213 480 OFFCURVE",
"233 431 OFFCURVE",
"233 385 CURVE SMOOTH",
"233 102 LINE SMOOTH",
"233 55 OFFCURVE",
"213 10 OFFCURVE",
"149 10 CURVE SMOOTH",
"85 10 OFFCURVE",
"65 55 OFFCURVE",
"65 102 CURVE SMOOTH"
);
}
);
width = 294;
}
);
unicode = 0036;
},
{
glyphname = seven;
layers = (
{
layerId = UUID0;
paths = (
{
closed = 1;
nodes = (
"77 347 LINE SMOOTH",
"77 381 OFFCURVE",
"90 413 OFFCURVE",
"115 436 CURVE SMOOTH",
"197 509 LINE SMOOTH",
"229 537 OFFCURVE",
"233 569 OFFCURVE",
"233 600 CURVE SMOOTH",
"233 700 LINE",
"36 700 LINE",
"34 702 OFFCURVE",
"31 703 OFFCURVE",
"28 703 CURVE SMOOTH",
"21 703 OFFCURVE",
"15 697 OFFCURVE",
"15 690 CURVE SMOOTH",
"15 683 OFFCURVE",
"21 677 OFFCURVE",
"28 677 CURVE SMOOTH",
"31 677 OFFCURVE",
"34 678 OFFCURVE",
"36 680 CURVE",
"213 680 LINE",
"213 600 LINE",
"211 567 OFFCURVE",
"206 541 OFFCURVE",
"183 521 CURVE SMOOTH",
"100 448 LINE",
"65 416 OFFCURVE",
"57 380 OFFCURVE",
"57 347 CURVE SMOOTH",
"57 11 LINE",
"55 9 OFFCURVE",
"54 6 OFFCURVE",
"54 3 CURVE SMOOTH",
"54 -4 OFFCURVE",
"60 -10 OFFCURVE",
"67 -10 CURVE SMOOTH",
"74 -10 OFFCURVE",
"80 -4 OFFCURVE",
"80 3 CURVE SMOOTH",
"80 6 OFFCURVE",
"79 9 OFFCURVE",
"77 11 CURVE"
);
}
);
width = 245;
}
);
unicode = 0037;
},
{
glyphname = eight;
layers = (
{
layerId = UUID0;
paths = (
{
closed = 1;
nodes = (
"250 396 LINE",
"250 438 OFFCURVE",
"234 480 OFFCURVE",
"195 500 CURVE",
"236 517 OFFCURVE",
"250 558 OFFCURVE",
"250 600 CURVE SMOOTH",
"250 658 OFFCURVE",
"225 710 OFFCURVE",
"146 710 CURVE SMOOTH",
"66 710 OFFCURVE",
"42 655 OFFCURVE",
"42 600 CURVE SMOOTH",
"42 558 OFFCURVE",
"56 517 OFFCURVE",
"96 500 CURVE",
"56 480 OFFCURVE",
"42 438 OFFCURVE",
"42 396 CURVE SMOOTH",
"42 101 LINE SMOOTH",
"42 44 OFFCURVE",
"66 -10 OFFCURVE",
"146 -10 CURVE SMOOTH",
"223 -10 OFFCURVE",
"250 44 OFFCURVE",
"250 101 CURVE SMOOTH"
);
},
{
closed = 1;
nodes = (
"62 396 LINE",
"62 441 OFFCURVE",
"82 490 OFFCURVE",
"146 490 CURVE SMOOTH",
"210 490 OFFCURVE",
"230 441 OFFCURVE",
"230 396 CURVE SMOOTH",
"230 101 LINE SMOOTH",
"230 54 OFFCURVE",
"210 10 OFFCURVE",
"146 10 CURVE SMOOTH",
"82 10 OFFCURVE",
"62 54 OFFCURVE",
"62 101 CURVE SMOOTH"
);
},
{
closed = 1;
nodes = (
"141 510 LINE",
"83 512 OFFCURVE",
"62 557 OFFCURVE",
"62 600 CURVE SMOOTH",
"62 645 OFFCURVE",
"83 690 OFFCURVE",
"146 690 CURVE SMOOTH",
"209 690 OFFCURVE",
"230 645 OFFCURVE",
"230 600 CURVE SMOOTH",
"230 555 OFFCURVE",
"210 512 OFFCURVE",
"150 510 CURVE"
);
}
);
width = 293;
}
);
unicode = 0038;
},
{
glyphname = nine;
layers = (
{
layerId = UUID0;
paths = (
{
closed = 1;
nodes = (
"249 599 LINE",
"249 656 OFFCURVE",
"224 710 OFFCURVE",
"145 710 CURVE SMOOTH",
"68 710 OFFCURVE",
"41 656 OFFCURVE",
"41 599 CURVE SMOOTH",
"41 314 LINE SMOOTH",
"41 257 OFFCURVE",
"68 200 OFFCURVE",
"145 200 CURVE SMOOTH",
"184 200 OFFCURVE",
"212 216 OFFCURVE",
"229 245 CURVE",
"229 104 LINE SMOOTH",
"229 59 OFFCURVE",
"209 10 OFFCURVE",
"145 10 CURVE SMOOTH",
"85 10 OFFCURVE",
"63 53 OFFCURVE",
"61 96 CURVE",
"63 98 OFFCURVE",
"64 101 OFFCURVE",
"64 104 CURVE SMOOTH",
"64 111 OFFCURVE",
"58 117 OFFCURVE",
"51 117 CURVE SMOOTH",
"43 117 OFFCURVE",
"38 111 OFFCURVE",
"38 104 CURVE SMOOTH",
"38 101 OFFCURVE",
"39 97 OFFCURVE",
"41 95 CURVE",
"43 41 OFFCURVE",
"71 -10 OFFCURVE",
"145 -10 CURVE SMOOTH",
"224 -10 OFFCURVE",
"249 47 OFFCURVE",
"249 104 CURVE SMOOTH"
);
},
{
closed = 1;
nodes = (
"61 598 LINE",
"61 645 OFFCURVE",
"81 690 OFFCURVE",
"145 690 CURVE SMOOTH",
"209 690 OFFCURVE",
"229 645 OFFCURVE",
"229 598 CURVE SMOOTH",
"229 308 LINE",
"227 264 OFFCURVE",
"207 220 OFFCURVE",
"145 220 CURVE SMOOTH",
"81 220 OFFCURVE",
"61 269 OFFCURVE",
"61 315 CURVE SMOOTH"
);
}
);
width = 294;
}
);
unicode = 0039;
},
{
glyphname = onesuperior;
layers = (
{
layerId = UUID0;
paths = (
{
closed = 1;
nodes = (
"114 710 LINE",
"94 710 LINE",
"22 637 LINE",
"15 636 OFFCURVE",
"10 630 OFFCURVE",
"10 624 CURVE SMOOTH",
"10 617 OFFCURVE",
"16 611 OFFCURVE",
"23 611 CURVE SMOOTH",
"30 611 OFFCURVE",
"36 617 OFFCURVE",
"36 624 CURVE",
"94 683 LINE",
"94 419 LINE",
"92 417 OFFCURVE",
"91 415 OFFCURVE",
"91 411 CURVE SMOOTH",
"91 404 OFFCURVE",
"97 398 OFFCURVE",
"104 398 CURVE SMOOTH",
"111 398 OFFCURVE",
"117 404 OFFCURVE",
"117 411 CURVE SMOOTH",
"117 415 OFFCURVE",
"116 417 OFFCURVE",
"114 419 CURVE"
);
}
);
width = 157;
}
);
unicode = 00B9;
},
{
glyphname = twosuperior;
layers = (
{
layerId = UUID0;
paths = (
{
closed = 1;
nodes = (
"58 428 LINE",
"58 481 LINE SMOOTH",
"58 497 OFFCURVE",
"61 508 OFFCURVE",
"71 516 CURVE SMOOTH",
"122 561 LINE SMOOTH",
"137 574 OFFCURVE",
"145 590 OFFCURVE",
"145 609 CURVE SMOOTH",
"145 644 LINE SMOOTH",
"145 681 OFFCURVE",
"131 710 OFFCURVE",
"91 710 CURVE SMOOTH",
"50 710 OFFCURVE",
"36 673 OFFCURVE",
"34 650 CURVE",
"32 647 OFFCURVE",
"31 645 OFFCURVE",
"31 641 CURVE SMOOTH",
"31 635 OFFCURVE",
"37 629 OFFCURVE",
"44 629 CURVE SMOOTH",
"50 629 OFFCURVE",
"57 635 OFFCURVE",
"57 641 CURVE SMOOTH",
"57 645 OFFCURVE",
"56 647 OFFCURVE",
"54 649 CURVE",
"56 670 OFFCURVE",
"63 690 OFFCURVE",
"91 690 CURVE SMOOTH",
"116 690 OFFCURVE",
"125 671 OFFCURVE",
"125 644 CURVE SMOOTH",
"125 614 LINE SMOOTH",
"125 597 OFFCURVE",
"118 585 OFFCURVE",
"109 577 CURVE",
"59 532 LINE",
"47 522 OFFCURVE",
"39 507 OFFCURVE",
"39 491 CURVE SMOOTH",
"39 408 LINE",
"122 408 LINE",
"125 406 OFFCURVE",
"127 405 OFFCURVE",
"131 405 CURVE SMOOTH",
"138 405 OFFCURVE",
"144 411 OFFCURVE",
"144 418 CURVE SMOOTH",
"144 425 OFFCURVE",
"138 431 OFFCURVE",
"131 431 CURVE SMOOTH",
"128 431 OFFCURVE",
"125 430 OFFCURVE",
"122 428 CURVE"
);
}
);
width = 180;
}
);
unicode = 00B2;
},
{
glyphname = threesuperior;
layers = (
{
layerId = UUID0;
paths = (
{
closed = 1;
nodes = (
"161 569 LINE SMOOTH",
"161 585 OFFCURVE",
"158 599 OFFCURVE",
"140 606 CURVE",
"153 615 OFFCURVE",
"161 628 OFFCURVE",
"161 652 CURVE SMOOTH",
"161 687 OFFCURVE",
"135 710 OFFCURVE",
"98 710 CURVE SMOOTH",
"58 710 OFFCURVE",
"32 685 OFFCURVE",
"32 650 CURVE",
"30 648 OFFCURVE",
"29 645 OFFCURVE",
"29 641 CURVE SMOOTH",
"29 635 OFFCURVE",
"35 629 OFFCURVE",
"42 629 CURVE SMOOTH",
"48 629 OFFCURVE",
"55 635 OFFCURVE",
"55 641 CURVE SMOOTH",
"55 645 OFFCURVE",
"54 647 OFFCURVE",
"52 649 CURVE",
"52 675 OFFCURVE",
"73 690 OFFCURVE",
"98 690 CURVE SMOOTH",
"128 690 OFFCURVE",
"141 669 OFFCURVE",
"141 652 CURVE SMOOTH",
"141 634 OFFCURVE",
"134 614 OFFCURVE",
"111 614 CURVE SMOOTH",
"97 614 LINE",
"95 616 OFFCURVE",
"91 618 OFFCURVE",
"88 618 CURVE SMOOTH",
"81 618 OFFCURVE",
"75 612 OFFCURVE",
"75 605 CURVE SMOOTH",
"75 598 OFFCURVE",
"81 592 OFFCURVE",
"88 592 CURVE SMOOTH",
"91 592 OFFCURVE",
"95 593 OFFCURVE",
"97 596 CURVE",
"111 596 LINE SMOOTH",
"134 596 OFFCURVE",
"141 582 OFFCURVE",
"141 569 CURVE SMOOTH",
"141 473 LINE SMOOTH",
"141 449 OFFCURVE",
"130 423 OFFCURVE",
"96 423 CURVE SMOOTH",
"67 423 OFFCURVE",
"54 443 OFFCURVE",
"53 464 CURVE",
"55 466 OFFCURVE",
"56 469 OFFCURVE",
"56 472 CURVE SMOOTH",
"56 479 OFFCURVE",
"49 484 OFFCURVE",
"43 484 CURVE SMOOTH",
"36 484 OFFCURVE",
"30 478 OFFCURVE",
"30 472 CURVE SMOOTH",
"30 469 OFFCURVE",
"31 465 OFFCURVE",
"33 463 CURVE",
"35 438 OFFCURVE",
"49 403 OFFCURVE",
"96 403 CURVE SMOOTH",
"144 403 OFFCURVE",
"161 439 OFFCURVE",
"161 473 CURVE SMOOTH"
);
}
);
width = 198;
}
);
unicode = 00B3;
},
{
glyphname = foursuperior;
layers = (
{
layerId = UUID0;
paths = (
{
closed = 1;
nodes = (
"116 582 LINE",
"124 582 LINE",
"127 580 OFFCURVE",
"130 579 OFFCURVE",
"133 579 CURVE SMOOTH",
"140 579 OFFCURVE",
"146 584 OFFCURVE",
"146 592 CURVE SMOOTH",
"146 599 OFFCURVE",
"140 605 OFFCURVE",
"133 605 CURVE SMOOTH",
"130 605 OFFCURVE",
"127 604 OFFCURVE",
"124 602 CURVE",
"116 602 LINE",
"116 688 LINE",
"118 691 OFFCURVE",
"119 694 OFFCURVE",
"119 697 CURVE SMOOTH",
"119 704 OFFCURVE",
"113 710 OFFCURVE",
"106 710 CURVE SMOOTH",
"99 710 OFFCURVE",
"93 704 OFFCURVE",
"93 697 CURVE SMOOTH",
"93 696 LINE",
"12 602 LINE",
"12 582 LINE",
"96 582 LINE",
"96 412 LINE",
"94 410 OFFCURVE",
"93 407 OFFCURVE",
"93 404 CURVE SMOOTH",
"93 396 OFFCURVE",
"99 391 OFFCURVE",
"106 391 CURVE SMOOTH",
"113 391 OFFCURVE",
"119 396 OFFCURVE",
"119 404 CURVE SMOOTH",
"119 407 OFFCURVE",
"118 410 OFFCURVE",
"116 412 CURVE"
);
},
{
closed = 1;
nodes = (
"36 602 LINE",
"96 671 LINE",
"96 602 LINE"
);
}
);
width = 167;
}
);
unicode = 2074;
},
{
glyphname = fraction;
layers = (
{
layerId = UUID0;
paths = (
{
closed = 1;
nodes = (
"200 685 LINE",
"206 687 OFFCURVE",
"208 691 OFFCURVE",
"208 697 CURVE SMOOTH",
"208 704 OFFCURVE",
"202 710 OFFCURVE",
"195 710 CURVE SMOOTH",
"188 710 OFFCURVE",
"182 704 OFFCURVE",
"182 697 CURVE SMOOTH",
"182 694 OFFCURVE",
"183 692 OFFCURVE",
"183 691 CURVE",
"5 14 LINE",
"1 11 OFFCURVE",
"-1 7 OFFCURVE",
"-1 3 CURVE SMOOTH",
"-1 -4 OFFCURVE",
"5 -10 OFFCURVE",
"12 -10 CURVE SMOOTH",
"20 -10 OFFCURVE",
"25 -4 OFFCURVE",
"25 3 CURVE SMOOTH",
"25 4 OFFCURVE",
"24 6 OFFCURVE",
"23 9 CURVE"
);
}
);
width = 231;
}
);
unicode = 2044;
},
{
glyphname = asterisk;
layers = (
{
layerId = UUID0;
paths = (
{
closed = 1;
nodes = (
"180 569 LINE",
"281 602 LINE",
"285 602 LINE SMOOTH",
"292 602 OFFCURVE",
"298 608 OFFCURVE",
"298 615 CURVE SMOOTH",
"298 623 OFFCURVE",
"292 628 OFFCURVE",
"285 628 CURVE SMOOTH",
"280 628 OFFCURVE",
"276 625 OFFCURVE",
"273 621 CURVE",
"173 589 LINE",
"173 694 LINE",
"175 697 OFFCURVE",
"176 700 OFFCURVE",
"176 703 CURVE SMOOTH",
"176 710 OFFCURVE",
"170 716 OFFCURVE",
"163 716 CURVE SMOOTH",
"156 716 OFFCURVE",
"150 710 OFFCURVE",
"150 703 CURVE SMOOTH",
"150 700 OFFCURVE",
"151 697 OFFCURVE",
"153 694 CURVE",
"153 589 LINE",
"53 622 LINE",
"50 625 OFFCURVE",
"46 628 OFFCURVE",
"42 628 CURVE SMOOTH",
"35 628 OFFCURVE",
"29 623 OFFCURVE",
"29 615 CURVE SMOOTH",
"29 608 OFFCURVE",
"35 602 OFFCURVE",
"42 602 CURVE SMOOTH",
"44 602 LINE SMOOTH",
"45 602 OFFCURVE",
"46 603 OFFCURVE",
"47 603 CURVE",
"146 569 LINE",
"84 484 LINE",
"79 482 OFFCURVE",
"75 478 OFFCURVE",
"75 472 CURVE SMOOTH",
"75 465 OFFCURVE",
"81 459 OFFCURVE",
"88 459 CURVE SMOOTH",
"95 459 OFFCURVE",
"101 465 OFFCURVE",
"101 472 CURVE SMOOTH",
"101 474 LINE",
"162 557 LINE",
"225 472 LINE",
"225 465 OFFCURVE",
"230 459 OFFCURVE",
"238 459 CURVE SMOOTH",
"245 459 OFFCURVE",
"251 465 OFFCURVE",
"251 472 CURVE SMOOTH",
"251 478 OFFCURVE",
"246 483 OFFCURVE",
"240 485 CURVE"
);
}
);
width = 327;
}
);
unicode = 002A;
},
{
glyphname = colon;
layers = (
{
layerId = UUID0;
paths = (
{
closed = 1;
nodes = (
"68 1 OFFCURVE",
"70 6 OFFCURVE",
"70 12 CURVE SMOOTH",
"70 25 OFFCURVE",
"62 35 OFFCURVE",
"47 35 CURVE SMOOTH",
"33 35 OFFCURVE",
"25 25 OFFCURVE",
"25 12 CURVE SMOOTH",
"25 0 OFFCURVE",
"33 -10 OFFCURVE",
"47 -10 CURVE SMOOTH",
"54 -10 OFFCURVE",
"60 -8 OFFCURVE",
"64 -3 CURVE SMOOTH"
);
},
{
closed = 1;
nodes = (
"68 386 OFFCURVE",
"70 391 OFFCURVE",
"70 397 CURVE SMOOTH",
"70 410 OFFCURVE",
"62 420 OFFCURVE",
"47 420 CURVE SMOOTH",
"33 420 OFFCURVE",
"25 410 OFFCURVE",
"25 397 CURVE SMOOTH",
"25 385 OFFCURVE",
"33 375 OFFCURVE",
"47 375 CURVE SMOOTH",
"54 375 OFFCURVE",
"60 377 OFFCURVE",
"64 381 CURVE SMOOTH"
);
}
);
width = 95;
}
);
unicode = 003A;
},
{
glyphname = comma;
layers = (
{
layerId = UUID0;
paths = (
{
closed = 1;
nodes = (
"32 -59 LINE",
"59 -10 LINE",
"61 -10 LINE SMOOTH",
"76 -10 OFFCURVE",
"84 0 OFFCURVE",
"84 12 CURVE SMOOTH",
"84 25 OFFCURVE",
"76 35 OFFCURVE",
"61 35 CURVE SMOOTH",
"47 35 OFFCURVE",
"39 25 OFFCURVE",
"39 12 CURVE SMOOTH",
"39 7 OFFCURVE",
"40 3 OFFCURVE",
"42 0 CURVE",
"15 -48 LINE",
"9 -50 OFFCURVE",
"6 -55 OFFCURVE",
"6 -61 CURVE SMOOTH",
"6 -68 OFFCURVE",
"12 -74 OFFCURVE",
"19 -74 CURVE SMOOTH",
"26 -74 OFFCURVE",
"32 -68 OFFCURVE",
"32 -61 CURVE SMOOTH"
);
}
);
width = 109;
}
);
leftKerningGroup = comma;
rightKerningGroup = comma;
unicode = 002C;
},
{
glyphname = exclam;
layers = (
{
layerId = UUID0;
paths = (
{
closed = 1;
nodes = (
"74 688 LINE",
"76 691 OFFCURVE",
"77 694 OFFCURVE",
"77 697 CURVE SMOOTH",
"77 704 OFFCURVE",
"71 710 OFFCURVE",
"64 710 CURVE SMOOTH",
"57 710 OFFCURVE",
"51 704 OFFCURVE",
"51 697 CURVE SMOOTH",
"51 693 OFFCURVE",
"52 690 OFFCURVE",
"54 688 CURVE",
"54 151 LINE",
"52 149 OFFCURVE",
"51 146 OFFCURVE",
"51 143 CURVE SMOOTH",
"51 136 OFFCURVE",
"57 130 OFFCURVE",
"64 130 CURVE SMOOTH",
"71 130 OFFCURVE",
"77 136 OFFCURVE",
"77 143 CURVE SMOOTH",
"77 146 OFFCURVE",
"76 149 OFFCURVE",
"74 151 CURVE"
);
},
{
closed = 1;
nodes = (
"85 1 OFFCURVE",
"87 6 OFFCURVE",
"87 12 CURVE SMOOTH",
"87 25 OFFCURVE",
"79 35 OFFCURVE",
"64 35 CURVE SMOOTH",
"50 35 OFFCURVE",
"42 25 OFFCURVE",
"42 12 CURVE SMOOTH",
"42 0 OFFCURVE",
"50 -10 OFFCURVE",
"64 -10 CURVE SMOOTH",
"71 -10 OFFCURVE",
"77 -8 OFFCURVE",
"81 -3 CURVE SMOOTH"
);
}
);
width = 126;
}
);
unicode = 0021;
},
{
glyphname = exclamdown;
layers = (
{
layerId = UUID0;
paths = (
{
closed = 1;
nodes = (
"72 548 LINE",
"74 551 OFFCURVE",
"75 554 OFFCURVE",
"75 557 CURVE SMOOTH",
"75 564 OFFCURVE",
"69 570 OFFCURVE",
"62 570 CURVE SMOOTH",
"55 570 OFFCURVE",
"49 564 OFFCURVE",
"49 557 CURVE SMOOTH",
"49 554 OFFCURVE",
"50 550 OFFCURVE",
"52 548 CURVE",
"52 11 LINE",
"50 9 OFFCURVE",
"49 6 OFFCURVE",
"49 3 CURVE SMOOTH",
"49 -4 OFFCURVE",
"55 -10 OFFCURVE",
"62 -10 CURVE SMOOTH",
"69 -10 OFFCURVE",
"75 -4 OFFCURVE",
"75 3 CURVE SMOOTH",
"75 6 OFFCURVE",
"74 9 OFFCURVE",
"72 11 CURVE"
);
},
{
closed = 1;
nodes = (
"83 676 OFFCURVE",
"85 682 OFFCURVE",
"85 688 CURVE SMOOTH",
"85 700 OFFCURVE",
"77 710 OFFCURVE",
"62 710 CURVE SMOOTH",
"48 710 OFFCURVE",
"40 700 OFFCURVE",
"40 688 CURVE SMOOTH",
"40 675 OFFCURVE",
"48 665 OFFCURVE",
"62 665 CURVE SMOOTH",
"69 665 OFFCURVE",
"75 667 OFFCURVE",
"79 671 CURVE SMOOTH"
);
}
);
width = 125;
}
);
unicode = 00A1;
},
{
glyphname = period;
layers = (
{
layerId = UUID0;
paths = (
{
closed = 1;
nodes = (
"68 1 OFFCURVE",
"70 6 OFFCURVE",
"70 12 CURVE SMOOTH",
"70 25 OFFCURVE",
"62 35 OFFCURVE",
"47 35 CURVE SMOOTH",
"33 35 OFFCURVE",
"25 25 OFFCURVE",
"25 12 CURVE SMOOTH",
"25 0 OFFCURVE",
"33 -10 OFFCURVE",
"47 -10 CURVE SMOOTH",
"54 -10 OFFCURVE",
"60 -8 OFFCURVE",
"64 -3 CURVE SMOOTH"
);
}
);
width = 95;
}
);
leftKerningGroup = comma;
rightKerningGroup = comma;
unicode = 002E;
},
{
glyphname = question;
layers = (
{
layerId = UUID0;
paths = (
{
closed = 1;
nodes = (
"142 329 LINE",
"142 363 OFFCURVE",
"155 395 OFFCURVE",
"180 418 CURVE SMOOTH",
"200 436 LINE SMOOTH",
"231 465 OFFCURVE",
"236 496 OFFCURVE",
"236 527 CURVE SMOOTH",
"236 596 LINE SMOOTH",
"236 653 OFFCURVE",
"211 710 OFFCURVE",
"132 710 CURVE SMOOTH",
"58 710 OFFCURVE",
"30 659 OFFCURVE",
"28 605 CURVE",
"26 603 OFFCURVE",
"25 600 OFFCURVE",
"25 596 CURVE SMOOTH",
"25 589 OFFCURVE",
"31 583 OFFCURVE",
"38 583 CURVE SMOOTH",
"45 583 OFFCURVE",
"51 589 OFFCURVE",
"51 596 CURVE SMOOTH",
"51 600 OFFCURVE",
"50 602 OFFCURVE",
"48 604 CURVE",
"49 647 OFFCURVE",
"72 690 OFFCURVE",
"132 690 CURVE SMOOTH",
"196 690 OFFCURVE",
"216 642 OFFCURVE",
"216 596 CURVE SMOOTH",
"216 527 LINE",
"214 494 OFFCURVE",
"209 468 OFFCURVE",
"186 448 CURVE SMOOTH",
"165 430 LINE",
"130 397 OFFCURVE",
"122 362 OFFCURVE",
"122 329 CURVE SMOOTH",
"122 151 LINE",
"120 149 OFFCURVE",
"119 146 OFFCURVE",
"119 143 CURVE SMOOTH",
"119 136 OFFCURVE",
"125 130 OFFCURVE",
"132 130 CURVE SMOOTH",
"139 130 OFFCURVE",
"145 136 OFFCURVE",
"145 143 CURVE SMOOTH",
"145 146 OFFCURVE",
"144 149 OFFCURVE",
"142 151 CURVE"
);
},
{
closed = 1;
nodes = (
"153 1 OFFCURVE",
"155 6 OFFCURVE",
"155 12 CURVE SMOOTH",
"155 25 OFFCURVE",
"147 35 OFFCURVE",
"132 35 CURVE SMOOTH",
"118 35 OFFCURVE",
"110 25 OFFCURVE",
"110 12 CURVE SMOOTH",
"110 0 OFFCURVE",
"118 -10 OFFCURVE",
"132 -10 CURVE SMOOTH",
"140 -10 OFFCURVE",
"146 -8 OFFCURVE",
"149 -3 CURVE SMOOTH"
);
}
);
width = 271;
}
);
unicode = 003F;
},
{
glyphname = quotesingle;
layers = (
{
layerId = UUID0;
paths = (
{
closed = 1;
nodes = (
"64 666 LINE",
"72 670 OFFCURVE",
"77 678 OFFCURVE",
"77 687 CURVE SMOOTH",
"77 700 OFFCURVE",
"69 710 OFFCURVE",
"54 710 CURVE SMOOTH",
"40 710 OFFCURVE",
"32 700 OFFCURVE",
"32 687 CURVE SMOOTH",
"32 678 OFFCURVE",
"36 670 OFFCURVE",
"44 667 CURVE",
"44 587 LINE",
"42 585 OFFCURVE",
"41 583 OFFCURVE",
"41 579 CURVE SMOOTH",
"41 572 OFFCURVE",
"47 566 OFFCURVE",
"54 566 CURVE SMOOTH",
"62 566 OFFCURVE",
"67 572 OFFCURVE",
"67 579 CURVE SMOOTH",
"67 583 OFFCURVE",
"66 585 OFFCURVE",
"64 587 CURVE"
);
}
);
width = 107;
}
);
leftKerningGroup = quotedbl;
unicode = 0027;
},
{
glyphname = semicolon;
layers = (
{
layerId = UUID0;
paths = (
{
closed = 1;
nodes = (
"60 -10 LINE",
"61 -10 LINE SMOOTH",
"76 -10 OFFCURVE",
"84 0 OFFCURVE",
"84 12 CURVE SMOOTH",
"84 25 OFFCURVE",
"76 35 OFFCURVE",
"61 35 CURVE SMOOTH",
"47 35 OFFCURVE",
"39 25 OFFCURVE",
"39 12 CURVE SMOOTH",
"39 6 OFFCURVE",
"41 1 OFFCURVE",
"43 -1 CURVE",
"15 -48 LINE",
"9 -50 OFFCURVE",
"6 -55 OFFCURVE",
"6 -61 CURVE SMOOTH",
"6 -68 OFFCURVE",
"12 -74 OFFCURVE",
"19 -74 CURVE SMOOTH",
"26 -74 OFFCURVE",
"32 -68 OFFCURVE",
"32 -61 CURVE"
);
},
{
closed = 1;
nodes = (
"82 386 OFFCURVE",
"84 391 OFFCURVE",
"84 397 CURVE SMOOTH",
"84 410 OFFCURVE",
"76 420 OFFCURVE",
"61 420 CURVE SMOOTH",
"47 420 OFFCURVE",
"39 410 OFFCURVE",
"39 397 CURVE SMOOTH",
"39 385 OFFCURVE",
"47 375 OFFCURVE",
"61 375 CURVE SMOOTH",
"68 375 OFFCURVE",
"74 377 OFFCURVE",
"78 381 CURVE SMOOTH"
);
}
);
width = 109;
}
);
unicode = 003B;
},
{
glyphname = slash;
layers = (
{
layerId = UUID0;
paths = (
{
closed = 1;
nodes = (
"249 685 LINE",
"254 687 OFFCURVE",
"257 691 OFFCURVE",
"257 697 CURVE SMOOTH",
"257 704 OFFCURVE",
"251 710 OFFCURVE",
"244 710 CURVE SMOOTH",
"237 710 OFFCURVE",
"231 704 OFFCURVE",
"231 697 CURVE SMOOTH",
"231 694 OFFCURVE",
"231 692 OFFCURVE",
"232 691 CURVE",
"30 -83 LINE",
"25 -85 OFFCURVE",
"23 -89 OFFCURVE",
"23 -95 CURVE SMOOTH",
"23 -103 OFFCURVE",
"29 -108 OFFCURVE",
"36 -108 CURVE SMOOTH",
"43 -108 OFFCURVE",
"49 -103 OFFCURVE",
"49 -95 CURVE SMOOTH",
"49 -94 OFFCURVE",
"48 -91 OFFCURVE",
"47 -89 CURVE"
);
}
);
width = 281;
}
);
unicode = 002F;
},
{
glyphname = braceleft;
layers = (
{
layerId = UUID0;
paths = (
{
closed = 1;
nodes = (
"113 246 LINE SMOOTH",
"113 290 OFFCURVE",
"98 332 OFFCURVE",
"55 350 CURVE",
"98 368 OFFCURVE",
"113 410 OFFCURVE",
"113 454 CURVE SMOOTH",
"113 661 LINE SMOOTH",
"113 707 OFFCURVE",
"132 756 OFFCURVE",
"188 760 CURVE",
"190 758 OFFCURVE",
"193 757 OFFCURVE",
"197 757 CURVE SMOOTH",
"204 757 OFFCURVE",
"210 763 OFFCURVE",
"210 770 CURVE SMOOTH",
"210 777 OFFCURVE",
"204 783 OFFCURVE",
"197 783 CURVE SMOOTH",
"193 783 OFFCURVE",
"190 781 OFFCURVE",
"188 779 CURVE",
"117 775 OFFCURVE",
"93 717 OFFCURVE",
"93 661 CURVE SMOOTH",
"93 454 LINE SMOOTH",
"93 409 OFFCURVE",
"72 360 OFFCURVE",
"1 360 CURVE",
"1 340 LINE",
"72 340 OFFCURVE",
"93 292 OFFCURVE",
"93 246 CURVE SMOOTH",
"93 39 LINE SMOOTH",
"93 -17 OFFCURVE",
"117 -75 OFFCURVE",
"188 -79 CURVE",
"190 -82 OFFCURVE",
"193 -83 OFFCURVE",
"197 -83 CURVE SMOOTH",
"204 -83 OFFCURVE",
"210 -77 OFFCURVE",
"210 -70 CURVE SMOOTH",
"210 -63 OFFCURVE",
"204 -57 OFFCURVE",
"197 -57 CURVE SMOOTH",
"193 -57 OFFCURVE",
"190 -58 OFFCURVE",
"188 -60 CURVE",
"132 -56 OFFCURVE",
"113 -6 OFFCURVE",
"113 39 CURVE SMOOTH"
);
}
);
width = 220;
}
);
unicode = 007B;
},
{
glyphname = bracketleft;
layers = (
{
layerId = UUID0;
paths = (
{
closed = 1;
nodes = (
"71 -60 LINE",
"71 760 LINE",
"148 760 LINE",
"151 758 OFFCURVE",
"154 757 OFFCURVE",
"157 757 CURVE SMOOTH",
"165 757 OFFCURVE",
"170 763 OFFCURVE",
"170 770 CURVE SMOOTH",
"170 777 OFFCURVE",
"165 783 OFFCURVE",
"157 783 CURVE SMOOTH",
"154 783 OFFCURVE",
"150 782 OFFCURVE",
"148 780 CURVE",
"50 780 LINE",
"50 -80 LINE",
"148 -80 LINE",
"151 -82 OFFCURVE",
"154 -83 OFFCURVE",
"157 -83 CURVE SMOOTH",
"165 -83 OFFCURVE",
"170 -77 OFFCURVE",
"170 -70 CURVE SMOOTH",
"170 -63 OFFCURVE",
"165 -57 OFFCURVE",
"157 -57 CURVE SMOOTH",
"154 -57 OFFCURVE",
"151 -58 OFFCURVE",
"148 -60 CURVE"
);
}
);
width = 181;
}
);
unicode = 005B;
},
{
glyphname = parenleft;
layers = (
{
layerId = UUID0;
paths = (
{
closed = 1;
nodes = (
"66 666 LINE SMOOTH",
"66 710 OFFCURVE",
"83 755 OFFCURVE",
"142 759 CURVE",
"145 757 OFFCURVE",
"147 757 OFFCURVE",
"150 757 CURVE SMOOTH",
"157 757 OFFCURVE",
"163 763 OFFCURVE",
"163 770 CURVE SMOOTH",
"163 777 OFFCURVE",
"157 783 OFFCURVE",
"150 783 CURVE SMOOTH",
"146 783 OFFCURVE",
"143 781 OFFCURVE",
"141 779 CURVE",
"69 775 OFFCURVE",
"46 721 OFFCURVE",
"46 666 CURVE SMOOTH",
"46 31 LINE SMOOTH",
"46 -23 OFFCURVE",
"68 -75 OFFCURVE",
"140 -79 CURVE",
"143 -83 OFFCURVE",
"146 -84 OFFCURVE",
"150 -84 CURVE SMOOTH",
"157 -84 OFFCURVE",
"163 -78 OFFCURVE",
"163 -71 CURVE SMOOTH",
"163 -63 OFFCURVE",
"157 -58 OFFCURVE",
"150 -58 CURVE SMOOTH",
"146 -58 OFFCURVE",
"145 -59 OFFCURVE",
"143 -60 CURVE",
"84 -58 OFFCURVE",
"66 -14 OFFCURVE",
"66 31 CURVE SMOOTH"
);
}
);
width = 173;
}
);
unicode = 0028;
},
{
glyphname = emdash;
layers = (
{
layerId = UUID0;
paths = (
{
closed = 1;
nodes = (
"43 301 LINE",
"41 303 OFFCURVE",
"39 304 OFFCURVE",
"35 304 CURVE SMOOTH",
"28 304 OFFCURVE",
"22 298 OFFCURVE",
"22 291 CURVE SMOOTH",
"22 284 OFFCURVE",
"28 278 OFFCURVE",
"35 278 CURVE SMOOTH",
"39 278 OFFCURVE",
"41 279 OFFCURVE",
"43 281 CURVE",
"367 281 LINE",
"370 279 OFFCURVE",
"373 278 OFFCURVE",
"376 278 CURVE SMOOTH",
"383 278 OFFCURVE",
"389 284 OFFCURVE",
"389 291 CURVE SMOOTH",
"389 298 OFFCURVE",
"383 304 OFFCURVE",
"376 304 CURVE SMOOTH",
"373 304 OFFCURVE",
"370 303 OFFCURVE",
"367 301 CURVE"
);
}
);
width = 412;
}
);
leftKerningGroup = hyphen;
rightKerningGroup = hyphen;
unicode = 2014;
},
{
glyphname = endash;
layers = (
{
layerId = UUID0;
paths = (
{
closed = 1;
nodes = (
"43 301 LINE",
"41 303 OFFCURVE",
"39 304 OFFCURVE",
"35 304 CURVE SMOOTH",
"28 304 OFFCURVE",
"22 298 OFFCURVE",
"22 291 CURVE SMOOTH",
"22 284 OFFCURVE",
"28 278 OFFCURVE",
"35 278 CURVE SMOOTH",
"39 278 OFFCURVE",
"41 279 OFFCURVE",
"43 281 CURVE",
"286 281 LINE",
"289 279 OFFCURVE",
"292 278 OFFCURVE",
"295 278 CURVE SMOOTH",
"302 278 OFFCURVE",
"308 284 OFFCURVE",
"308 291 CURVE SMOOTH",
"308 298 OFFCURVE",
"302 304 OFFCURVE",
"295 304 CURVE SMOOTH",
"292 304 OFFCURVE",
"289 303 OFFCURVE",
"286 301 CURVE"
);
}
);
width = 331;
}
);
leftKerningGroup = hyphen;
rightKerningGroup = hyphen;
unicode = 2013;
},
{
glyphname = hyphen;
layers = (
{
layerId = UUID0;
paths = (
{
closed = 1;
nodes = (
"46 301 LINE",
"44 303 OFFCURVE",
"42 304 OFFCURVE",
"38 304 CURVE SMOOTH",
"31 304 OFFCURVE",
"25 298 OFFCURVE",
"25 291 CURVE SMOOTH",
"25 284 OFFCURVE",
"31 278 OFFCURVE",
"38 278 CURVE SMOOTH",
"42 278 OFFCURVE",
"44 279 OFFCURVE",
"46 281 CURVE",
"254 281 LINE",
"257 279 OFFCURVE",
"260 278 OFFCURVE",
"263 278 CURVE SMOOTH",
"271 278 OFFCURVE",
"276 284 OFFCURVE",
"276 291 CURVE SMOOTH",
"276 298 OFFCURVE",
"271 304 OFFCURVE",
"263 304 CURVE SMOOTH",
"260 304 OFFCURVE",
"256 303 OFFCURVE",
"254 301 CURVE"
);
}
);
width = 302;
}
);
leftKerningGroup = hyphen;
rightKerningGroup = hyphen;
unicode = 002D;
},
{
glyphname = uni00AD;
layers = (
{
layerId = UUID0;
paths = (
{
closed = 1;
nodes = (
"46 301 LINE",
"44 303 OFFCURVE",
"42 304 OFFCURVE",
"38 304 CURVE SMOOTH",
"31 304 OFFCURVE",
"25 298 OFFCURVE",
"25 291 CURVE SMOOTH",
"25 284 OFFCURVE",
"31 278 OFFCURVE",
"38 278 CURVE SMOOTH",
"42 278 OFFCURVE",
"44 279 OFFCURVE",
"46 281 CURVE",
"254 281 LINE",
"257 279 OFFCURVE",
"260 278 OFFCURVE",
"263 278 CURVE SMOOTH",
"271 278 OFFCURVE",
"276 284 OFFCURVE",
"276 291 CURVE SMOOTH",
"276 298 OFFCURVE",
"271 304 OFFCURVE",
"263 304 CURVE SMOOTH",
"260 304 OFFCURVE",
"256 303 OFFCURVE",
"254 301 CURVE"
);
}
);
width = 302;
}
);
leftKerningGroup = hyphen;
rightKerningGroup = hyphen;
unicode = 00AD;
},
{
glyphname = guilsinglleft;
layers = (
{
layerId = UUID0;
paths = (
{
closed = 1;
nodes = (
"48 245 LINE",
"213 409 LINE",
"220 409 OFFCURVE",
"226 415 OFFCURVE",
"226 422 CURVE SMOOTH",
"226 429 OFFCURVE",
"220 435 OFFCURVE",
"213 435 CURVE SMOOTH",
"206 435 OFFCURVE",
"200 429 OFFCURVE",
"200 423 CURVE",
"34 258 LINE",
"27 256 OFFCURVE",
"22 251 OFFCURVE",
"22 245 CURVE SMOOTH",
"22 238 OFFCURVE",
"28 232 OFFCURVE",
"35 232 CURVE",
"200 68 LINE",
"200 61 OFFCURVE",
"206 55 OFFCURVE",
"213 55 CURVE SMOOTH",
"220 55 OFFCURVE",
"226 61 OFFCURVE",
"226 68 CURVE SMOOTH",
"226 74 OFFCURVE",
"220 80 OFFCURVE",
"214 81 CURVE"
);
}
);
width = 266;
}
);
leftKerningGroup = guillemotleft;
rightKerningGroup = guillemotleft;
unicode = 2039;
},
{
glyphname = .notdef;
layers = (
{
layerId = UUID0;
paths = (
{
closed = 1;
nodes = (
"248 500 LINE",
"145 500 LINE SMOOTH",
"64 500 OFFCURVE",
"40 443 OFFCURVE",
"40 386 CURVE SMOOTH",
"40 0 LINE",
"143 0 LINE SMOOTH",
"224 0 OFFCURVE",
"248 57 OFFCURVE",
"248 114 CURVE SMOOTH"
);
},
{
closed = 1;
nodes = (
"60 20 LINE",
"60 386 LINE SMOOTH",
"60 432 OFFCURVE",
"79 480 OFFCURVE",
"145 480 CURVE SMOOTH",
"228 480 LINE",
"228 114 LINE SMOOTH",
"228 68 OFFCURVE",
"209 20 OFFCURVE",
"143 20 CURVE SMOOTH"
);
}
);
width = 288;
}
);
},
{
glyphname = Euro;
layers = (
{
layerId = UUID0;
paths = (
{
closed = 1;
nodes = (
"116 410 LINE",
"116 480 LINE",
"244 480 LINE",
"247 478 OFFCURVE",
"250 477 OFFCURVE",
"253 477 CURVE SMOOTH",
"260 477 OFFCURVE",
"266 483 OFFCURVE",
"266 490 CURVE SMOOTH",
"266 498 OFFCURVE",
"260 503 OFFCURVE",
"253 503 CURVE SMOOTH",
"250 503 OFFCURVE",
"247 502 OFFCURVE",
"244 500 CURVE",
"116 500 LINE",
"116 596 LINE SMOOTH",
"116 642 OFFCURVE",
"136 690 OFFCURVE",
"200 690 CURVE SMOOTH",
"261 690 OFFCURVE",
"282 647 OFFCURVE",
"284 604 CURVE",
"282 602 OFFCURVE",
"281 600 OFFCURVE",
"281 596 CURVE SMOOTH",
"281 589 OFFCURVE",
"287 583 OFFCURVE",
"294 583 CURVE SMOOTH",
"301 583 OFFCURVE",
"307 589 OFFCURVE",
"307 596 CURVE SMOOTH",
"307 600 OFFCURVE",
"306 603 OFFCURVE",
"304 605 CURVE",
"302 659 OFFCURVE",
"274 710 OFFCURVE",
"200 710 CURVE SMOOTH",
"121 710 OFFCURVE",
"96 653 OFFCURVE",
"96 596 CURVE SMOOTH",
"96 500 LINE",
"49 500 LINE",
"47 502 OFFCURVE",
"44 503 OFFCURVE",
"41 503 CURVE SMOOTH",
"34 503 OFFCURVE",
"28 498 OFFCURVE",
"28 490 CURVE SMOOTH",
"28 483 OFFCURVE",
"34 477 OFFCURVE",
"41 477 CURVE SMOOTH",
"44 477 OFFCURVE",
"47 478 OFFCURVE",
"49 480 CURVE",
"96 480 LINE",
"96 410 LINE",
"49 410 LINE",
"47 412 OFFCURVE",
"44 413 OFFCURVE",
"41 413 CURVE SMOOTH",
"34 413 OFFCURVE",
"28 407 OFFCURVE",
"28 400 CURVE SMOOTH",
"28 393 OFFCURVE",
"34 387 OFFCURVE",
"41 387 CURVE SMOOTH",
"44 387 OFFCURVE",
"47 388 OFFCURVE",
"49 390 CURVE",
"96 390 LINE",
"96 101 LINE SMOOTH",
"96 44 OFFCURVE",
"121 -10 OFFCURVE",
"200 -10 CURVE SMOOTH",
"274 -10 OFFCURVE",
"302 38 OFFCURVE",
"304 92 CURVE",
"306 94 OFFCURVE",
"307 98 OFFCURVE",
"307 101 CURVE SMOOTH",
"307 108 OFFCURVE",
"301 114 OFFCURVE",
"294 114 CURVE SMOOTH",
"287 114 OFFCURVE",
"281 108 OFFCURVE",
"281 101 CURVE SMOOTH",
"281 98 OFFCURVE",
"282 94 OFFCURVE",
"284 92 CURVE",
"282 47 OFFCURVE",
"261 10 OFFCURVE",
"200 10 CURVE SMOOTH",
"136 10 OFFCURVE",
"116 54 OFFCURVE",
"116 101 CURVE SMOOTH",
"116 390 LINE",
"244 390 LINE",
"247 388 OFFCURVE",
"250 387 OFFCURVE",
"253 387 CURVE SMOOTH",
"260 387 OFFCURVE",
"266 393 OFFCURVE",
"266 400 CURVE SMOOTH",
"266 407 OFFCURVE",
"260 413 OFFCURVE",
"253 413 CURVE SMOOTH",
"250 413 OFFCURVE",
"247 412 OFFCURVE",
"244 410 CURVE"
);
}
);
width = 343;
}
);
unicode = 20AC;
},
{
glyphname = cent;
layers = (
{
layerId = UUID0;
paths = (
{
closed = 1;
nodes = (
"62 395 LINE SMOOTH",
"62 440 OFFCURVE",
"82 490 OFFCURVE",
"145 490 CURVE SMOOTH",
"206 490 OFFCURVE",
"227 447 OFFCURVE",
"229 404 CURVE",
"227 402 OFFCURVE",
"226 399 OFFCURVE",
"226 396 CURVE SMOOTH",
"226 389 OFFCURVE",
"231 384 OFFCURVE",
"239 384 CURVE SMOOTH",
"246 384 OFFCURVE",
"252 389 OFFCURVE",
"252 396 CURVE SMOOTH",
"252 399 OFFCURVE",
"251 403 OFFCURVE",
"249 405 CURVE",
"246 446 OFFCURVE",
"231 483 OFFCURVE",
"192 501 CURVE SMOOTH",
"182 505 OFFCURVE",
"170 508 OFFCURVE",
"156 509 CURVE",
"156 561 LINE",
"158 563 OFFCURVE",
"159 566 OFFCURVE",
"159 570 CURVE SMOOTH",
"159 577 OFFCURVE",
"153 583 OFFCURVE",
"146 583 CURVE SMOOTH",
"139 583 OFFCURVE",
"133 577 OFFCURVE",
"133 570 CURVE SMOOTH",
"133 566 OFFCURVE",
"134 563 OFFCURVE",
"136 561 CURVE",
"136 509 LINE",
"121 509 OFFCURVE",
"107 505 OFFCURVE",
"96 500 CURVE SMOOTH",
"56 480 OFFCURVE",
"42 438 OFFCURVE",
"42 395 CURVE SMOOTH",
"42 105 LINE SMOOTH",
"42 61 OFFCURVE",
"56 21 OFFCURVE",
"96 0 CURVE SMOOTH",
"107 -5 OFFCURVE",
"121 -9 OFFCURVE",
"136 -9 CURVE",
"136 -62 LINE",
"134 -64 OFFCURVE",
"133 -67 OFFCURVE",
"133 -71 CURVE SMOOTH",
"133 -78 OFFCURVE",
"139 -84 OFFCURVE",
"146 -84 CURVE SMOOTH",
"153 -84 OFFCURVE",
"159 -78 OFFCURVE",
"159 -71 CURVE SMOOTH",
"159 -67 OFFCURVE",
"158 -64 OFFCURVE",
"156 -62 CURVE",
"156 -9 LINE",
"170 -8 OFFCURVE",
"182 -5 OFFCURVE",
"192 -1 CURVE SMOOTH",
"231 17 OFFCURVE",
"246 54 OFFCURVE",
"249 95 CURVE",
"251 97 OFFCURVE",
"252 101 OFFCURVE",
"252 104 CURVE SMOOTH",
"252 110 OFFCURVE",
"246 116 OFFCURVE",
"239 116 CURVE SMOOTH",
"231 116 OFFCURVE",
"226 110 OFFCURVE",
"226 104 CURVE SMOOTH",
"226 101 OFFCURVE",
"227 97 OFFCURVE",
"229 95 CURVE",
"227 51 OFFCURVE",
"206 10 OFFCURVE",
"145 10 CURVE SMOOTH",
"82 10 OFFCURVE",
"62 58 OFFCURVE",
"62 105 CURVE SMOOTH"
);
}
);
width = 284;
}
);
unicode = 00A2;
},
{
glyphname = currency;
layers = (
{
layerId = UUID0;
paths = (
{
closed = 1;
nodes = (
"236 302 LINE",
"236 425 LINE",
"296 484 LINE",
"303 484 OFFCURVE",
"309 490 OFFCURVE",
"309 497 CURVE SMOOTH",
"309 504 OFFCURVE",
"303 510 OFFCURVE",
"296 510 CURVE SMOOTH",
"289 510 OFFCURVE",
"283 504 OFFCURVE",
"283 498 CURVE",
"236 452 LINE",
"233 484 OFFCURVE",
"217 517 OFFCURVE",
"172 517 CURVE SMOOTH",
"126 517 OFFCURVE",
"108 484 OFFCURVE",
"107 452 CURVE",
"60 498 LINE",
"59 504 OFFCURVE",
"53 510 OFFCURVE",
"47 510 CURVE SMOOTH",
"40 510 OFFCURVE",
"34 504 OFFCURVE",
"34 497 CURVE SMOOTH",
"34 490 OFFCURVE",
"40 484 OFFCURVE",
"47 484 CURVE",
"107 425 LINE",
"107 302 LINE",
"47 243 LINE",
"40 243 OFFCURVE",
"34 237 OFFCURVE",
"34 230 CURVE SMOOTH",
"34 223 OFFCURVE",
"40 217 OFFCURVE",
"47 217 CURVE SMOOTH",
"53 217 OFFCURVE",
"59 222 OFFCURVE",
"60 229 CURVE",
"107 275 LINE",
"108 242 OFFCURVE",
"126 210 OFFCURVE",
"172 210 CURVE SMOOTH",
"217 210 OFFCURVE",
"233 242 OFFCURVE",
"236 275 CURVE",
"283 229 LINE",
"283 222 OFFCURVE",
"289 217 OFFCURVE",
"296 217 CURVE SMOOTH",
"303 217 OFFCURVE",
"309 223 OFFCURVE",
"309 230 CURVE SMOOTH",
"309 237 OFFCURVE",
"303 243 OFFCURVE",
"296 243 CURVE"
);
},
{
closed = 1;
nodes = (
"127 447 LINE",
"127 472 OFFCURVE",
"138 497 OFFCURVE",
"172 497 CURVE SMOOTH",
"206 497 OFFCURVE",
"216 472 OFFCURVE",
"216 447 CURVE SMOOTH",
"216 280 LINE SMOOTH",
"216 256 OFFCURVE",
"206 230 OFFCURVE",
"172 230 CURVE SMOOTH",
"138 230 OFFCURVE",
"127 256 OFFCURVE",
"127 280 CURVE SMOOTH"
);
}
);
width = 343;
}
);
unicode = 00A4;
},
{
glyphname = dollar;
layers = (
{
layerId = UUID0;
paths = (
{
closed = 1;
nodes = (
"247 226 LINE SMOOTH",
"247 259 OFFCURVE",
"238 294 OFFCURVE",
"203 327 CURVE",
"85 431 LINE SMOOTH",
"63 451 OFFCURVE",
"56 477 OFFCURVE",
"54 510 CURVE",
"54 596 LINE SMOOTH",
"54 642 OFFCURVE",
"75 690 OFFCURVE",
"139 690 CURVE SMOOTH",
"200 690 OFFCURVE",
"221 647 OFFCURVE",
"223 604 CURVE",
"221 602 OFFCURVE",
"220 600 OFFCURVE",
"220 596 CURVE SMOOTH",
"220 589 OFFCURVE",
"226 583 OFFCURVE",
"233 583 CURVE SMOOTH",
"241 583 OFFCURVE",
"246 589 OFFCURVE",
"246 596 CURVE SMOOTH",
"246 600 OFFCURVE",
"245 603 OFFCURVE",
"243 605 CURVE",
"241 646 OFFCURVE",
"225 684 OFFCURVE",
"186 701 CURVE SMOOTH",
"176 706 OFFCURVE",
"164 708 OFFCURVE",
"149 709 CURVE",
"149 761 LINE",
"151 764 OFFCURVE",
"152 767 OFFCURVE",
"152 770 CURVE SMOOTH",
"152 777 OFFCURVE",
"147 783 OFFCURVE",
"140 783 CURVE SMOOTH",
"132 783 OFFCURVE",
"126 777 OFFCURVE",
"126 770 CURVE SMOOTH",
"126 767 OFFCURVE",
"127 764 OFFCURVE",
"129 761 CURVE",
"129 709 LINE",
"114 708 OFFCURVE",
"101 706 OFFCURVE",
"89 700 CURVE SMOOTH",
"49 681 OFFCURVE",
"34 639 OFFCURVE",
"34 596 CURVE SMOOTH",
"34 510 LINE SMOOTH",
"34 479 OFFCURVE",
"39 448 OFFCURVE",
"71 419 CURVE SMOOTH",
"188 315 LINE",
"213 292 OFFCURVE",
"227 260 OFFCURVE",
"227 226 CURVE SMOOTH",
"227 101 LINE SMOOTH",
"227 54 OFFCURVE",
"206 10 OFFCURVE",
"142 10 CURVE SMOOTH",
"83 10 OFFCURVE",
"60 47 OFFCURVE",
"58 92 CURVE",
"60 94 OFFCURVE",
"61 98 OFFCURVE",
"61 101 CURVE SMOOTH",
"61 108 OFFCURVE",
"56 114 OFFCURVE",
"48 114 CURVE SMOOTH",
"41 114 OFFCURVE",
"35 108 OFFCURVE",
"35 101 CURVE SMOOTH",
"35 98 OFFCURVE",
"36 94 OFFCURVE",
"38 92 CURVE",
"41 51 OFFCURVE",
"56 16 OFFCURVE",
"95 -1 CURVE SMOOTH",
"105 -6 OFFCURVE",
"116 -8 OFFCURVE",
"129 -9 CURVE",
"129 -62 LINE",
"127 -65 OFFCURVE",
"126 -68 OFFCURVE",
"126 -71 CURVE SMOOTH",
"126 -78 OFFCURVE",
"132 -84 OFFCURVE",
"140 -84 CURVE SMOOTH",
"147 -84 OFFCURVE",
"152 -78 OFFCURVE",
"152 -71 CURVE SMOOTH",
"152 -68 OFFCURVE",
"151 -65 OFFCURVE",
"149 -62 CURVE",
"149 -10 LINE",
"166 -9 OFFCURVE",
"180 -6 OFFCURVE",
"192 0 CURVE SMOOTH",
"232 18 OFFCURVE",
"247 57 OFFCURVE",
"247 101 CURVE SMOOTH"
);
}
);
width = 283;
}
);
unicode = 0024;
},
{
glyphname = sterling;
layers = (
{
layerId = UUID0;
paths = (
{
closed = 1;
nodes = (
"112 20 LINE",
"112 480 LINE",
"255 480 LINE",
"258 478 OFFCURVE",
"261 477 OFFCURVE",
"264 477 CURVE SMOOTH",
"271 477 OFFCURVE",
"277 483 OFFCURVE",
"277 490 CURVE SMOOTH",
"277 498 OFFCURVE",
"271 503 OFFCURVE",
"264 503 CURVE SMOOTH",
"261 503 OFFCURVE",
"258 502 OFFCURVE",
"255 500 CURVE",
"112 500 LINE",
"112 587 LINE SMOOTH",
"112 633 OFFCURVE",
"130 680 OFFCURVE",
"197 680 CURVE SMOOTH",
"284 680 LINE",
"288 678 OFFCURVE",
"291 677 OFFCURVE",
"293 677 CURVE SMOOTH",
"300 677 OFFCURVE",
"306 683 OFFCURVE",
"306 690 CURVE SMOOTH",
"306 697 OFFCURVE",
"300 703 OFFCURVE",
"293 703 CURVE SMOOTH",
"290 703 OFFCURVE",
"287 702 OFFCURVE",
"284 700 CURVE",
"197 700 LINE SMOOTH",
"116 700 OFFCURVE",
"92 644 OFFCURVE",
"92 587 CURVE SMOOTH",
"92 500 LINE",
"45 500 LINE",
"43 502 OFFCURVE",
"41 503 OFFCURVE",
"37 503 CURVE SMOOTH",
"30 503 OFFCURVE",
"24 498 OFFCURVE",
"24 490 CURVE SMOOTH",
"24 483 OFFCURVE",
"30 477 OFFCURVE",
"37 477 CURVE SMOOTH",
"41 477 OFFCURVE",
"43 478 OFFCURVE",
"45 480 CURVE",
"92 480 LINE",
"92 0 LINE",
"285 0 LINE",
"288 -2 OFFCURVE",
"291 -3 OFFCURVE",
"294 -3 CURVE SMOOTH",
"301 -3 OFFCURVE",
"307 2 OFFCURVE",
"307 10 CURVE SMOOTH",
"307 17 OFFCURVE",
"301 23 OFFCURVE",
"294 23 CURVE SMOOTH",
"291 23 OFFCURVE",
"288 22 OFFCURVE",
"285 20 CURVE"
);
}
);
width = 343;
}
);
unicode = 00A3;
},
{
glyphname = yen;
layers = (
{
layerId = UUID0;
paths = (
{
closed = 1;
nodes = (
"160 390 LINE",
"247 390 LINE",
"250 388 OFFCURVE",
"253 387 OFFCURVE",
"256 387 CURVE SMOOTH",
"263 387 OFFCURVE",
"269 393 OFFCURVE",
"269 400 CURVE SMOOTH",
"269 407 OFFCURVE",
"263 413 OFFCURVE",
"256 413 CURVE SMOOTH",
"253 413 OFFCURVE",
"250 412 OFFCURVE",
"247 410 CURVE",
"160 410 LINE",
"160 480 LINE",
"247 480 LINE",
"250 478 OFFCURVE",
"253 477 OFFCURVE",
"256 477 CURVE SMOOTH",
"263 477 OFFCURVE",
"269 483 OFFCURVE",
"269 490 CURVE SMOOTH",
"269 498 OFFCURVE",
"263 503 OFFCURVE",
"256 503 CURVE SMOOTH",
"253 503 OFFCURVE",
"250 502 OFFCURVE",
"247 500 CURVE",
"160 500 LINE",
"261 685 LINE",
"265 687 OFFCURVE",
"269 691 OFFCURVE",
"269 697 CURVE SMOOTH",
"269 704 OFFCURVE",
"263 710 OFFCURVE",
"256 710 CURVE SMOOTH",
"249 710 OFFCURVE",
"243 704 OFFCURVE",
"243 697 CURVE SMOOTH",
"243 692 LINE",
"151 524 LINE",
"148 524 LINE",
"56 692 LINE",
"57 693 OFFCURVE",
"57 695 OFFCURVE",
"57 697 CURVE SMOOTH",
"57 704 OFFCURVE",
"51 710 OFFCURVE",
"44 710 CURVE SMOOTH",
"37 710 OFFCURVE",
"31 704 OFFCURVE",
"31 697 CURVE SMOOTH",
"31 691 OFFCURVE",
"34 688 OFFCURVE",
"39 685 CURVE",
"140 500 LINE",
"52 500 LINE",
"50 502 OFFCURVE",
"47 503 OFFCURVE",
"44 503 CURVE SMOOTH",
"37 503 OFFCURVE",
"31 498 OFFCURVE",
"31 490 CURVE SMOOTH",
"31 483 OFFCURVE",
"37 477 OFFCURVE",
"44 477 CURVE SMOOTH",
"47 477 OFFCURVE",
"50 478 OFFCURVE",
"52 480 CURVE",
"140 480 LINE",
"140 410 LINE",
"52 410 LINE",
"50 412 OFFCURVE",
"47 413 OFFCURVE",
"44 413 CURVE SMOOTH",
"37 413 OFFCURVE",
"31 407 OFFCURVE",
"31 400 CURVE SMOOTH",
"31 393 OFFCURVE",
"37 387 OFFCURVE",
"44 387 CURVE SMOOTH",
"47 387 OFFCURVE",
"50 388 OFFCURVE",
"52 390 CURVE",
"140 390 LINE",
"140 11 LINE",
"138 9 OFFCURVE",
"137 6 OFFCURVE",
"137 3 CURVE SMOOTH",
"137 -4 OFFCURVE",
"143 -10 OFFCURVE",
"150 -10 CURVE SMOOTH",
"157 -10 OFFCURVE",
"163 -4 OFFCURVE",
"163 3 CURVE SMOOTH",
"163 6 OFFCURVE",
"162 9 OFFCURVE",
"160 11 CURVE"
);
}
);
width = 300;
}
);
unicode = 00A5;
},
{
glyphname = plus;
layers = (
{
layerId = UUID0;
paths = (
{
closed = 1;
nodes = (
"180 279 LINE",
"180 390 LINE",
"182 393 OFFCURVE",
"183 396 OFFCURVE",
"183 399 CURVE SMOOTH",
"183 406 OFFCURVE",
"177 412 OFFCURVE",
"170 412 CURVE SMOOTH",
"163 412 OFFCURVE",
"157 406 OFFCURVE",
"157 399 CURVE SMOOTH",
"157 396 OFFCURVE",
"158 393 OFFCURVE",
"160 390 CURVE",
"160 279 LINE",
"47 279 LINE",
"45 281 OFFCURVE",
"42 282 OFFCURVE",
"39 282 CURVE SMOOTH",
"32 282 OFFCURVE",
"26 276 OFFCURVE",
"26 269 CURVE SMOOTH",
"26 262 OFFCURVE",
"32 256 OFFCURVE",
"39 256 CURVE SMOOTH",
"42 256 OFFCURVE",
"45 257 OFFCURVE",
"47 259 CURVE",
"160 259 LINE",
"160 147 LINE",
"158 145 OFFCURVE",
"157 143 OFFCURVE",
"157 139 CURVE SMOOTH",
"157 132 OFFCURVE",
"163 126 OFFCURVE",
"170 126 CURVE SMOOTH",
"177 126 OFFCURVE",
"183 132 OFFCURVE",
"183 139 CURVE SMOOTH",
"183 143 OFFCURVE",
"182 145 OFFCURVE",
"180 147 CURVE",
"180 259 LINE",
"290 259 LINE",
"293 257 OFFCURVE",
"296 256 OFFCURVE",
"299 256 CURVE SMOOTH",
"306 256 OFFCURVE",
"312 262 OFFCURVE",
"312 269 CURVE SMOOTH",
"312 276 OFFCURVE",
"306 282 OFFCURVE",
"299 282 CURVE SMOOTH",
"295 282 OFFCURVE",
"292 281 OFFCURVE",
"290 279 CURVE"
);
}
);
width = 339;
}
);
unicode = 002B;
},
{
glyphname = multiply;
layers = (
{
layerId = UUID0;
paths = (
{
closed = 1;
nodes = (
"152 269 LINE",
"230 347 LINE",
"233 347 OFFCURVE",
"236 349 OFFCURVE",
"239 351 CURVE SMOOTH",
"245 356 OFFCURVE",
"245 365 OFFCURVE",
"239 370 CURVE SMOOTH",
"234 375 OFFCURVE",
"227 375 OFFCURVE",
"221 370 CURVE SMOOTH",
"219 368 OFFCURVE",
"218 365 OFFCURVE",
"217 362 CURVE",
"138 283 LINE",
"59 361 LINE",
"59 364 OFFCURVE",
"58 367 OFFCURVE",
"56 369 CURVE SMOOTH",
"51 375 OFFCURVE",
"43 375 OFFCURVE",
"38 369 CURVE SMOOTH",
"33 364 OFFCURVE",
"33 356 OFFCURVE",
"38 351 CURVE SMOOTH",
"40 349 OFFCURVE",
"43 349 OFFCURVE",
"45 347 CURVE SMOOTH",
"124 269 LINE",
"44 189 LINE",
"42 189 OFFCURVE",
"39 188 OFFCURVE",
"37 186 CURVE SMOOTH",
"32 181 OFFCURVE",
"32 173 OFFCURVE",
"37 168 CURVE SMOOTH",
"42 163 OFFCURVE",
"51 163 OFFCURVE",
"56 168 CURVE SMOOTH",
"58 170 OFFCURVE",
"59 172 OFFCURVE",
"59 176 CURVE",
"138 255 LINE",
"218 174 LINE SMOOTH",
"220 172 OFFCURVE",
"220 169 OFFCURVE",
"222 167 CURVE SMOOTH",
"228 162 OFFCURVE",
"235 162 OFFCURVE",
"240 167 CURVE SMOOTH",
"246 172 OFFCURVE",
"246 180 OFFCURVE",
"240 185 CURVE SMOOTH",
"238 187 OFFCURVE",
"235 188 OFFCURVE",
"232 188 CURVE"
);
}
);
width = 288;
}
);
unicode = 00D7;
},
{
glyphname = less;
layers = (
{
layerId = UUID0;
paths = (
{
closed = 1;
nodes = (
"55 367 LINE",
"320 510 LINE",
"324 510 LINE SMOOTH",
"332 510 OFFCURVE",
"337 516 OFFCURVE",
"337 523 CURVE SMOOTH",
"337 530 OFFCURVE",
"332 536 OFFCURVE",
"324 536 CURVE SMOOTH",
"317 536 OFFCURVE",
"313 533 OFFCURVE",
"311 526 CURVE",
"40 379 LINE",
"40 379 OFFCURVE",
"39 380 OFFCURVE",
"37 380 CURVE SMOOTH",
"30 380 OFFCURVE",
"24 375 OFFCURVE",
"24 367 CURVE SMOOTH",
"24 360 OFFCURVE",
"30 354 OFFCURVE",
"37 354 CURVE SMOOTH",
"40 354 LINE",
"311 207 LINE",
"313 202 OFFCURVE",
"318 198 OFFCURVE",
"324 198 CURVE SMOOTH",
"332 198 OFFCURVE",
"337 204 OFFCURVE",
"337 211 CURVE SMOOTH",
"337 218 OFFCURVE",
"332 224 OFFCURVE",
"324 224 CURVE SMOOTH",
"322 224 OFFCURVE",
"320 224 OFFCURVE",
"320 223 CURVE"
);
}
);
width = 373;
}
);
unicode = 003C;
},
{
glyphname = plusminus;
layers = (
{
layerId = UUID0;
paths = (
{
closed = 1;
nodes = (
"190 279 LINE",
"190 389 LINE",
"192 392 OFFCURVE",
"193 395 OFFCURVE",
"193 398 CURVE SMOOTH",
"193 405 OFFCURVE",
"188 411 OFFCURVE",
"180 411 CURVE SMOOTH",
"173 411 OFFCURVE",
"167 405 OFFCURVE",
"167 398 CURVE SMOOTH",
"167 395 OFFCURVE",
"168 392 OFFCURVE",
"170 389 CURVE",
"170 279 LINE",
"58 279 LINE",
"56 281 OFFCURVE",
"54 282 OFFCURVE",
"50 282 CURVE SMOOTH",
"43 282 OFFCURVE",
"37 276 OFFCURVE",
"37 269 CURVE SMOOTH",
"37 262 OFFCURVE",
"43 256 OFFCURVE",
"50 256 CURVE SMOOTH",
"54 256 OFFCURVE",
"56 257 OFFCURVE",
"58 259 CURVE",
"170 259 LINE",
"170 196 LINE",
"168 194 OFFCURVE",
"167 191 OFFCURVE",
"167 188 CURVE SMOOTH",
"167 181 OFFCURVE",
"173 175 OFFCURVE",
"180 175 CURVE SMOOTH",
"188 175 OFFCURVE",
"193 181 OFFCURVE",
"193 188 CURVE SMOOTH",
"193 191 OFFCURVE",
"192 194 OFFCURVE",
"190 196 CURVE",
"190 259 LINE",
"301 259 LINE",
"304 257 OFFCURVE",
"307 256 OFFCURVE",
"310 256 CURVE SMOOTH",
"317 256 OFFCURVE",
"323 262 OFFCURVE",
"323 269 CURVE SMOOTH",
"323 276 OFFCURVE",
"317 282 OFFCURVE",
"310 282 CURVE SMOOTH",
"307 282 OFFCURVE",
"304 281 OFFCURVE",
"301 279 CURVE"
);
},
{
closed = 1;
nodes = (
"58 149 LINE",
"56 151 OFFCURVE",
"54 152 OFFCURVE",
"50 152 CURVE SMOOTH",
"43 152 OFFCURVE",
"37 146 OFFCURVE",
"37 139 CURVE SMOOTH",
"37 132 OFFCURVE",
"43 126 OFFCURVE",
"50 126 CURVE SMOOTH",
"54 126 OFFCURVE",
"56 127 OFFCURVE",
"58 129 CURVE",
"301 129 LINE",
"304 127 OFFCURVE",
"307 126 OFFCURVE",
"310 126 CURVE SMOOTH",
"317 126 OFFCURVE",
"323 132 OFFCURVE",
"323 139 CURVE SMOOTH",
"323 146 OFFCURVE",
"317 152 OFFCURVE",
"310 152 CURVE SMOOTH",
"307 152 OFFCURVE",
"304 151 OFFCURVE",
"301 149 CURVE"
);
}
);
width = 360;
}
);
unicode = 00B1;
},
{
glyphname = logicalnot;
layers = (
{
layerId = UUID0;
paths = (
{
closed = 1;
nodes = (
"285 362 LINE",
"287 364 OFFCURVE",
"287 367 OFFCURVE",
"287 369 CURVE SMOOTH",
"287 376 OFFCURVE",
"281 382 OFFCURVE",
"274 382 CURVE SMOOTH",
"271 382 OFFCURVE",
"268 381 OFFCURVE",
"265 379 CURVE",
"57 379 LINE",
"55 381 OFFCURVE",
"52 382 OFFCURVE",
"49 382 CURVE SMOOTH",
"42 382 OFFCURVE",
"36 376 OFFCURVE",
"36 369 CURVE SMOOTH",
"36 362 OFFCURVE",
"42 356 OFFCURVE",
"49 356 CURVE SMOOTH",
"52 356 OFFCURVE",
"55 357 OFFCURVE",
"57 359 CURVE",
"265 359 LINE",
"265 249 LINE",
"263 247 OFFCURVE",
"262 245 OFFCURVE",
"262 241 CURVE SMOOTH",
"262 234 OFFCURVE",
"268 228 OFFCURVE",
"275 228 CURVE SMOOTH",
"282 228 OFFCURVE",
"288 234 OFFCURVE",
"288 241 CURVE SMOOTH",
"288 245 OFFCURVE",
"287 247 OFFCURVE",
"285 249 CURVE"
);
}
);
width = 330;
}
);
unicode = 00AC;
},
{
glyphname = mu;
layers = (
{
layerId = UUID0;
paths = (
{
closed = 1;
nodes = (
"253 488 LINE",
"255 491 OFFCURVE",
"256 494 OFFCURVE",
"256 497 CURVE SMOOTH",
"256 504 OFFCURVE",
"250 510 OFFCURVE",
"243 510 CURVE SMOOTH",
"236 510 OFFCURVE",
"230 504 OFFCURVE",
"230 497 CURVE SMOOTH",
"230 494 OFFCURVE",
"231 491 OFFCURVE",
"233 488 CURVE",
"233 105 LINE SMOOTH",
"233 59 OFFCURVE",
"206 10 OFFCURVE",
"150 10 CURVE SMOOTH",
"88 10 OFFCURVE",
"68 54 OFFCURVE",
"67 98 CURVE",
"67 488 LINE",
"69 491 OFFCURVE",
"70 494 OFFCURVE",
"70 497 CURVE SMOOTH",
"70 504 OFFCURVE",
"64 510 OFFCURVE",
"57 510 CURVE SMOOTH",
"50 510 OFFCURVE",
"44 504 OFFCURVE",
"44 497 CURVE SMOOTH",
"44 494 OFFCURVE",
"45 491 OFFCURVE",
"47 488 CURVE",
"47 -92 LINE SMOOTH",
"47 -146 OFFCURVE",
"71 -205 OFFCURVE",
"145 -207 CURVE",
"148 -209 OFFCURVE",
"151 -210 OFFCURVE",
"154 -210 CURVE SMOOTH",
"161 -210 OFFCURVE",
"167 -204 OFFCURVE",
"167 -197 CURVE SMOOTH",
"167 -189 OFFCURVE",
"161 -184 OFFCURVE",
"154 -184 CURVE SMOOTH",
"151 -184 OFFCURVE",
"148 -185 OFFCURVE",
"145 -187 CURVE",
"86 -185 OFFCURVE",
"68 -137 OFFCURVE",
"67 -92 CURVE",
"67 29 LINE",
"82 6 OFFCURVE",
"109 -10 OFFCURVE",
"150 -10 CURVE SMOOTH",
"190 -10 OFFCURVE",
"215 7 OFFCURVE",
"233 32 CURVE",
"233 11 LINE",
"231 9 OFFCURVE",
"230 6 OFFCURVE",
"230 3 CURVE SMOOTH",
"230 -4 OFFCURVE",
"236 -10 OFFCURVE",
"243 -10 CURVE SMOOTH",
"250 -10 OFFCURVE",
"256 -4 OFFCURVE",
"256 3 CURVE SMOOTH",
"256 6 OFFCURVE",
"255 9 OFFCURVE",
"253 11 CURVE"
);
}
);
width = 292;
}
);
unicode = 00B5;
},
{
glyphname = at;
layers = (
{
layerId = UUID0;
paths = (
{
closed = 1;
nodes = (
"424 400 LINE",
"424 505 OFFCURVE",
"374 610 OFFCURVE",
"232 610 CURVE SMOOTH",
"86 610 OFFCURVE",
"40 505 OFFCURVE",
"40 400 CURVE SMOOTH",
"40 110 LINE SMOOTH",
"40 5 OFFCURVE",
"85 -100 OFFCURVE",
"231 -100 CURVE",
"231 -80 LINE",
"101 -80 OFFCURVE",
"60 19 OFFCURVE",
"60 111 CURVE SMOOTH",
"60 399 LINE SMOOTH",
"60 491 OFFCURVE",
"101 590 OFFCURVE",
"231 590 CURVE SMOOTH",
"362 590 OFFCURVE",
"404 491 OFFCURVE",
"404 399 CURVE SMOOTH",
"404 51 LINE",
"349 56 OFFCURVE",
"333 101 OFFCURVE",
"333 145 CURVE SMOOTH",
"333 448 LINE",
"335 451 OFFCURVE",
"336 454 OFFCURVE",
"336 457 CURVE SMOOTH",
"336 464 OFFCURVE",
"331 470 OFFCURVE",
"323 470 CURVE SMOOTH",
"316 470 OFFCURVE",
"310 464 OFFCURVE",
"310 457 CURVE SMOOTH",
"310 454 OFFCURVE",
"311 451 OFFCURVE",
"313 448 CURVE",
"313 428 LINE",
"295 453 OFFCURVE",
"271 470 OFFCURVE",
"230 470 CURVE SMOOTH",
"150 470 OFFCURVE",
"127 412 OFFCURVE",
"127 355 CURVE SMOOTH",
"127 145 LINE SMOOTH",
"127 88 OFFCURVE",
"150 30 OFFCURVE",
"230 30 CURVE SMOOTH",
"259 30 OFFCURVE",
"304 39 OFFCURVE",
"323 88 CURVE",
"336 55 OFFCURVE",
"365 30 OFFCURVE",
"416 30 CURVE SMOOTH",
"424 30 LINE"
);
},
{
closed = 1;
nodes = (
"147 355 LINE",
"147 400 OFFCURVE",
"166 450 OFFCURVE",
"230 450 CURVE SMOOTH",
"286 450 OFFCURVE",
"313 400 OFFCURVE",
"313 355 CURVE SMOOTH",
"313 145 LINE SMOOTH",
"313 96 OFFCURVE",
"292 50 OFFCURVE",
"230 50 CURVE SMOOTH",
"166 50 OFFCURVE",
"147 99 OFFCURVE",
"147 145 CURVE SMOOTH"
);
}
);
width = 463;
}
);
unicode = 0040;
},
{
glyphname = ampersand;
layers = (
{
layerId = UUID0;
paths = (
{
closed = 1;
nodes = (
"250 196 LINE",
"278 196 LINE",
"281 194 OFFCURVE",
"284 193 OFFCURVE",
"287 193 CURVE SMOOTH",
"294 193 OFFCURVE",
"300 199 OFFCURVE",
"300 206 CURVE SMOOTH",
"300 213 OFFCURVE",
"294 219 OFFCURVE",
"287 219 CURVE SMOOTH",
"284 219 OFFCURVE",
"281 218 OFFCURVE",
"278 216 CURVE",
"167 216 LINE",
"165 218 OFFCURVE",
"162 219 OFFCURVE",
"159 219 CURVE SMOOTH",
"152 219 OFFCURVE",
"146 213 OFFCURVE",
"146 206 CURVE SMOOTH",
"146 199 OFFCURVE",
"152 193 OFFCURVE",
"159 193 CURVE SMOOTH",
"163 193 OFFCURVE",
"165 194 OFFCURVE",
"167 196 CURVE",
"230 196 LINE",
"230 101 LINE SMOOTH",
"230 54 OFFCURVE",
"210 10 OFFCURVE",
"146 10 CURVE SMOOTH",
"82 10 OFFCURVE",
"62 54 OFFCURVE",
"62 101 CURVE SMOOTH",
"62 386 LINE SMOOTH",
"62 417 OFFCURVE",
"74 453 OFFCURVE",
"106 471 CURVE SMOOTH",
"116 477 OFFCURVE",
"128 479 OFFCURVE",
"144 480 CURVE",
"167 480 LINE",
"167 500 LINE",
"144 500 LINE",
"129 500 OFFCURVE",
"117 503 OFFCURVE",
"106 509 CURVE SMOOTH",
"74 527 OFFCURVE",
"62 563 OFFCURVE",
"62 600 CURVE SMOOTH",
"62 645 OFFCURVE",
"83 690 OFFCURVE",
"146 690 CURVE SMOOTH",
"207 690 OFFCURVE",
"228 647 OFFCURVE",
"230 606 CURVE",
"228 604 OFFCURVE",
"228 601 OFFCURVE",
"228 599 CURVE SMOOTH",
"228 592 OFFCURVE",
"234 586 OFFCURVE",
"241 586 CURVE SMOOTH",
"249 586 OFFCURVE",
"254 592 OFFCURVE",
"254 599 CURVE SMOOTH",
"254 603 OFFCURVE",
"252 606 OFFCURVE",
"250 608 CURVE",
"248 663 OFFCURVE",
"221 710 OFFCURVE",
"146 710 CURVE SMOOTH",
"66 710 OFFCURVE",
"42 655 OFFCURVE",
"42 600 CURVE SMOOTH",
"42 554 OFFCURVE",
"57 508 OFFCURVE",
"98 490 CURVE",
"57 471 OFFCURVE",
"42 425 OFFCURVE",
"42 386 CURVE SMOOTH",
"42 101 LINE SMOOTH",
"42 44 OFFCURVE",
"66 -10 OFFCURVE",
"146 -10 CURVE SMOOTH",
"223 -10 OFFCURVE",
"250 44 OFFCURVE",
"250 101 CURVE SMOOTH"
);
}
);
width = 308;
}
);
unicode = 0026;
},
{
glyphname = paragraph;
layers = (
{
layerId = UUID0;
paths = (
{
closed = 1;
nodes = (
"240 700 LINE",
"133 700 LINE SMOOTH",
"54 700 OFFCURVE",
"29 643 OFFCURVE",
"29 586 CURVE SMOOTH",
"29 497 LINE SMOOTH",
"29 440 OFFCURVE",
"54 386 OFFCURVE",
"133 386 CURVE SMOOTH",
"220 386 LINE",
"220 11 LINE",
"218 9 OFFCURVE",
"217 6 OFFCURVE",
"217 3 CURVE SMOOTH",
"217 -4 OFFCURVE",
"223 -10 OFFCURVE",
"230 -10 CURVE SMOOTH",
"237 -10 OFFCURVE",
"243 -4 OFFCURVE",
"243 3 CURVE SMOOTH",
"243 6 OFFCURVE",
"242 9 OFFCURVE",
"240 11 CURVE"
);
},
{
closed = 1;
nodes = (
"133 406 LINE",
"69 406 OFFCURVE",
"49 450 OFFCURVE",
"49 497 CURVE SMOOTH",
"49 586 LINE SMOOTH",
"49 631 OFFCURVE",
"69 680 OFFCURVE",
"133 680 CURVE SMOOTH",
"220 680 LINE",
"220 406 LINE"
);
},
{
closed = 1;
nodes = (
"312 688 LINE",
"314 691 OFFCURVE",
"315 694 OFFCURVE",
"315 697 CURVE SMOOTH",
"315 704 OFFCURVE",
"309 710 OFFCURVE",
"302 710 CURVE SMOOTH",
"294 710 OFFCURVE",
"289 704 OFFCURVE",
"289 697 CURVE SMOOTH",
"289 694 OFFCURVE",
"290 691 OFFCURVE",
"292 688 CURVE",
"292 11 LINE",
"290 9 OFFCURVE",
"289 6 OFFCURVE",
"289 3 CURVE SMOOTH",
"289 -4 OFFCURVE",
"294 -10 OFFCURVE",
"302 -10 CURVE SMOOTH",
"309 -10 OFFCURVE",
"315 -4 OFFCURVE",
"315 3 CURVE SMOOTH",
"315 6 OFFCURVE",
"314 9 OFFCURVE",
"312 11 CURVE"
);
}
);
width = 367;
}
);
unicode = 00B6;
},
{
glyphname = section;
layers = (
{
layerId = UUID0;
paths = (
{
closed = 1;
nodes = (
"249 118 LINE",
"249 150 OFFCURVE",
"241 184 OFFCURVE",
"209 215 CURVE",
"238 237 OFFCURVE",
"249 272 OFFCURVE",
"249 311 CURVE SMOOTH",
"249 344 OFFCURVE",
"241 379 OFFCURVE",
"206 412 CURVE",
"88 516 LINE SMOOTH",
"65 536 OFFCURVE",
"59 562 OFFCURVE",
"57 595 CURVE",
"57 666 LINE SMOOTH",
"57 711 OFFCURVE",
"78 760 OFFCURVE",
"142 760 CURVE SMOOTH",
"203 760 OFFCURVE",
"224 717 OFFCURVE",
"226 674 CURVE",
"224 672 OFFCURVE",
"223 669 OFFCURVE",
"223 666 CURVE SMOOTH",
"223 659 OFFCURVE",
"229 653 OFFCURVE",
"236 653 CURVE SMOOTH",
"243 653 OFFCURVE",
"249 659 OFFCURVE",
"249 666 CURVE SMOOTH",
"249 669 OFFCURVE",
"248 673 OFFCURVE",
"246 675 CURVE",
"244 729 OFFCURVE",
"216 780 OFFCURVE",
"142 780 CURVE SMOOTH",
"63 780 OFFCURVE",
"38 723 OFFCURVE",
"38 666 CURVE SMOOTH",
"38 595 LINE SMOOTH",
"38 564 OFFCURVE",
"42 532 OFFCURVE",
"74 504 CURVE",
"79 499 LINE",
"49 478 OFFCURVE",
"38 440 OFFCURVE",
"38 402 CURVE SMOOTH",
"38 371 OFFCURVE",
"42 339 OFFCURVE",
"74 311 CURVE SMOOTH",
"191 207 LINE",
"216 184 OFFCURVE",
"230 152 OFFCURVE",
"230 118 CURVE SMOOTH",
"230 31 LINE SMOOTH",
"230 -16 OFFCURVE",
"209 -60 OFFCURVE",
"145 -60 CURVE SMOOTH",
"85 -60 OFFCURVE",
"63 -22 OFFCURVE",
"61 22 CURVE",
"63 24 OFFCURVE",
"64 27 OFFCURVE",
"64 31 CURVE SMOOTH",
"64 38 OFFCURVE",
"58 44 OFFCURVE",
"51 44 CURVE SMOOTH",
"43 44 OFFCURVE",
"38 38 OFFCURVE",
"38 31 CURVE SMOOTH",
"38 27 OFFCURVE",
"39 24 OFFCURVE",
"41 22 CURVE",
"43 -32 OFFCURVE",
"71 -80 OFFCURVE",
"145 -80 CURVE SMOOTH",
"224 -80 OFFCURVE",
"249 -26 OFFCURVE",
"249 31 CURVE SMOOTH"
);
},
{
closed = 1;
nodes = (
"88 323 LINE",
"65 343 OFFCURVE",
"60 369 OFFCURVE",
"58 402 CURVE",
"58 435 OFFCURVE",
"66 467 OFFCURVE",
"95 485 CURVE",
"191 400 LINE",
"216 377 OFFCURVE",
"229 346 OFFCURVE",
"229 311 CURVE SMOOTH",
"229 278 OFFCURVE",
"219 247 OFFCURVE",
"194 229 CURVE"
);
}
);
width = 288;
}
);
unicode = 00A7;
},
{
glyphname = copyright;
layers = (
{
layerId = UUID0;
paths = (
{
closed = 1;
nodes = (
"424 500 LINE",
"424 605 OFFCURVE",
"374 710 OFFCURVE",
"232 710 CURVE SMOOTH",
"86 710 OFFCURVE",
"40 605 OFFCURVE",
"40 500 CURVE SMOOTH",
"40 199 LINE SMOOTH",
"40 94 OFFCURVE",
"86 -11 OFFCURVE",
"232 -11 CURVE SMOOTH",
"374 -11 OFFCURVE",
"424 94 OFFCURVE",
"424 199 CURVE SMOOTH"
);
},
{
closed = 1;
nodes = (
"404 200 LINE",
"404 108 OFFCURVE",
"362 9 OFFCURVE",
"231 9 CURVE SMOOTH",
"101 9 OFFCURVE",
"60 108 OFFCURVE",
"60 200 CURVE SMOOTH",
"60 499 LINE SMOOTH",
"60 591 OFFCURVE",
"101 690 OFFCURVE",
"231 690 CURVE SMOOTH",
"362 690 OFFCURVE",
"404 591 OFFCURVE",
"404 499 CURVE SMOOTH"
);
},
{
closed = 1;
nodes = (
"148 495 LINE",
"148 541 OFFCURVE",
"168 590 OFFCURVE",
"231 590 CURVE SMOOTH",
"292 590 OFFCURVE",
"313 547 OFFCURVE",
"315 504 CURVE",
"313 502 OFFCURVE",
"312 500 OFFCURVE",
"312 496 CURVE SMOOTH",
"312 488 OFFCURVE",
"316 484 OFFCURVE",
"325 484 CURVE SMOOTH",
"333 484 OFFCURVE",
"338 489 OFFCURVE",
"338 496 CURVE SMOOTH",
"338 500 OFFCURVE",
"337 503 OFFCURVE",
"335 505 CURVE",
"333 559 OFFCURVE",
"305 610 OFFCURVE",
"231 610 CURVE SMOOTH",
"153 610 OFFCURVE",
"128 552 OFFCURVE",
"128 495 CURVE SMOOTH",
"128 205 LINE SMOOTH",
"128 148 OFFCURVE",
"153 90 OFFCURVE",
"231 90 CURVE SMOOTH",
"305 90 OFFCURVE",
"333 141 OFFCURVE",
"335 195 CURVE",
"337 197 OFFCURVE",
"338 199 OFFCURVE",
"338 204 CURVE SMOOTH",
"338 210 OFFCURVE",
"333 216 OFFCURVE",
"325 216 CURVE SMOOTH",
"317 216 OFFCURVE",
"312 210 OFFCURVE",
"312 204 CURVE SMOOTH",
"312 200 OFFCURVE",
"313 197 OFFCURVE",
"315 195 CURVE",
"313 150 OFFCURVE",
"292 110 OFFCURVE",
"231 110 CURVE SMOOTH",
"168 110 OFFCURVE",
"148 158 OFFCURVE",
"148 205 CURVE SMOOTH"
);
}
);
width = 463;
}
);
unicode = 00A9;
},
{
glyphname = registered;
layers = (
{
layerId = UUID0;
paths = (
{
closed = 1;
nodes = (
"424 500 LINE",
"424 605 OFFCURVE",
"374 710 OFFCURVE",
"232 710 CURVE SMOOTH",
"86 710 OFFCURVE",
"40 605 OFFCURVE",
"40 500 CURVE SMOOTH",
"40 199 LINE SMOOTH",
"40 94 OFFCURVE",
"86 -11 OFFCURVE",
"232 -11 CURVE SMOOTH",
"374 -11 OFFCURVE",
"424 94 OFFCURVE",
"424 199 CURVE SMOOTH"
);
},
{
closed = 1;
nodes = (
"404 200 LINE",
"404 108 OFFCURVE",
"362 9 OFFCURVE",
"231 9 CURVE SMOOTH",
"101 9 OFFCURVE",
"60 108 OFFCURVE",
"60 200 CURVE SMOOTH",
"60 499 LINE SMOOTH",
"60 591 OFFCURVE",
"101 690 OFFCURVE",
"231 690 CURVE SMOOTH",
"362 690 OFFCURVE",
"404 591 OFFCURVE",
"404 499 CURVE SMOOTH"
);
},
{
closed = 1;
nodes = (
"260 246 LINE",
"312 255 OFFCURVE",
"330 299 OFFCURVE",
"330 345 CURVE SMOOTH",
"330 506 LINE SMOOTH",
"330 559 OFFCURVE",
"306 610 OFFCURVE",
"236 610 CURVE SMOOTH",
"143 610 LINE",
"143 111 LINE",
"141 109 OFFCURVE",
"140 106 OFFCURVE",
"140 103 CURVE SMOOTH",
"140 96 OFFCURVE",
"146 90 OFFCURVE",
"153 90 CURVE SMOOTH",
"160 90 OFFCURVE",
"166 96 OFFCURVE",
"166 103 CURVE SMOOTH",
"166 106 OFFCURVE",
"165 109 OFFCURVE",
"163 111 CURVE",
"163 244 LINE",
"238 244 LINE",
"306 106 LINE",
"306 103 LINE SMOOTH",
"306 96 OFFCURVE",
"312 90 OFFCURVE",
"319 90 CURVE SMOOTH",
"326 90 OFFCURVE",
"332 96 OFFCURVE",
"332 103 CURVE SMOOTH",
"332 108 OFFCURVE",
"328 113 OFFCURVE",
"324 115 CURVE"
);
},
{
closed = 1;
nodes = (
"163 264 LINE",
"163 590 LINE",
"236 590 LINE SMOOTH",
"292 590 OFFCURVE",
"310 547 OFFCURVE",
"310 506 CURVE SMOOTH",
"310 345 LINE SMOOTH",
"310 304 OFFCURVE",
"291 264 OFFCURVE",
"236 264 CURVE SMOOTH"
);
}
);
width = 463;
}
);
unicode = 00AE;
},
{
glyphname = degree;
layers = (
{
layerId = UUID0;
paths = (
{
closed = 1;
nodes = (
"57 640 LINE",
"57 664 OFFCURVE",
"67 690 OFFCURVE",
"101 690 CURVE SMOOTH",
"135 690 OFFCURVE",
"146 664 OFFCURVE",
"146 640 CURVE SMOOTH",
"146 473 LINE SMOOTH",
"146 449 OFFCURVE",
"135 423 OFFCURVE",
"101 423 CURVE SMOOTH",
"67 423 OFFCURVE",
"57 449 OFFCURVE",
"57 473 CURVE SMOOTH"
);
},
{
closed = 1;
nodes = (
"166 640 LINE",
"166 674 OFFCURVE",
"149 710 OFFCURVE",
"101 710 CURVE SMOOTH",
"53 710 OFFCURVE",
"37 674 OFFCURVE",
"37 640 CURVE SMOOTH",
"37 473 LINE SMOOTH",
"37 439 OFFCURVE",
"53 403 OFFCURVE",
"101 403 CURVE SMOOTH",
"149 403 OFFCURVE",
"166 439 OFFCURVE",
"166 473 CURVE SMOOTH"
);
}
);
width = 203;
}
);
unicode = 00B0;
},
{
glyphname = bar;
layers = (
{
layerId = UUID0;
paths = (
{
closed = 1;
nodes = (
"70 761 LINE",
"72 765 OFFCURVE",
"73 768 OFFCURVE",
"73 770 CURVE SMOOTH",
"73 777 OFFCURVE",
"67 783 OFFCURVE",
"60 783 CURVE SMOOTH",
"53 783 OFFCURVE",
"47 777 OFFCURVE",
"47 770 CURVE SMOOTH",
"47 767 OFFCURVE",
"48 764 OFFCURVE",
"50 761 CURVE",
"50 -62 LINE",
"48 -65 OFFCURVE",
"47 -68 OFFCURVE",
"47 -71 CURVE SMOOTH",
"47 -78 OFFCURVE",
"53 -84 OFFCURVE",
"60 -84 CURVE SMOOTH",
"67 -84 OFFCURVE",
"73 -78 OFFCURVE",
"73 -71 CURVE SMOOTH",
"73 -68 OFFCURVE",
"72 -65 OFFCURVE",
"70 -62 CURVE"
);
}
);
width = 121;
}
);
unicode = 007C;
},
{
glyphname = brokenbar;
layers = (
{
layerId = UUID0;
paths = (
{
closed = 1;
nodes = (
"73 761 LINE",
"75 764 OFFCURVE",
"76 767 OFFCURVE",
"76 770 CURVE SMOOTH",
"76 777 OFFCURVE",
"70 783 OFFCURVE",
"63 783 CURVE SMOOTH",
"56 783 OFFCURVE",
"50 777 OFFCURVE",
"50 770 CURVE SMOOTH",
"50 767 OFFCURVE",
"51 764 OFFCURVE",
"53 761 CURVE",
"53 451 LINE",
"51 449 OFFCURVE",
"50 446 OFFCURVE",
"50 443 CURVE SMOOTH",
"50 436 OFFCURVE",
"56 430 OFFCURVE",
"63 430 CURVE SMOOTH",
"70 430 OFFCURVE",
"76 436 OFFCURVE",
"76 443 CURVE SMOOTH",
"76 446 OFFCURVE",
"75 449 OFFCURVE",
"73 451 CURVE"
);
},
{
closed = 1;
nodes = (
"73 238 LINE",
"75 241 OFFCURVE",
"76 244 OFFCURVE",
"76 247 CURVE SMOOTH",
"76 254 OFFCURVE",
"70 260 OFFCURVE",
"63 260 CURVE SMOOTH",
"56 260 OFFCURVE",
"50 254 OFFCURVE",
"50 247 CURVE SMOOTH",
"50 244 OFFCURVE",
"51 241 OFFCURVE",
"53 238 CURVE",
"53 -62 LINE",
"51 -64 OFFCURVE",
"50 -67 OFFCURVE",
"50 -71 CURVE SMOOTH",
"50 -78 OFFCURVE",
"56 -84 OFFCURVE",
"63 -84 CURVE SMOOTH",
"70 -84 OFFCURVE",
"76 -78 OFFCURVE",
"76 -71 CURVE SMOOTH",
"76 -68 OFFCURVE",
"75 -65 OFFCURVE",
"73 -62 CURVE"
);
}
);
width = 125;
}
);
unicode = 00A6;
},
{
glyphname = asciicircum;
layers = (
{
layerId = UUID0;
paths = (
{
closed = 1;
nodes = (
"161 690 LINE",
"163 692 OFFCURVE",
"163 693 OFFCURVE",
"163 697 CURVE SMOOTH",
"163 704 OFFCURVE",
"157 710 OFFCURVE",
"150 710 CURVE SMOOTH",
"143 710 OFFCURVE",
"137 704 OFFCURVE",
"137 697 CURVE SMOOTH",
"137 693 LINE SMOOTH",
"137 692 OFFCURVE",
"138 691 OFFCURVE",
"138 690 CURVE",
"54 271 LINE",
"51 269 OFFCURVE",
"50 265 OFFCURVE",
"50 261 CURVE SMOOTH",
"50 254 OFFCURVE",
"56 248 OFFCURVE",
"63 248 CURVE SMOOTH",
"70 248 OFFCURVE",
"76 254 OFFCURVE",
"76 261 CURVE SMOOTH",
"76 263 OFFCURVE",
"76 266 OFFCURVE",
"74 268 CURVE",
"149 641 LINE",
"218 267 LINE",
"216 265 OFFCURVE",
"216 263 OFFCURVE",
"216 261 CURVE SMOOTH",
"216 254 OFFCURVE",
"220 248 OFFCURVE",
"229 248 CURVE SMOOTH",
"238 248 OFFCURVE",
"242 254 OFFCURVE",
"242 261 CURVE SMOOTH",
"242 265 OFFCURVE",
"241 267 OFFCURVE",
"239 269 CURVE"
);
}
);
width = 292;
}
);
unicode = 005E;
},
{
glyphname = ampersand.alt;
layers = (
{
layerId = UUID0;
paths = (
{
closed = 1;
nodes = (
"246 129 LINE",
"246 481 LINE",
"291 481 LINE",
"293 479 OFFCURVE",
"296 478 OFFCURVE",
"300 478 CURVE SMOOTH",
"307 478 OFFCURVE",
"313 484 OFFCURVE",
"313 491 CURVE SMOOTH",
"313 497 OFFCURVE",
"307 503 OFFCURVE",
"300 503 CURVE SMOOTH",
"296 503 OFFCURVE",
"294 502 OFFCURVE",
"292 500 CURVE",
"226 500 LINE",
"226 173 LINE",
"85 483 LINE SMOOTH",
"61 536 OFFCURVE",
"57 559 OFFCURVE",
"57 590 CURVE SMOOTH",
"57 634 OFFCURVE",
"78 680 OFFCURVE",
"141 680 CURVE SMOOTH",
"216 680 LINE",
"220 678 OFFCURVE",
"223 677 OFFCURVE",
"225 677 CURVE SMOOTH",
"232 677 OFFCURVE",
"238 683 OFFCURVE",
"238 690 CURVE SMOOTH",
"238 697 OFFCURVE",
"232 703 OFFCURVE",
"225 703 CURVE SMOOTH",
"222 703 OFFCURVE",
"219 702 OFFCURVE",
"216 700 CURVE",
"141 700 LINE SMOOTH",
"62 700 OFFCURVE",
"37 645 OFFCURVE",
"37 590 CURVE SMOOTH",
"37 549 OFFCURVE",
"43 527 OFFCURVE",
"65 479 CURVE",
"45 457 OFFCURVE",
"38 426 OFFCURVE",
"38 396 CURVE SMOOTH",
"38 101 LINE SMOOTH",
"38 44 OFFCURVE",
"63 -10 OFFCURVE",
"142 -10 CURVE SMOOTH",
"213 -10 OFFCURVE",
"241 35 OFFCURVE",
"245 87 CURVE",
"281 8 LINE",
"280 7 OFFCURVE",
"280 5 OFFCURVE",
"280 3 CURVE SMOOTH",
"280 -4 OFFCURVE",
"286 -10 OFFCURVE",
"293 -10 CURVE SMOOTH",
"300 -10 OFFCURVE",
"306 -4 OFFCURVE",
"306 3 CURVE SMOOTH",
"306 8 OFFCURVE",
"303 13 OFFCURVE",
"298 15 CURVE"
);
},
{
closed = 1;
nodes = (
"226 101 LINE",
"226 54 OFFCURVE",
"206 10 OFFCURVE",
"142 10 CURVE SMOOTH",
"78 10 OFFCURVE",
"58 54 OFFCURVE",
"58 101 CURVE SMOOTH",
"58 396 LINE SMOOTH",
"58 418 OFFCURVE",
"62 441 OFFCURVE",
"74 458 CURVE",
"226 129 LINE"
);
}
);
width = 323;
}
);
},
{
glyphname = acute;
layers = (
{
layerId = UUID0;
paths = (
{
closed = 1;
nodes = (
"167 684 LINE",
"174 684 OFFCURVE",
"180 689 OFFCURVE",
"180 697 CURVE SMOOTH",
"180 704 OFFCURVE",
"174 710 OFFCURVE",
"167 710 CURVE SMOOTH",
"160 710 OFFCURVE",
"154 704 OFFCURVE",
"154 698 CURVE",
"52 596 LINE",
"44 595 OFFCURVE",
"40 589 OFFCURVE",
"40 583 CURVE SMOOTH",
"40 576 OFFCURVE",
"46 570 OFFCURVE",
"53 570 CURVE SMOOTH",
"61 570 OFFCURVE",
"66 576 OFFCURVE",
"66 583 CURVE"
);
}
);
width = 220;
}
);
unicode = 00B4;
},
{
glyphname = caron;
layers = (
{
layerId = UUID0;
paths = (
{
closed = 1;
nodes = (
"282 684 LINE",
"288 684 OFFCURVE",
"294 689 OFFCURVE",
"294 697 CURVE SMOOTH",
"294 704 OFFCURVE",
"288 710 OFFCURVE",
"281 710 CURVE SMOOTH",
"273 710 OFFCURVE",
"268 704 OFFCURVE",
"268 697 CURVE",
"167 596 LINE",
"66 697 LINE",
"66 704 OFFCURVE",
"61 710 OFFCURVE",
"53 710 CURVE SMOOTH",
"46 710 OFFCURVE",
"40 704 OFFCURVE",
"40 697 CURVE SMOOTH",
"40 689 OFFCURVE",
"44 684 OFFCURVE",
"52 684 CURVE",
"154 582 LINE",
"154 575 OFFCURVE",
"160 570 OFFCURVE",
"167 570 CURVE SMOOTH",
"173 570 OFFCURVE",
"179 575 OFFCURVE",
"180 582 CURVE"
);
}
);
width = 334;
}
);
unicode = 02C7;
},
{
glyphname = cedilla;
layers = (
{
layerId = UUID0;
paths = (
{
closed = 1;
nodes = (
"189 -108 LINE SMOOTH",
"189 -60 OFFCURVE",
"153 -44 OFFCURVE",
"119 -44 CURVE SMOOTH",
"111 -44 LINE",
"111 0 LINE",
"91 0 LINE",
"91 -64 LINE",
"119 -64 LINE SMOOTH",
"143 -64 OFFCURVE",
"169 -75 OFFCURVE",
"169 -108 CURVE SMOOTH",
"169 -124 LINE SMOOTH",
"169 -158 OFFCURVE",
"143 -168 OFFCURVE",
"119 -168 CURVE SMOOTH",
"61 -168 LINE",
"59 -166 OFFCURVE",
"57 -165 OFFCURVE",
"53 -165 CURVE SMOOTH",
"46 -165 OFFCURVE",
"40 -171 OFFCURVE",
"40 -178 CURVE SMOOTH",
"40 -186 OFFCURVE",
"46 -191 OFFCURVE",
"53 -191 CURVE SMOOTH",
"57 -191 OFFCURVE",
"59 -190 OFFCURVE",
"61 -188 CURVE",
"119 -188 LINE SMOOTH",
"153 -188 OFFCURVE",
"189 -172 OFFCURVE",
"189 -124 CURVE SMOOTH"
);
}
);
width = 229;
}
);
unicode = 00B8;
},
{
glyphname = circumflex;
layers = (
{
layerId = UUID0;
paths = (
{
closed = 1;
nodes = (
"170 698 LINE",
"168 704 OFFCURVE",
"163 710 OFFCURVE",
"157 710 CURVE SMOOTH",
"150 710 OFFCURVE",
"144 704 OFFCURVE",
"144 698 CURVE",
"42 596 LINE",
"35 595 OFFCURVE",
"30 589 OFFCURVE",
"30 583 CURVE SMOOTH",
"30 576 OFFCURVE",
"36 570 OFFCURVE",
"43 570 CURVE SMOOTH",
"50 570 OFFCURVE",
"56 576 OFFCURVE",
"56 583 CURVE",
"157 684 LINE",
"258 583 LINE",
"258 576 OFFCURVE",
"264 570 OFFCURVE",
"271 570 CURVE SMOOTH",
"278 570 OFFCURVE",
"284 576 OFFCURVE",
"284 583 CURVE SMOOTH",
"284 589 OFFCURVE",
"278 595 OFFCURVE",
"272 596 CURVE"
);
}
);
width = 314;
}
);
unicode = 02C6;
},
{
glyphname = dieresis;
layers = (
{
layerId = UUID0;
paths = (
{
closed = 1;
nodes = (
"78 649 LINE",
"80 652 OFFCURVE",
"81 655 OFFCURVE",
"81 658 CURVE SMOOTH",
"81 666 OFFCURVE",
"75 671 OFFCURVE",
"68 671 CURVE SMOOTH",
"61 671 OFFCURVE",
"55 666 OFFCURVE",
"55 658 CURVE SMOOTH",
"55 655 OFFCURVE",
"56 652 OFFCURVE",
"58 649 CURVE",
"58 620 LINE",
"56 618 OFFCURVE",
"55 616 OFFCURVE",
"55 612 CURVE SMOOTH",
"55 605 OFFCURVE",
"61 599 OFFCURVE",
"68 599 CURVE SMOOTH",
"75 599 OFFCURVE",
"81 605 OFFCURVE",
"81 612 CURVE SMOOTH",
"81 616 OFFCURVE",
"80 618 OFFCURVE",
"78 620 CURVE"
);
},
{
closed = 1;
nodes = (
"191 649 LINE",
"193 652 OFFCURVE",
"194 655 OFFCURVE",
"194 658 CURVE SMOOTH",
"194 666 OFFCURVE",
"188 671 OFFCURVE",
"181 671 CURVE SMOOTH",
"174 671 OFFCURVE",
"168 666 OFFCURVE",
"168 658 CURVE SMOOTH",
"168 655 OFFCURVE",
"169 652 OFFCURVE",
"171 649 CURVE",
"171 620 LINE",
"169 618 OFFCURVE",
"168 616 OFFCURVE",
"168 612 CURVE SMOOTH",
"168 605 OFFCURVE",
"174 599 OFFCURVE",
"181 599 CURVE SMOOTH",
"188 599 OFFCURVE",
"194 605 OFFCURVE",
"194 612 CURVE SMOOTH",
"194 616 OFFCURVE",
"193 618 OFFCURVE",
"191 620 CURVE"
);
}
);
width = 248;
}
);
unicode = 00A8;
},
{
glyphname = grave;
layers = (
{
layerId = UUID0;
paths = (
{
closed = 1;
nodes = (
"66 698 LINE",
"64 704 OFFCURVE",
"59 710 OFFCURVE",
"53 710 CURVE SMOOTH",
"46 710 OFFCURVE",
"40 704 OFFCURVE",
"40 697 CURVE SMOOTH",
"40 689 OFFCURVE",
"46 684 OFFCURVE",
"53 684 CURVE",
"154 583 LINE",
"154 576 OFFCURVE",
"160 570 OFFCURVE",
"167 570 CURVE SMOOTH",
"174 570 OFFCURVE",
"180 576 OFFCURVE",
"180 583 CURVE SMOOTH",
"180 589 OFFCURVE",
"174 595 OFFCURVE",
"168 596 CURVE"
);
}
);
width = 220;
}
);
unicode = 0060;
},
{
glyphname = macron;
layers = (
{
layerId = UUID0;
paths = (
{
closed = 1;
nodes = (
"61 678 LINE",
"59 680 OFFCURVE",
"57 681 OFFCURVE",
"53 681 CURVE SMOOTH",
"46 681 OFFCURVE",
"40 675 OFFCURVE",
"40 668 CURVE SMOOTH",
"40 661 OFFCURVE",
"46 655 OFFCURVE",
"53 655 CURVE SMOOTH",
"57 655 OFFCURVE",
"59 656 OFFCURVE",
"61 658 CURVE",
"224 658 LINE",
"227 656 OFFCURVE",
"229 655 OFFCURVE",
"233 655 CURVE SMOOTH",
"240 655 OFFCURVE",
"246 661 OFFCURVE",
"246 668 CURVE SMOOTH",
"246 675 OFFCURVE",
"240 681 OFFCURVE",
"233 681 CURVE SMOOTH",
"230 681 OFFCURVE",
"227 680 OFFCURVE",
"224 678 CURVE"
);
}
);
width = 286;
}
);
unicode = 00AF;
},
{
glyphname = ring;
layers = (
{
layerId = UUID0;
paths = (
{
closed = 1;
nodes = (
"47 638 LINE",
"47 604 OFFCURVE",
"63 570 OFFCURVE",
"109 570 CURVE SMOOTH",
"157 570 OFFCURVE",
"171 604 OFFCURVE",
"171 638 CURVE SMOOTH",
"171 679 OFFCURVE",
"157 708 OFFCURVE",
"109 710 CURVE",
"63 710 OFFCURVE",
"47 674 OFFCURVE",
"47 643 CURVE SMOOTH"
);
},
{
closed = 1;
nodes = (
"124 591 OFFCURVE",
"117 590 OFFCURVE",
"109 590 CURVE SMOOTH",
"76 590 OFFCURVE",
"67 615 OFFCURVE",
"67 638 CURVE SMOOTH",
"67 669 OFFCURVE",
"77 688 OFFCURVE",
"109 690 CURVE",
"141 688 OFFCURVE",
"151 669 OFFCURVE",
"151 638 CURVE SMOOTH",
"151 620 OFFCURVE",
"146 603 OFFCURVE",
"129 594 CURVE SMOOTH"
);
}
);
width = 218;
}
);
unicode = 02DA;
},
{
glyphname = tilde;
layers = (
{
layerId = UUID0;
paths = (
{
closed = 1;
nodes = (
"250 660 LINE",
"252 663 OFFCURVE",
"254 666 OFFCURVE",
"254 670 CURVE SMOOTH",
"254 677 OFFCURVE",
"249 683 OFFCURVE",
"241 683 CURVE SMOOTH",
"234 683 OFFCURVE",
"228 677 OFFCURVE",
"228 670 CURVE SMOOTH",
"228 667 OFFCURVE",
"229 664 OFFCURVE",
"231 661 CURVE",
"231 654 LINE SMOOTH",
"231 625 OFFCURVE",
"215 618 OFFCURVE",
"197 618 CURVE SMOOTH",
"160 618 OFFCURVE",
"147 683 OFFCURVE",
"98 683 CURVE SMOOTH",
"72 683 OFFCURVE",
"44 671 OFFCURVE",
"44 627 CURVE SMOOTH",
"44 620 LINE",
"42 619 OFFCURVE",
"40 615 OFFCURVE",
"40 611 CURVE SMOOTH",
"40 604 OFFCURVE",
"46 598 OFFCURVE",
"53 598 CURVE SMOOTH",
"61 598 OFFCURVE",
"66 604 OFFCURVE",
"66 611 CURVE SMOOTH",
"66 614 OFFCURVE",
"65 617 OFFCURVE",
"63 619 CURVE",
"63 627 LINE SMOOTH",
"63 656 OFFCURVE",
"79 663 OFFCURVE",
"97 663 CURVE SMOOTH",
"134 663 OFFCURVE",
"146 598 OFFCURVE",
"196 598 CURVE SMOOTH",
"225 598 OFFCURVE",
"250 612 OFFCURVE",
"250 654 CURVE SMOOTH"
);
}
);
width = 294;
}
);
unicode = 02DC;
},
{
glyphname = foundryicon;
layers = (
{
layerId = UUID0;
paths = (
{
closed = 1;
nodes = (
"986 138 LINE",
"988 144 OFFCURVE",
"992 151 OFFCURVE",
"992 161 CURVE SMOOTH",
"992 186 OFFCURVE",
"978 197 OFFCURVE",
"953 197 CURVE SMOOTH",
"935 197 LINE",
"935 212 LINE",
"937 211 OFFCURVE",
"938 211 OFFCURVE",
"940 211 CURVE SMOOTH",
"947 211 LINE SMOOTH",
"978 211 OFFCURVE",
"992 228 OFFCURVE",
"992 246 CURVE SMOOTH",
"992 248 LINE SMOOTH",
"992 249 OFFCURVE",
"992 250 OFFCURVE",
"991 251 CURVE",
"1007 251 LINE",
"1007 282 LINE",
"1003 284 OFFCURVE",
"1001 284 OFFCURVE",
"996 284 CURVE SMOOTH",
"989 284 OFFCURVE",
"982 280 OFFCURVE",
"977 274 CURVE",
"969 280 OFFCURVE",
"958 284 OFFCURVE",
"946 284 CURVE SMOOTH",
"918 284 OFFCURVE",
"903 268 OFFCURVE",
"903 247 CURVE SMOOTH",
"903 234 OFFCURVE",
"908 225 OFFCURVE",
"917 219 CURVE",
"908 210 OFFCURVE",
"903 200 OFFCURVE",
"903 189 CURVE SMOOTH",
"903 181 OFFCURVE",
"906 172 OFFCURVE",
"913 167 CURVE",
"959 167 LINE",
"959 138 LINE"
);
},
{
closed = 1;
nodes = (
"268 251 LINE",
"268 282 LINE",
"225 282 LINE",
"225 251 LINE",
"234 251 LINE",
"223 209 LINE",
"218 233 LINE",
"204 282 LINE",
"166 282 LINE",
"166 251 LINE",
"176 251 LINE",
"200 182 LINE",
"214 182 LINE",
"210 173 OFFCURVE",
"203 171 OFFCURVE",
"193 171 CURVE SMOOTH",
"176 171 LINE",
"176 145 LINE",
"180 141 OFFCURVE",
"191 138 OFFCURVE",
"202 138 CURVE SMOOTH",
"221 138 OFFCURVE",
"237 146 OFFCURVE",
"245 175 CURVE"
);
},
{
closed = 1;
nodes = (
"158 212 LINE",
"126 212 LINE SMOOTH",
"101 212 OFFCURVE",
"89 224 OFFCURVE",
"89 249 CURVE SMOOTH",
"89 270 OFFCURVE",
"99 285 OFFCURVE",
"118 285 CURVE SMOOTH",
"123 285 LINE SMOOTH",
"124 285 OFFCURVE",
"125 285 OFFCURVE",
"127 284 CURVE",
"127 269 LINE",
"158 269 LINE",
"158 309 LINE",
"145 313 OFFCURVE",
"131 316 OFFCURVE",
"119 316 CURVE SMOOTH",
"74 316 OFFCURVE",
"51 288 OFFCURVE",
"51 245 CURVE SMOOTH",
"51 204 OFFCURVE",
"76 179 OFFCURVE",
"117 179 CURVE SMOOTH",
"132 179 OFFCURVE",
"146 182 OFFCURVE",
"158 187 CURVE"
);
},
{
closed = 1;
nodes = (
"794 202 OFFCURVE",
"799 215 OFFCURVE",
"799 232 CURVE SMOOTH",
"799 265 OFFCURVE",
"780 284 OFFCURVE",
"749 284 CURVE SMOOTH",
"718 284 OFFCURVE",
"699 264 OFFCURVE",
"699 231 CURVE SMOOTH",
"699 198 OFFCURVE",
"717 179 OFFCURVE",
"748 179 CURVE SMOOTH",
"764 179 OFFCURVE",
"776 184 OFFCURVE",
"785 193 CURVE SMOOTH"
);
},
{
closed = 1;
nodes = (
"577 212 LINE",
"566 212 LINE",
"566 246 LINE SMOOTH",
"566 270 OFFCURVE",
"551 284 OFFCURVE",
"520 284 CURVE SMOOTH",
"507 284 OFFCURVE",
"496 281 OFFCURVE",
"484 277 CURVE",
"484 251 LINE",
"509 251 LINE SMOOTH",
"526 251 OFFCURVE",
"531 247 OFFCURVE",
"531 241 CURVE SMOOTH",
"531 240 LINE",
"515 240 LINE SMOOTH",
"486 240 OFFCURVE",
"476 228 OFFCURVE",
"476 210 CURVE SMOOTH",
"476 190 OFFCURVE",
"491 179 OFFCURVE",
"510 179 CURVE SMOOTH",
"519 179 OFFCURVE",
"528 181 OFFCURVE",
"535 187 CURVE",
"539 183 OFFCURVE",
"546 180 OFFCURVE",
"557 180 CURVE SMOOTH",
"564 180 OFFCURVE",
"571 181 OFFCURVE",
"577 185 CURVE"
);
},
{
closed = 1;
nodes = (
"461 212 LINE",
"432 212 LINE SMOOTH",
"419 212 OFFCURVE",
"411 215 OFFCURVE",
"407 224 CURVE",
"462 224 LINE",
"463 231 OFFCURVE",
"464 237 OFFCURVE",
"464 242 CURVE SMOOTH",
"464 266 OFFCURVE",
"447 284 OFFCURVE",
"420 284 CURVE SMOOTH",
"387 284 OFFCURVE",
"371 263 OFFCURVE",
"371 230 CURVE SMOOTH",
"371 198 OFFCURVE",
"389 179 OFFCURVE",
"424 179 CURVE SMOOTH",
"436 179 OFFCURVE",
"450 181 OFFCURVE",
"461 186 CURVE"
);
},
{
closed = 1;
nodes = (
"875 212 LINE",
"858 212 LINE",
"858 251 LINE",
"892 251 LINE",
"892 282 LINE",
"889 284 OFFCURVE",
"884 284 OFFCURVE",
"880 284 CURVE SMOOTH",
"875 284 OFFCURVE",
"870 282 OFFCURVE",
"865 279 CURVE SMOOTH",
"861 275 OFFCURVE",
"858 272 OFFCURVE",
"855 266 CURVE",
"845 282 LINE",
"811 282 LINE",
"811 251 LINE",
"822 251 LINE",
"822 212 LINE",
"813 212 LINE",
"813 182 LINE",
"875 182 LINE"
);
},
{
closed = 1;
nodes = (
"346 212 LINE",
"329 212 LINE",
"329 251 LINE",
"363 251 LINE",
"363 282 LINE",
"359 284 OFFCURVE",
"356 284 OFFCURVE",
"351 284 CURVE SMOOTH",
"345 284 OFFCURVE",
"340 282 OFFCURVE",
"336 279 CURVE",
"332 275 OFFCURVE",
"330 272 OFFCURVE",
"326 266 CURVE",
"316 282 LINE",
"282 282 LINE",
"282 251 LINE",
"294 251 LINE",
"294 212 LINE",
"284 212 LINE",
"284 182 LINE",
"346 182 LINE"
);
},
{
closed = 1;
nodes = (
"638 212 LINE",
"624 212 LINE",
"624 316 LINE",
"577 316 LINE",
"577 285 LINE",
"589 285 LINE",
"589 208 LINE SMOOTH",
"589 189 OFFCURVE",
"598 180 OFFCURVE",
"616 180 CURVE SMOOTH",
"625 180 OFFCURVE",
"632 182 OFFCURVE",
"638 184 CURVE"
);
},
{
closed = 1;
nodes = (
"693 210 OFFCURVE",
"685 219 OFFCURVE",
"671 219 CURVE SMOOTH",
"658 219 OFFCURVE",
"651 210 OFFCURVE",
"651 199 CURVE SMOOTH",
"651 189 OFFCURVE",
"658 180 OFFCURVE",
"671 180 CURVE SMOOTH",
"685 180 OFFCURVE",
"693 189 OFFCURVE",
"693 199 CURVE SMOOTH"
);
},
{
closed = 1;
nodes = (
"740 206 OFFCURVE",
"735 213 OFFCURVE",
"735 232 CURVE SMOOTH",
"735 249 OFFCURVE",
"740 256 OFFCURVE",
"749 256 CURVE SMOOTH",
"758 256 OFFCURVE",
"763 249 OFFCURVE",
"763 232 CURVE SMOOTH",
"763 213 OFFCURVE",
"758 206 OFFCURVE",
"749 206 CURVE SMOOTH"
);
},
{
closed = 1;
nodes = (
"940 232 OFFCURVE",
"936 237 OFFCURVE",
"936 247 CURVE SMOOTH",
"936 257 OFFCURVE",
"940 262 OFFCURVE",
"948 262 CURVE SMOOTH",
"955 262 OFFCURVE",
"958 257 OFFCURVE",
"958 247 CURVE SMOOTH",
"958 237 OFFCURVE",
"955 232 OFFCURVE",
"948 232 CURVE SMOOTH"
);
},
{
closed = 1;
nodes = (
"531 207 LINE",
"527 204 OFFCURVE",
"524 204 OFFCURVE",
"520 204 CURVE SMOOTH",
"514 204 OFFCURVE",
"510 207 OFFCURVE",
"510 213 CURVE SMOOTH",
"510 218 OFFCURVE",
"514 222 OFFCURVE",
"523 222 CURVE SMOOTH",
"531 222 LINE"
);
},
{
closed = 1;
nodes = (
"406 242 LINE",
"408 252 OFFCURVE",
"413 258 OFFCURVE",
"419 258 CURVE SMOOTH",
"428 258 OFFCURVE",
"431 252 OFFCURVE",
"431 242 CURVE"
);
}
);
width = 1056;
}
);
},
